<svg width="2160" height="1284" viewBox="0 0 2160 1284" fill="none" xmlns="http://www.w3.org/2000/svg">
<rect width="2160" height="1284" rx="20" fill="#191D26"/>
<path d="M138.67 163V110.89H120.4V163H108.07V110.89H89.17V100H150.1V118.27C152.02 117.19 153.85 116.29 155.59 115.57C157.33 114.85 159.04 114.31 160.72 113.95C162.46 113.59 164.26 113.41 166.12 113.41C169.18 113.41 171.73 113.95 173.77 115.03C175.87 116.11 177.43 117.73 178.45 119.89C179.53 121.99 180.07 124.66 180.07 127.9V163H168.1V131.32C168.1 128.86 167.5 127.03 166.3 125.83C165.16 124.57 163.45 123.94 161.17 123.94C159.97 123.94 158.77 124.06 157.57 124.3C156.43 124.54 155.29 124.9 154.15 125.38C153.01 125.8 151.84 126.34 150.64 127V163H138.67ZM201.238 114.31V120.07C202.918 118.51 204.478 117.25 205.918 116.29C207.418 115.27 208.918 114.55 210.418 114.13C211.978 113.65 213.598 113.41 215.278 113.41C216.358 113.41 217.438 113.5 218.518 113.68C219.658 113.8 220.768 114.04 221.848 114.4L219.958 125.2C218.878 124.96 217.768 124.78 216.628 124.66C215.548 124.48 214.528 124.39 213.568 124.39C211.828 124.39 210.028 124.72 208.168 125.38C206.308 126.04 204.358 127.18 202.318 128.8V163H190.348V114.31H201.238ZM246.053 163.9C242.393 163.9 239.153 163.45 236.333 162.55C233.513 161.59 231.113 160.15 229.133 158.23C227.213 156.25 225.743 153.76 224.723 150.76C223.763 147.7 223.283 144.07 223.283 139.87C223.283 135.01 223.853 130.9 224.993 127.54C226.193 124.12 227.873 121.39 230.033 119.35C232.193 117.25 234.713 115.75 237.593 114.85C240.473 113.89 243.623 113.41 247.043 113.41C253.823 113.41 258.803 115.12 261.983 118.54C265.223 121.96 266.843 127.54 266.843 135.28C266.843 135.82 266.843 136.51 266.843 137.35C266.843 138.19 266.783 139 266.663 139.78C265.283 139.9 263.513 140.05 261.353 140.23C259.193 140.41 256.763 140.59 254.063 140.77C251.363 140.95 248.453 141.1 245.333 141.22C242.213 141.34 239.003 141.46 235.703 141.58C235.643 141.76 235.613 141.97 235.613 142.21C235.613 142.45 235.613 142.69 235.613 142.93C235.613 145.69 236.063 147.91 236.963 149.59C237.923 151.21 239.333 152.44 241.193 153.28C243.053 154.06 245.393 154.45 248.213 154.45C250.013 154.45 251.843 154.36 253.703 154.18C255.623 153.94 257.513 153.67 259.373 153.37C261.293 153.01 263.153 152.62 264.953 152.2L266.393 161.02C264.473 161.62 262.433 162.16 260.273 162.64C258.113 163.06 255.863 163.36 253.523 163.54C251.183 163.78 248.693 163.9 246.053 163.9ZM235.793 133.84C237.893 133.84 239.903 133.81 241.823 133.75C243.803 133.63 245.663 133.54 247.403 133.48C249.143 133.36 250.643 133.27 251.903 133.21C253.163 133.09 254.153 133 254.873 132.94C254.813 130.3 254.453 128.17 253.793 126.55C253.193 124.93 252.233 123.76 250.913 123.04C249.653 122.32 248.063 121.96 246.143 121.96C244.943 121.96 243.773 122.14 242.633 122.5C241.493 122.86 240.443 123.49 239.483 124.39C238.523 125.29 237.713 126.49 237.053 127.99C236.453 129.49 236.033 131.44 235.793 133.84ZM272.069 150.31C272.069 147.31 272.639 144.88 273.779 143.02C274.919 141.1 276.659 139.6 278.999 138.52C281.399 137.38 284.369 136.51 287.909 135.91C291.509 135.25 295.709 134.74 300.509 134.38V129.88C300.509 127.72 299.699 126.13 298.079 125.11C296.459 124.03 294.119 123.49 291.059 123.49C289.799 123.49 288.389 123.55 286.829 123.67C285.269 123.79 283.649 124 281.969 124.3C280.289 124.6 278.579 125.02 276.839 125.56L274.769 116.02C277.469 115.24 280.319 114.61 283.319 114.13C286.379 113.65 289.229 113.41 291.869 113.41C296.609 113.41 300.509 114.04 303.569 115.3C306.629 116.5 308.879 118.33 310.319 120.79C311.819 123.19 312.569 126.19 312.569 129.79V149.23C312.569 150.91 312.809 152.05 313.289 152.65C313.769 153.25 314.369 153.55 315.089 153.55C315.389 153.55 315.749 153.52 316.169 153.46C316.589 153.4 316.979 153.28 317.339 153.1L318.329 161.83C317.309 162.43 316.139 162.91 314.819 163.27C313.499 163.69 312.089 163.9 310.589 163.9C308.189 163.9 306.269 163.42 304.829 162.46C303.389 161.44 302.339 159.91 301.679 157.87C300.179 159.01 298.589 160.06 296.909 161.02C295.229 161.92 293.429 162.61 291.509 163.09C289.589 163.63 287.459 163.9 285.119 163.9C283.139 163.9 281.369 163.6 279.809 163C278.249 162.4 276.869 161.53 275.669 160.39C274.529 159.19 273.629 157.75 272.969 156.07C272.369 154.39 272.069 152.47 272.069 150.31ZM284.219 149.5C284.219 151.6 284.699 153.19 285.659 154.27C286.679 155.29 288.029 155.8 289.709 155.8C290.969 155.8 292.229 155.59 293.489 155.17C294.809 154.75 296.069 154.21 297.269 153.55C298.529 152.83 299.609 151.99 300.509 151.03V141.04C297.929 141.16 295.619 141.4 293.579 141.76C291.599 142.12 289.889 142.6 288.449 143.2C287.069 143.8 286.019 144.61 285.299 145.63C284.579 146.65 284.219 147.94 284.219 149.5ZM340.502 163.9C337.382 163.9 334.742 163.3 332.582 162.1C330.482 160.9 328.892 159.07 327.812 156.61C326.792 154.15 326.282 151 326.282 147.16V123.04H318.812V115.12L326.282 114.31L327.722 103.51H338.252V114.31H352.022V123.13H338.252V146.17C338.252 148.93 338.762 150.88 339.782 152.02C340.802 153.16 342.392 153.73 344.552 153.73C345.752 153.73 346.982 153.64 348.242 153.46C349.502 153.22 350.822 152.92 352.202 152.56L353.822 161.65C351.422 162.49 349.082 163.06 346.802 163.36C344.582 163.72 342.482 163.9 340.502 163.9ZM388.735 163V126.91H381.715V118.9L388.735 118.09V116.38C388.735 111.64 389.425 107.74 390.805 104.68C392.185 101.62 394.195 99.34 396.835 97.84C399.475 96.28 402.685 95.5 406.465 95.5C408.625 95.5 410.725 95.68 412.765 96.04C414.805 96.34 416.905 96.91 419.065 97.75L417.445 106.21C416.065 105.79 414.655 105.49 413.215 105.31C411.835 105.07 410.515 104.95 409.255 104.95C406.375 104.95 404.185 105.85 402.685 107.65C401.245 109.45 400.525 112.42 400.525 116.56V118.09H413.305V126.91H400.525V163H388.735ZM431.11 114.31V120.07C432.79 118.51 434.35 117.25 435.79 116.29C437.29 115.27 438.79 114.55 440.29 114.13C441.85 113.65 443.47 113.41 445.15 113.41C446.23 113.41 447.31 113.5 448.39 113.68C449.53 113.8 450.64 114.04 451.72 114.4L449.83 125.2C448.75 124.96 447.64 124.78 446.5 124.66C445.42 124.48 444.4 124.39 443.44 124.39C441.7 124.39 439.9 124.72 438.04 125.38C436.18 126.04 434.23 127.18 432.19 128.8V163H420.22V114.31H431.11ZM475.926 163.9C472.266 163.9 469.026 163.45 466.206 162.55C463.386 161.59 460.986 160.15 459.006 158.23C457.086 156.25 455.616 153.76 454.596 150.76C453.636 147.7 453.156 144.07 453.156 139.87C453.156 135.01 453.726 130.9 454.866 127.54C456.066 124.12 457.746 121.39 459.906 119.35C462.066 117.25 464.586 115.75 467.466 114.85C470.346 113.89 473.496 113.41 476.916 113.41C483.696 113.41 488.676 115.12 491.856 118.54C495.096 121.96 496.716 127.54 496.716 135.28C496.716 135.82 496.716 136.51 496.716 137.35C496.716 138.19 496.656 139 496.536 139.78C495.156 139.9 493.386 140.05 491.226 140.23C489.066 140.41 486.636 140.59 483.936 140.77C481.236 140.95 478.326 141.1 475.206 141.22C472.086 141.34 468.876 141.46 465.576 141.58C465.516 141.76 465.486 141.97 465.486 142.21C465.486 142.45 465.486 142.69 465.486 142.93C465.486 145.69 465.936 147.91 466.836 149.59C467.796 151.21 469.206 152.44 471.066 153.28C472.926 154.06 475.266 154.45 478.086 154.45C479.886 154.45 481.716 154.36 483.576 154.18C485.496 153.94 487.386 153.67 489.246 153.37C491.166 153.01 493.026 152.62 494.826 152.2L496.266 161.02C494.346 161.62 492.306 162.16 490.146 162.64C487.986 163.06 485.736 163.36 483.396 163.54C481.056 163.78 478.566 163.9 475.926 163.9ZM465.666 133.84C467.766 133.84 469.776 133.81 471.696 133.75C473.676 133.63 475.536 133.54 477.276 133.48C479.016 133.36 480.516 133.27 481.776 133.21C483.036 133.09 484.026 133 484.746 132.94C484.686 130.3 484.326 128.17 483.666 126.55C483.066 124.93 482.106 123.76 480.786 123.04C479.526 122.32 477.936 121.96 476.016 121.96C474.816 121.96 473.646 122.14 472.506 122.5C471.366 122.86 470.316 123.49 469.356 124.39C468.396 125.29 467.586 126.49 466.926 127.99C466.326 129.49 465.906 131.44 465.666 133.84ZM546.393 115.66V181.9H534.423V159.13C531.963 160.75 529.503 161.95 527.043 162.73C524.583 163.51 522.123 163.9 519.663 163.9C514.203 163.9 510.033 161.8 507.153 157.6C504.333 153.4 502.923 147.22 502.923 139.06C502.923 133.12 503.763 128.26 505.443 124.48C507.183 120.7 509.823 117.91 513.363 116.11C516.963 114.31 521.553 113.41 527.133 113.41C529.953 113.41 532.983 113.59 536.223 113.95C539.463 114.31 542.853 114.88 546.393 115.66ZM534.423 123.13C532.923 122.77 531.543 122.53 530.283 122.41C529.023 122.23 527.823 122.14 526.683 122.14C524.103 122.14 521.973 122.68 520.293 123.76C518.613 124.84 517.353 126.61 516.513 129.07C515.733 131.53 515.343 134.86 515.343 139.06C515.343 142.42 515.673 145.21 516.333 147.43C516.993 149.65 517.983 151.3 519.303 152.38C520.623 153.4 522.213 153.91 524.073 153.91C525.153 153.91 526.233 153.82 527.313 153.64C528.393 153.4 529.503 153.04 530.643 152.56C531.843 152.02 533.103 151.36 534.423 150.58V123.13ZM570.64 163.9C567.82 163.9 565.36 163.39 563.26 162.37C561.16 161.35 559.54 159.79 558.4 157.69C557.26 155.59 556.69 152.95 556.69 149.77V114.31H568.66V146.98C568.66 149.26 569.23 151 570.37 152.2C571.57 153.34 573.25 153.91 575.41 153.91C576.61 153.91 577.75 153.79 578.83 153.55C579.91 153.31 580.99 152.98 582.07 152.56C583.15 152.08 584.29 151.54 585.49 150.94V114.31H597.46V149.59C597.46 150.61 597.55 151.42 597.73 152.02C597.97 152.62 598.3 153.07 598.72 153.37C599.14 153.61 599.62 153.73 600.16 153.73C600.88 153.73 601.6 153.58 602.32 153.28L603.31 161.83C602.65 162.25 601.9 162.61 601.06 162.91C600.22 163.21 599.29 163.45 598.27 163.63C597.31 163.81 596.29 163.9 595.21 163.9C593.23 163.9 591.55 163.48 590.17 162.64C588.79 161.74 587.71 160.48 586.93 158.86C585.19 159.88 583.45 160.78 581.71 161.56C579.97 162.34 578.2 162.91 576.4 163.27C574.6 163.69 572.68 163.9 570.64 163.9ZM629.886 163.9C626.226 163.9 622.986 163.45 620.166 162.55C617.346 161.59 614.946 160.15 612.966 158.23C611.046 156.25 609.576 153.76 608.556 150.76C607.596 147.7 607.116 144.07 607.116 139.87C607.116 135.01 607.686 130.9 608.826 127.54C610.026 124.12 611.706 121.39 613.866 119.35C616.026 117.25 618.546 115.75 621.426 114.85C624.306 113.89 627.456 113.41 630.876 113.41C637.656 113.41 642.636 115.12 645.816 118.54C649.056 121.96 650.676 127.54 650.676 135.28C650.676 135.82 650.676 136.51 650.676 137.35C650.676 138.19 650.616 139 650.496 139.78C649.116 139.9 647.346 140.05 645.186 140.23C643.026 140.41 640.596 140.59 637.896 140.77C635.196 140.95 632.286 141.1 629.166 141.22C626.046 141.34 622.836 141.46 619.536 141.58C619.476 141.76 619.446 141.97 619.446 142.21C619.446 142.45 619.446 142.69 619.446 142.93C619.446 145.69 619.896 147.91 620.796 149.59C621.756 151.21 623.166 152.44 625.026 153.28C626.886 154.06 629.226 154.45 632.046 154.45C633.846 154.45 635.676 154.36 637.536 154.18C639.456 153.94 641.346 153.67 643.206 153.37C645.126 153.01 646.986 152.62 648.786 152.2L650.226 161.02C648.306 161.62 646.266 162.16 644.106 162.64C641.946 163.06 639.696 163.36 637.356 163.54C635.016 163.78 632.526 163.9 629.886 163.9ZM619.626 133.84C621.726 133.84 623.736 133.81 625.656 133.75C627.636 133.63 629.496 133.54 631.236 133.48C632.976 133.36 634.476 133.27 635.736 133.21C636.996 133.09 637.986 133 638.706 132.94C638.646 130.3 638.286 128.17 637.626 126.55C637.026 124.93 636.066 123.76 634.746 123.04C633.486 122.32 631.896 121.96 629.976 121.96C628.776 121.96 627.606 122.14 626.466 122.5C625.326 122.86 624.276 123.49 623.316 124.39C622.356 125.29 621.546 126.49 620.886 127.99C620.286 129.49 619.866 131.44 619.626 133.84ZM659.037 163V114.31H669.927V118.54C671.907 117.4 673.797 116.47 675.597 115.75C677.397 114.97 679.167 114.4 680.907 114.04C682.707 113.62 684.597 113.41 686.577 113.41C689.697 113.41 692.277 113.98 694.317 115.12C696.417 116.2 697.977 117.76 698.997 119.8C700.017 121.84 700.527 124.3 700.527 127.18V163H688.557V130.96C688.557 128.44 687.957 126.58 686.757 125.38C685.617 124.12 683.877 123.49 681.537 123.49C680.337 123.49 679.167 123.64 678.027 123.94C676.887 124.18 675.747 124.51 674.607 124.93C673.467 125.35 672.267 125.89 671.007 126.55V163H659.037ZM708.935 139.33C708.935 133.57 709.835 128.77 711.635 124.93C713.495 121.09 716.255 118.21 719.915 116.29C723.575 114.37 728.015 113.41 733.235 113.41C735.035 113.41 736.835 113.5 738.635 113.68C740.495 113.8 742.295 114.01 744.035 114.31C745.775 114.55 747.335 114.88 748.715 115.3L747.095 125.29C745.715 124.99 744.305 124.75 742.865 124.57C741.425 124.33 739.985 124.15 738.545 124.03C737.165 123.91 735.815 123.85 734.495 123.85C731.615 123.85 729.185 124.42 727.205 125.56C725.285 126.64 723.815 128.32 722.795 130.6C721.775 132.82 721.265 135.67 721.265 139.15C721.265 142.39 721.775 145.09 722.795 147.25C723.875 149.35 725.405 150.94 727.385 152.02C729.425 153.04 731.855 153.55 734.675 153.55C736.055 153.55 737.465 153.52 738.905 153.46C740.405 153.34 741.905 153.16 743.405 152.92C744.905 152.68 746.375 152.41 747.815 152.11L749.615 161.65C747.215 162.31 744.425 162.85 741.245 163.27C738.125 163.69 735.095 163.9 732.155 163.9C724.415 163.9 718.595 161.92 714.695 157.96C710.855 153.94 708.935 147.73 708.935 139.33ZM767.159 181.81L773.189 163H771.119L753.029 114.4L766.169 114.13L778.139 153.1L789.299 114.13L801.629 114.4L779.489 182.08L767.159 181.81Z" fill="white"/>
<path d="M194.2 1165.36C196.333 1163.55 198.147 1161.97 199.64 1160.64C201.16 1159.31 202.4 1158.15 203.36 1157.16C204.347 1156.17 205.107 1155.29 205.64 1154.52C206.2 1153.72 206.587 1153 206.8 1152.36C207.013 1151.69 207.12 1151 207.12 1150.28C207.12 1149.35 206.92 1148.56 206.52 1147.92C206.147 1147.25 205.6 1146.75 204.88 1146.4C204.16 1146.05 203.267 1145.88 202.2 1145.88C201.24 1145.88 200.213 1146.04 199.12 1146.36C198.053 1146.65 196.973 1147.12 195.88 1147.76L194.2 1143.24C195.08 1142.65 196.013 1142.17 197 1141.8C198.013 1141.4 199.067 1141.11 200.16 1140.92C201.28 1140.71 202.387 1140.6 203.48 1140.6C205.48 1140.6 207.173 1140.96 208.56 1141.68C209.973 1142.4 211.053 1143.4 211.8 1144.68C212.547 1145.96 212.92 1147.45 212.92 1149.16C212.92 1150.01 212.84 1150.81 212.68 1151.56C212.547 1152.31 212.267 1153.09 211.84 1153.92C211.413 1154.72 210.787 1155.63 209.96 1156.64C209.16 1157.63 208.093 1158.77 206.76 1160.08C205.427 1161.39 203.787 1162.91 201.84 1164.64H215.04V1169H194.32L194.2 1165.36ZM218.481 1155C218.481 1152.23 218.748 1149.92 219.281 1148.08C219.814 1146.21 220.588 1144.73 221.601 1143.64C222.614 1142.55 223.814 1141.77 225.201 1141.32C226.588 1140.84 228.134 1140.6 229.841 1140.6C231.574 1140.6 233.134 1140.84 234.521 1141.32C235.934 1141.77 237.134 1142.56 238.121 1143.68C239.108 1144.77 239.868 1146.24 240.401 1148.08C240.934 1149.92 241.201 1152.23 241.201 1155C241.201 1157.75 240.921 1160.05 240.361 1161.92C239.801 1163.76 239.014 1165.23 238.001 1166.32C237.014 1167.41 235.828 1168.2 234.441 1168.68C233.054 1169.16 231.521 1169.4 229.841 1169.4C228.134 1169.4 226.588 1169.17 225.201 1168.72C223.814 1168.24 222.614 1167.45 221.601 1166.36C220.614 1165.24 219.841 1163.76 219.281 1161.92C218.748 1160.05 218.481 1157.75 218.481 1155ZM223.921 1155.16C223.921 1157.24 224.068 1158.95 224.361 1160.28C224.654 1161.59 225.068 1162.6 225.601 1163.32C226.134 1164.01 226.761 1164.51 227.481 1164.8C228.201 1165.07 228.988 1165.2 229.841 1165.2C230.668 1165.2 231.441 1165.07 232.161 1164.8C232.881 1164.51 233.508 1164.01 234.041 1163.32C234.574 1162.6 234.988 1161.59 235.281 1160.28C235.574 1158.95 235.721 1157.24 235.721 1155.16C235.721 1153 235.574 1151.24 235.281 1149.88C234.988 1148.52 234.561 1147.47 234.001 1146.72C233.468 1145.97 232.841 1145.47 232.121 1145.2C231.428 1144.93 230.668 1144.8 229.841 1144.8C228.988 1144.8 228.201 1144.93 227.481 1145.2C226.788 1145.47 226.161 1145.97 225.601 1146.72C225.068 1147.47 224.654 1148.52 224.361 1149.88C224.068 1151.24 223.921 1153 223.921 1155.16ZM244.883 1165.36C247.016 1163.55 248.829 1161.97 250.323 1160.64C251.843 1159.31 253.083 1158.15 254.043 1157.16C255.029 1156.17 255.789 1155.29 256.323 1154.52C256.883 1153.72 257.269 1153 257.483 1152.36C257.696 1151.69 257.803 1151 257.803 1150.28C257.803 1149.35 257.603 1148.56 257.203 1147.92C256.829 1147.25 256.283 1146.75 255.563 1146.4C254.843 1146.05 253.949 1145.88 252.883 1145.88C251.923 1145.88 250.896 1146.04 249.803 1146.36C248.736 1146.65 247.656 1147.12 246.563 1147.76L244.883 1143.24C245.763 1142.65 246.696 1142.17 247.683 1141.8C248.696 1141.4 249.749 1141.11 250.843 1140.92C251.963 1140.71 253.069 1140.6 254.163 1140.6C256.163 1140.6 257.856 1140.96 259.243 1141.68C260.656 1142.4 261.736 1143.4 262.483 1144.68C263.229 1145.96 263.603 1147.45 263.603 1149.16C263.603 1150.01 263.523 1150.81 263.363 1151.56C263.229 1152.31 262.949 1153.09 262.523 1153.92C262.096 1154.72 261.469 1155.63 260.643 1156.64C259.843 1157.63 258.776 1158.77 257.443 1160.08C256.109 1161.39 254.469 1162.91 252.523 1164.64H265.723V1169H245.003L244.883 1165.36ZM270.244 1165.36C272.377 1163.55 274.19 1161.97 275.684 1160.64C277.204 1159.31 278.444 1158.15 279.404 1157.16C280.39 1156.17 281.15 1155.29 281.684 1154.52C282.244 1153.72 282.63 1153 282.844 1152.36C283.057 1151.69 283.164 1151 283.164 1150.28C283.164 1149.35 282.964 1148.56 282.564 1147.92C282.19 1147.25 281.644 1146.75 280.924 1146.4C280.204 1146.05 279.31 1145.88 278.244 1145.88C277.284 1145.88 276.257 1146.04 275.164 1146.36C274.097 1146.65 273.017 1147.12 271.924 1147.76L270.244 1143.24C271.124 1142.65 272.057 1142.17 273.044 1141.8C274.057 1141.4 275.11 1141.11 276.204 1140.92C277.324 1140.71 278.43 1140.6 279.524 1140.6C281.524 1140.6 283.217 1140.96 284.604 1141.68C286.017 1142.4 287.097 1143.4 287.844 1144.68C288.59 1145.96 288.964 1147.45 288.964 1149.16C288.964 1150.01 288.884 1150.81 288.724 1151.56C288.59 1152.31 288.31 1153.09 287.884 1153.92C287.457 1154.72 286.83 1155.63 286.004 1156.64C285.204 1157.63 284.137 1158.77 282.804 1160.08C281.47 1161.39 279.83 1162.91 277.884 1164.64H291.084V1169H270.364L270.244 1165.36Z" fill="white"/>
<path d="M1035.2 1165.36C1037.33 1163.55 1039.15 1161.97 1040.64 1160.64C1042.16 1159.31 1043.4 1158.15 1044.36 1157.16C1045.35 1156.17 1046.11 1155.29 1046.64 1154.52C1047.2 1153.72 1047.59 1153 1047.8 1152.36C1048.01 1151.69 1048.12 1151 1048.12 1150.28C1048.12 1149.35 1047.92 1148.56 1047.52 1147.92C1047.15 1147.25 1046.6 1146.75 1045.88 1146.4C1045.16 1146.05 1044.27 1145.88 1043.2 1145.88C1042.24 1145.88 1041.21 1146.04 1040.12 1146.36C1039.05 1146.65 1037.97 1147.12 1036.88 1147.76L1035.2 1143.24C1036.08 1142.65 1037.01 1142.17 1038 1141.8C1039.01 1141.4 1040.07 1141.11 1041.16 1140.92C1042.28 1140.71 1043.39 1140.6 1044.48 1140.6C1046.48 1140.6 1048.17 1140.96 1049.56 1141.68C1050.97 1142.4 1052.05 1143.4 1052.8 1144.68C1053.55 1145.96 1053.92 1147.45 1053.92 1149.16C1053.92 1150.01 1053.84 1150.81 1053.68 1151.56C1053.55 1152.31 1053.27 1153.09 1052.84 1153.92C1052.41 1154.72 1051.79 1155.63 1050.96 1156.64C1050.16 1157.63 1049.09 1158.77 1047.76 1160.08C1046.43 1161.39 1044.79 1162.91 1042.84 1164.64H1056.04V1169H1035.32L1035.2 1165.36ZM1059.48 1155C1059.48 1152.23 1059.75 1149.92 1060.28 1148.08C1060.81 1146.21 1061.59 1144.73 1062.6 1143.64C1063.61 1142.55 1064.81 1141.77 1066.2 1141.32C1067.59 1140.84 1069.13 1140.6 1070.84 1140.6C1072.57 1140.6 1074.13 1140.84 1075.52 1141.32C1076.93 1141.77 1078.13 1142.56 1079.12 1143.68C1080.11 1144.77 1080.87 1146.24 1081.4 1148.08C1081.93 1149.92 1082.2 1152.23 1082.2 1155C1082.2 1157.75 1081.92 1160.05 1081.36 1161.92C1080.8 1163.76 1080.01 1165.23 1079 1166.32C1078.01 1167.41 1076.83 1168.2 1075.44 1168.68C1074.05 1169.16 1072.52 1169.4 1070.84 1169.4C1069.13 1169.4 1067.59 1169.17 1066.2 1168.72C1064.81 1168.24 1063.61 1167.45 1062.6 1166.36C1061.61 1165.24 1060.84 1163.76 1060.28 1161.92C1059.75 1160.05 1059.48 1157.75 1059.48 1155ZM1064.92 1155.16C1064.92 1157.24 1065.07 1158.95 1065.36 1160.28C1065.65 1161.59 1066.07 1162.6 1066.6 1163.32C1067.13 1164.01 1067.76 1164.51 1068.48 1164.8C1069.2 1165.07 1069.99 1165.2 1070.84 1165.2C1071.67 1165.2 1072.44 1165.07 1073.16 1164.8C1073.88 1164.51 1074.51 1164.01 1075.04 1163.32C1075.57 1162.6 1075.99 1161.59 1076.28 1160.28C1076.57 1158.95 1076.72 1157.24 1076.72 1155.16C1076.72 1153 1076.57 1151.24 1076.28 1149.88C1075.99 1148.52 1075.56 1147.47 1075 1146.72C1074.47 1145.97 1073.84 1145.47 1073.12 1145.2C1072.43 1144.93 1071.67 1144.8 1070.84 1144.8C1069.99 1144.8 1069.2 1144.93 1068.48 1145.2C1067.79 1145.47 1067.16 1145.97 1066.6 1146.72C1066.07 1147.47 1065.65 1148.52 1065.36 1149.88C1065.07 1151.24 1064.92 1153 1064.92 1155.16ZM1085.88 1165.36C1088.02 1163.55 1089.83 1161.97 1091.32 1160.64C1092.84 1159.31 1094.08 1158.15 1095.04 1157.16C1096.03 1156.17 1096.79 1155.29 1097.32 1154.52C1097.88 1153.72 1098.27 1153 1098.48 1152.36C1098.7 1151.69 1098.8 1151 1098.8 1150.28C1098.8 1149.35 1098.6 1148.56 1098.2 1147.92C1097.83 1147.25 1097.28 1146.75 1096.56 1146.4C1095.84 1146.05 1094.95 1145.88 1093.88 1145.88C1092.92 1145.88 1091.9 1146.04 1090.8 1146.36C1089.74 1146.65 1088.66 1147.12 1087.56 1147.76L1085.88 1143.24C1086.76 1142.65 1087.7 1142.17 1088.68 1141.8C1089.7 1141.4 1090.75 1141.11 1091.84 1140.92C1092.96 1140.71 1094.07 1140.6 1095.16 1140.6C1097.16 1140.6 1098.86 1140.96 1100.24 1141.68C1101.66 1142.4 1102.74 1143.4 1103.48 1144.68C1104.23 1145.96 1104.6 1147.45 1104.6 1149.16C1104.6 1150.01 1104.52 1150.81 1104.36 1151.56C1104.23 1152.31 1103.95 1153.09 1103.52 1153.92C1103.1 1154.72 1102.47 1155.63 1101.64 1156.64C1100.84 1157.63 1099.78 1158.77 1098.44 1160.08C1097.11 1161.39 1095.47 1162.91 1093.52 1164.64H1106.72V1169H1086L1085.88 1165.36ZM1110.32 1167.12L1111.8 1163.28C1112.58 1163.63 1113.38 1163.92 1114.2 1164.16C1115.03 1164.4 1115.91 1164.59 1116.84 1164.72C1117.78 1164.85 1118.76 1164.92 1119.8 1164.92C1121.22 1164.92 1122.4 1164.76 1123.36 1164.44C1124.32 1164.09 1125.03 1163.59 1125.48 1162.92C1125.96 1162.23 1126.2 1161.4 1126.2 1160.44C1126.2 1159.13 1125.67 1158.17 1124.6 1157.56C1123.54 1156.95 1121.96 1156.64 1119.88 1156.64H1115.84V1152.68H1120.32C1121.42 1152.68 1122.34 1152.53 1123.08 1152.24C1123.86 1151.95 1124.42 1151.52 1124.76 1150.96C1125.14 1150.4 1125.32 1149.76 1125.32 1149.04C1125.32 1147.87 1124.82 1146.96 1123.8 1146.32C1122.82 1145.65 1121.43 1145.32 1119.64 1145.32C1118.5 1145.32 1117.31 1145.44 1116.08 1145.68C1114.88 1145.89 1113.67 1146.29 1112.44 1146.88L1111.16 1142.68C1111.94 1142.25 1112.82 1141.88 1113.8 1141.56C1114.79 1141.24 1115.84 1141 1116.96 1140.84C1118.11 1140.68 1119.34 1140.6 1120.64 1140.6C1122.7 1140.6 1124.46 1140.89 1125.92 1141.48C1127.42 1142.07 1128.58 1142.91 1129.4 1144C1130.23 1145.07 1130.64 1146.36 1130.64 1147.88C1130.64 1149.35 1130.27 1150.64 1129.52 1151.76C1128.78 1152.85 1127.7 1153.67 1126.28 1154.2C1128.04 1154.65 1129.38 1155.45 1130.28 1156.6C1131.22 1157.75 1131.68 1159.15 1131.68 1160.8C1131.68 1162.61 1131.22 1164.16 1130.28 1165.44C1129.38 1166.72 1128.07 1167.71 1126.36 1168.4C1124.68 1169.07 1122.64 1169.4 1120.24 1169.4C1118.88 1169.4 1117.63 1169.32 1116.48 1169.16C1115.34 1169 1114.27 1168.76 1113.28 1168.44C1112.32 1168.09 1111.34 1167.65 1110.32 1167.12Z" fill="white"/>
<path d="M1705.7 1165.36C1707.83 1163.55 1709.64 1161.97 1711.14 1160.64C1712.66 1159.31 1713.9 1158.15 1714.86 1157.16C1715.84 1156.17 1716.6 1155.29 1717.14 1154.52C1717.7 1153.72 1718.08 1153 1718.3 1152.36C1718.51 1151.69 1718.62 1151 1718.62 1150.28C1718.62 1149.35 1718.42 1148.56 1718.02 1147.92C1717.64 1147.25 1717.1 1146.75 1716.38 1146.4C1715.66 1146.05 1714.76 1145.88 1713.7 1145.88C1712.74 1145.88 1711.71 1146.04 1710.62 1146.36C1709.55 1146.65 1708.47 1147.12 1707.38 1147.76L1705.7 1143.24C1706.58 1142.65 1707.51 1142.17 1708.5 1141.8C1709.51 1141.4 1710.56 1141.11 1711.66 1140.92C1712.78 1140.71 1713.88 1140.6 1714.98 1140.6C1716.98 1140.6 1718.67 1140.96 1720.06 1141.68C1721.47 1142.4 1722.55 1143.4 1723.3 1144.68C1724.04 1145.96 1724.42 1147.45 1724.42 1149.16C1724.42 1150.01 1724.34 1150.81 1724.18 1151.56C1724.04 1152.31 1723.76 1153.09 1723.34 1153.92C1722.91 1154.72 1722.28 1155.63 1721.46 1156.64C1720.66 1157.63 1719.59 1158.77 1718.26 1160.08C1716.92 1161.39 1715.28 1162.91 1713.34 1164.64H1726.54V1169H1705.82L1705.7 1165.36ZM1729.98 1155C1729.98 1152.23 1730.25 1149.92 1730.78 1148.08C1731.31 1146.21 1732.09 1144.73 1733.1 1143.64C1734.11 1142.55 1735.31 1141.77 1736.7 1141.32C1738.09 1140.84 1739.63 1140.6 1741.34 1140.6C1743.07 1140.6 1744.63 1140.84 1746.02 1141.32C1747.43 1141.77 1748.63 1142.56 1749.62 1143.68C1750.61 1144.77 1751.37 1146.24 1751.9 1148.08C1752.43 1149.92 1752.7 1152.23 1752.7 1155C1752.7 1157.75 1752.42 1160.05 1751.86 1161.92C1751.3 1163.76 1750.51 1165.23 1749.5 1166.32C1748.51 1167.41 1747.33 1168.2 1745.94 1168.68C1744.55 1169.16 1743.02 1169.4 1741.34 1169.4C1739.63 1169.4 1738.09 1169.17 1736.7 1168.72C1735.31 1168.24 1734.11 1167.45 1733.1 1166.36C1732.11 1165.24 1731.34 1163.76 1730.78 1161.92C1730.25 1160.05 1729.98 1157.75 1729.98 1155ZM1735.42 1155.16C1735.42 1157.24 1735.57 1158.95 1735.86 1160.28C1736.15 1161.59 1736.57 1162.6 1737.1 1163.32C1737.63 1164.01 1738.26 1164.51 1738.98 1164.8C1739.7 1165.07 1740.49 1165.2 1741.34 1165.2C1742.17 1165.2 1742.94 1165.07 1743.66 1164.8C1744.38 1164.51 1745.01 1164.01 1745.54 1163.32C1746.07 1162.6 1746.49 1161.59 1746.78 1160.28C1747.07 1158.95 1747.22 1157.24 1747.22 1155.16C1747.22 1153 1747.07 1151.24 1746.78 1149.88C1746.49 1148.52 1746.06 1147.47 1745.5 1146.72C1744.97 1145.97 1744.34 1145.47 1743.62 1145.2C1742.93 1144.93 1742.17 1144.8 1741.34 1144.8C1740.49 1144.8 1739.7 1144.93 1738.98 1145.2C1738.29 1145.47 1737.66 1145.97 1737.1 1146.72C1736.57 1147.47 1736.15 1148.52 1735.86 1149.88C1735.57 1151.24 1735.42 1153 1735.42 1155.16ZM1756.38 1165.36C1758.51 1163.55 1760.33 1161.97 1761.82 1160.64C1763.34 1159.31 1764.58 1158.15 1765.54 1157.16C1766.53 1156.17 1767.29 1155.29 1767.82 1154.52C1768.38 1153.72 1768.77 1153 1768.98 1152.36C1769.19 1151.69 1769.3 1151 1769.3 1150.28C1769.3 1149.35 1769.1 1148.56 1768.7 1147.92C1768.33 1147.25 1767.78 1146.75 1767.06 1146.4C1766.34 1146.05 1765.45 1145.88 1764.38 1145.88C1763.42 1145.88 1762.39 1146.04 1761.3 1146.36C1760.23 1146.65 1759.15 1147.12 1758.06 1147.76L1756.38 1143.24C1757.26 1142.65 1758.19 1142.17 1759.18 1141.8C1760.19 1141.4 1761.25 1141.11 1762.34 1140.92C1763.46 1140.71 1764.57 1140.6 1765.66 1140.6C1767.66 1140.6 1769.35 1140.96 1770.74 1141.68C1772.15 1142.4 1773.23 1143.4 1773.98 1144.68C1774.73 1145.96 1775.1 1147.45 1775.1 1149.16C1775.1 1150.01 1775.02 1150.81 1774.86 1151.56C1774.73 1152.31 1774.45 1153.09 1774.02 1153.92C1773.59 1154.72 1772.97 1155.63 1772.14 1156.64C1771.34 1157.63 1770.27 1158.77 1768.94 1160.08C1767.61 1161.39 1765.97 1162.91 1764.02 1164.64H1777.22V1169H1756.5L1756.38 1165.36ZM1780.42 1163.68L1780.34 1159.72L1794.5 1140.88L1799.26 1141V1159.48H1803.42V1163.68H1799.26V1169H1793.62V1163.68H1780.42ZM1785.1 1159.48H1793.74V1148.08L1785.1 1159.48Z" fill="white"/>
<path d="M120 663L120 952" stroke="#2D77D9" stroke-width="10" stroke-linecap="round"/>
<path d="M148 624L148 913" stroke="#2D77D9" stroke-width="10" stroke-linecap="round"/>
<path d="M176 663L176 952" stroke="#2D77D9" stroke-width="10" stroke-linecap="round"/>
<path d="M204 567L204 856" stroke="#2D77D9" stroke-width="10" stroke-linecap="round"/>
<path d="M488 647V936" stroke="#2D77D9" stroke-width="10" stroke-linecap="round"/>
<path d="M516 608V897" stroke="#2D77D9" stroke-width="10" stroke-linecap="round"/>
<path d="M544 647V936" stroke="#2D77D9" stroke-width="10" stroke-linecap="round"/>
<path d="M572 551V840" stroke="#FF4649" stroke-width="10" stroke-linecap="round"/>
<path d="M236 711L236 1000" stroke="#2BC64A" stroke-width="10" stroke-linecap="round"/>
<path d="M266 539V828" stroke="#FF4649" stroke-width="10" stroke-linecap="round"/>
<path d="M266 539V828" stroke="#FF4649" stroke-width="10" stroke-linecap="round"/>
<path d="M294 605V894" stroke="#2D77D9" stroke-width="10" stroke-linecap="round"/>
<path d="M320 479V768" stroke="#FF4649" stroke-width="10" stroke-linecap="round"/>
<path d="M353 539V828" stroke="#FF4649" stroke-width="10" stroke-linecap="round"/>
<path d="M381 567V856" stroke="#FF4649" stroke-width="10" stroke-linecap="round"/>
<path d="M412 551V840" stroke="#FF4649" stroke-width="10" stroke-linecap="round"/>
<path d="M438 605V894" stroke="#2D77D9" stroke-width="10" stroke-linecap="round"/>
<path d="M605 711V1000" stroke="#2BC64A" stroke-width="10" stroke-linecap="round"/>
<path d="M633 739V1028" stroke="#2BC64A" stroke-width="10" stroke-linecap="round"/>
<path d="M664 723V1012" stroke="#2BC64A" stroke-width="10" stroke-linecap="round"/>
<path d="M690 777V1066" stroke="#2BC64A" stroke-width="10" stroke-linecap="round"/>
<path d="M462 605V894" stroke="#2D77D9" stroke-width="10" stroke-linecap="round"/>
<path d="M516 608V897" stroke="#2D77D9" stroke-width="10" stroke-linecap="round"/>
<path d="M572 551V840" stroke="#FF4649" stroke-width="10" stroke-linecap="round"/>
<path d="M1646 546V835" stroke="#FF4649" stroke-width="10" stroke-linecap="round"/>
<path d="M1674 507V796" stroke="#FF4649" stroke-width="10" stroke-linecap="round"/>
<path d="M1702 546V835" stroke="#FF4649" stroke-width="10" stroke-linecap="round"/>
<path d="M1730 450V739" stroke="#FF4649" stroke-width="10" stroke-linecap="round"/>
<path d="M1763 610V899" stroke="#2D77D9" stroke-width="10" stroke-linecap="round"/>
<path d="M1674 507V796" stroke="#FF4649" stroke-width="10" stroke-linecap="round"/>
<path d="M1730 450V739" stroke="#FF4649" stroke-width="10" stroke-linecap="round"/>
<path d="M381 567V856" stroke="#FF4649" stroke-width="10" stroke-linecap="round"/>
<path d="M412 551V840" stroke="#FF4649" stroke-width="10" stroke-linecap="round"/>
<path d="M438 605V894" stroke="#2D77D9" stroke-width="10" stroke-linecap="round"/>
<path d="M462 605V894" stroke="#2D77D9" stroke-width="10" stroke-linecap="round"/>
<path d="M1520 921V632" stroke="#2D77D9" stroke-width="10" stroke-linecap="round"/>
<path d="M1352 1089V800" stroke="#2BC64A" stroke-width="10" stroke-linecap="round"/>
<path d="M1385 1029V740" stroke="#2BC64A" stroke-width="10" stroke-linecap="round"/>
<path d="M1413 1001V712" stroke="#2BC64A" stroke-width="10" stroke-linecap="round"/>
<path d="M1444 1017V728" stroke="#2BC64A" stroke-width="10" stroke-linecap="round"/>
<path d="M1470 963V674" stroke="#2D77D9" stroke-width="10" stroke-linecap="round"/>
<path d="M1494 963V674" stroke="#2D77D9" stroke-width="10" stroke-linecap="round"/>
<path d="M1413 1001V712" stroke="#2BC64A" stroke-width="10" stroke-linecap="round"/>
<path d="M1444 1017V728" stroke="#2BC64A" stroke-width="10" stroke-linecap="round"/>
<path d="M1470 963V674" stroke="#2D77D9" stroke-width="10" stroke-linecap="round"/>
<path d="M1494 963V674" stroke="#2D77D9" stroke-width="10" stroke-linecap="round"/>
<path d="M956 819V530" stroke="#FF4649" stroke-width="10" stroke-linecap="round"/>
<path d="M928 858V569" stroke="#FF4649" stroke-width="10" stroke-linecap="round"/>
<path d="M900 819V530" stroke="#FF4649" stroke-width="10" stroke-linecap="round"/>
<path d="M872 915V626" stroke="#2D77D9" stroke-width="10" stroke-linecap="round"/>
<path d="M1006 861V572" stroke="#FF4649" stroke-width="10" stroke-linecap="round"/>
<path d="M982 861V572" stroke="#FF4649" stroke-width="10" stroke-linecap="round"/>
<path d="M928 858V569" stroke="#FF4649" stroke-width="10" stroke-linecap="round"/>
<path d="M872 915V626" stroke="#2D77D9" stroke-width="10" stroke-linecap="round"/>
<path d="M1006 861V572" stroke="#FF4649" stroke-width="10" stroke-linecap="round"/>
<path d="M982 861V572" stroke="#FF4649" stroke-width="10" stroke-linecap="round"/>
<path d="M764 551V840" stroke="#FF4649" stroke-width="10" stroke-linecap="round"/>
<path d="M792 512V801" stroke="#FF4649" stroke-width="10" stroke-linecap="round"/>
<path d="M820 551V840" stroke="#FF4649" stroke-width="10" stroke-linecap="round"/>
<path d="M848 455V744" stroke="#FF4649" stroke-width="10" stroke-linecap="round"/>
<path d="M714 509V798" stroke="#FF4649" stroke-width="10" stroke-linecap="round"/>
<path d="M738 509V798" stroke="#FF4649" stroke-width="10" stroke-linecap="round"/>
<path d="M792 512V801" stroke="#FF4649" stroke-width="10" stroke-linecap="round"/>
<path d="M848 455V744" stroke="#FF4649" stroke-width="10" stroke-linecap="round"/>
<path d="M714 509V798" stroke="#FF4649" stroke-width="10" stroke-linecap="round"/>
<path d="M738 509V798" stroke="#FF4649" stroke-width="10" stroke-linecap="round"/>
<path d="M1084 688V977" stroke="#2D77D9" stroke-width="10" stroke-linecap="round"/>
<path d="M1112 649V938" stroke="#2D77D9" stroke-width="10" stroke-linecap="round"/>
<path d="M1140 688V977" stroke="#2D77D9" stroke-width="10" stroke-linecap="round"/>
<path d="M1168 592V881" stroke="#2D77D9" stroke-width="10" stroke-linecap="round"/>
<path d="M1034 646V935" stroke="#2D77D9" stroke-width="10" stroke-linecap="round"/>
<path d="M1058 646V935" stroke="#2D77D9" stroke-width="10" stroke-linecap="round"/>
<path d="M1112 649V938" stroke="#2D77D9" stroke-width="10" stroke-linecap="round"/>
<path d="M1168 592V881" stroke="#2D77D9" stroke-width="10" stroke-linecap="round"/>
<path d="M1034 646V935" stroke="#2D77D9" stroke-width="10" stroke-linecap="round"/>
<path d="M1544 947V658" stroke="#2D77D9" stroke-width="10" stroke-linecap="round"/>
<path d="M2008 830V541" stroke="#FF4649" stroke-width="10" stroke-linecap="round"/>
<path d="M2039 846V557" stroke="#FF4649" stroke-width="10" stroke-linecap="round"/>
<path d="M2065 792V503" stroke="#FF4649" stroke-width="10" stroke-linecap="round"/>
<path d="M2008 830V541" stroke="#FF4649" stroke-width="10" stroke-linecap="round"/>
<path d="M2039 846V557" stroke="#FF4649" stroke-width="10" stroke-linecap="round"/>
<path d="M2065 792V503" stroke="#FF4649" stroke-width="10" stroke-linecap="round"/>
<path d="M1594 989V700" stroke="#2D77D9" stroke-width="10" stroke-linecap="round"/>
<path d="M1570 989V700" stroke="#2D77D9" stroke-width="10" stroke-linecap="round"/>
<path d="M1594 989V700" stroke="#2D77D9" stroke-width="10" stroke-linecap="round"/>
<path d="M1570 989V700" stroke="#2D77D9" stroke-width="10" stroke-linecap="round"/>
<path d="M1622 774V1063" stroke="#2BC64A" stroke-width="10" stroke-linecap="round"/>
<path d="M1622 774V1063" stroke="#2BC64A" stroke-width="10" stroke-linecap="round"/>
<path d="M1058 646V935" stroke="#2D77D9" stroke-width="10" stroke-linecap="round"/>
<path d="M1276 956V667" stroke="#2D77D9" stroke-width="10" stroke-linecap="round"/>
<path d="M1248 995V706" stroke="#2BC64A" stroke-width="10" stroke-linecap="round"/>
<path d="M1220 956V667" stroke="#2D77D9" stroke-width="10" stroke-linecap="round"/>
<path d="M1192 1052V763" stroke="#2BC64A" stroke-width="10" stroke-linecap="round"/>
<path d="M1326 998V709" stroke="#2BC64A" stroke-width="10" stroke-linecap="round"/>
<path d="M1302 998V709" stroke="#2BC64A" stroke-width="10" stroke-linecap="round"/>
<path d="M1248 995V706" stroke="#2BC64A" stroke-width="10" stroke-linecap="round"/>
<path d="M1192 1052V763" stroke="#2BC64A" stroke-width="10" stroke-linecap="round"/>
<path d="M1326 998V709" stroke="#2BC64A" stroke-width="10" stroke-linecap="round"/>
<path d="M1302 998V709" stroke="#2BC64A" stroke-width="10" stroke-linecap="round"/>
<path d="M1919 1044V755" stroke="#2BC64A" stroke-width="10" stroke-linecap="round"/>
<path d="M1952 984V695" stroke="#2D77D9" stroke-width="10" stroke-linecap="round"/>
<path d="M1980 956V667" stroke="#2D77D9" stroke-width="10" stroke-linecap="round"/>
<path d="M1980 956V667" stroke="#2D77D9" stroke-width="10" stroke-linecap="round"/>
<path d="M1843 911V622" stroke="#2D77D9" stroke-width="10" stroke-linecap="round"/>
<path d="M1815 950V661" stroke="#2D77D9" stroke-width="10" stroke-linecap="round"/>
<path d="M1787 911V622" stroke="#2D77D9" stroke-width="10" stroke-linecap="round"/>
<path d="M1893 953V664" stroke="#2D77D9" stroke-width="10" stroke-linecap="round"/>
<path d="M1869 953V664" stroke="#2D77D9" stroke-width="10" stroke-linecap="round"/>
<path d="M1815 950V661" stroke="#2D77D9" stroke-width="10" stroke-linecap="round"/>
<path d="M1893 953V664" stroke="#2D77D9" stroke-width="10" stroke-linecap="round"/>
<path d="M1869 953V664" stroke="#2D77D9" stroke-width="10" stroke-linecap="round"/>
<path d="M236 290.019L210.019 316L236 341.981L261.981 316L236 290.019ZM236 1077.98L261.981 1052L236 1026.02L210.019 1052L236 1077.98ZM231.5 326.222C231.5 328.708 233.515 330.722 236 330.722C238.485 330.722 240.5 328.708 240.5 326.222H231.5ZM240.5 346.667C240.5 344.181 238.485 342.167 236 342.167C233.515 342.167 231.5 344.181 231.5 346.667H240.5ZM231.5 367.111C231.5 369.596 233.515 371.611 236 371.611C238.485 371.611 240.5 369.596 240.5 367.111H231.5ZM240.5 387.556C240.5 385.07 238.485 383.056 236 383.056C233.515 383.056 231.5 385.07 231.5 387.556H240.5ZM231.5 408C231.5 410.485 233.515 412.5 236 412.5C238.485 412.5 240.5 410.485 240.5 408H231.5ZM240.5 428.444C240.5 425.959 238.485 423.944 236 423.944C233.515 423.944 231.5 425.959 231.5 428.444H240.5ZM231.5 448.889C231.5 451.374 233.515 453.389 236 453.389C238.485 453.389 240.5 451.374 240.5 448.889H231.5ZM240.5 469.333C240.5 466.848 238.485 464.833 236 464.833C233.515 464.833 231.5 466.848 231.5 469.333H240.5ZM231.5 489.778C231.5 492.263 233.515 494.278 236 494.278C238.485 494.278 240.5 492.263 240.5 489.778H231.5ZM240.5 510.222C240.5 507.737 238.485 505.722 236 505.722C233.515 505.722 231.5 507.737 231.5 510.222H240.5ZM231.5 530.667C231.5 533.152 233.515 535.167 236 535.167C238.485 535.167 240.5 533.152 240.5 530.667H231.5ZM240.5 551.111C240.5 548.626 238.485 546.611 236 546.611C233.515 546.611 231.5 548.626 231.5 551.111H240.5ZM231.5 571.556C231.5 574.041 233.515 576.056 236 576.056C238.485 576.056 240.5 574.041 240.5 571.556H231.5ZM240.5 592C240.5 589.515 238.485 587.5 236 587.5C233.515 587.5 231.5 589.515 231.5 592H240.5ZM231.5 612.444C231.5 614.93 233.515 616.944 236 616.944C238.485 616.944 240.5 614.93 240.5 612.444H231.5ZM240.5 632.889C240.5 630.404 238.485 628.389 236 628.389C233.515 628.389 231.5 630.404 231.5 632.889H240.5ZM231.5 653.333C231.5 655.819 233.515 657.833 236 657.833C238.485 657.833 240.5 655.819 240.5 653.333H231.5ZM240.5 673.778C240.5 671.293 238.485 669.278 236 669.278C233.515 669.278 231.5 671.293 231.5 673.778H240.5ZM231.5 694.222C231.5 696.708 233.515 698.722 236 698.722C238.485 698.722 240.5 696.708 240.5 694.222H231.5ZM240.5 714.667C240.5 712.181 238.485 710.167 236 710.167C233.515 710.167 231.5 712.181 231.5 714.667H240.5ZM231.5 735.111C231.5 737.597 233.515 739.611 236 739.611C238.485 739.611 240.5 737.597 240.5 735.111H231.5ZM240.5 755.556C240.5 753.07 238.485 751.056 236 751.056C233.515 751.056 231.5 753.07 231.5 755.556H240.5ZM231.5 776C231.5 778.485 233.515 780.5 236 780.5C238.485 780.5 240.5 778.485 240.5 776H231.5ZM240.5 796.445C240.5 793.959 238.485 791.945 236 791.945C233.515 791.945 231.5 793.959 231.5 796.445H240.5ZM231.5 816.889C231.5 819.374 233.515 821.389 236 821.389C238.485 821.389 240.5 819.374 240.5 816.889H231.5ZM240.5 837.333C240.5 834.848 238.485 832.833 236 832.833C233.515 832.833 231.5 834.848 231.5 837.333H240.5ZM231.5 857.778C231.5 860.263 233.515 862.278 236 862.278C238.485 862.278 240.5 860.263 240.5 857.778H231.5ZM240.5 878.222C240.5 875.737 238.485 873.722 236 873.722C233.515 873.722 231.5 875.737 231.5 878.222H240.5ZM231.5 898.667C231.5 901.152 233.515 903.167 236 903.167C238.485 903.167 240.5 901.152 240.5 898.667H231.5ZM240.5 919.111C240.5 916.626 238.485 914.611 236 914.611C233.515 914.611 231.5 916.626 231.5 919.111H240.5ZM231.5 939.556C231.5 942.041 233.515 944.056 236 944.056C238.485 944.056 240.5 942.041 240.5 939.556H231.5ZM240.5 960C240.5 957.515 238.485 955.5 236 955.5C233.515 955.5 231.5 957.515 231.5 960H240.5ZM231.5 980.445C231.5 982.93 233.515 984.945 236 984.945C238.485 984.945 240.5 982.93 240.5 980.445H231.5ZM240.5 1000.89C240.5 998.404 238.485 996.389 236 996.389C233.515 996.389 231.5 998.404 231.5 1000.89H240.5ZM231.5 1021.33C231.5 1023.82 233.515 1025.83 236 1025.83C238.485 1025.83 240.5 1023.82 240.5 1021.33H231.5ZM240.5 1041.78C240.5 1039.29 238.485 1037.28 236 1037.28C233.515 1037.28 231.5 1039.29 231.5 1041.78H240.5ZM231.5 316V326.222H240.5V316H231.5ZM231.5 346.667V367.111H240.5V346.667H231.5ZM231.5 387.556V408H240.5V387.556H231.5ZM231.5 428.444V448.889H240.5V428.444H231.5ZM231.5 469.333V489.778H240.5V469.333H231.5ZM231.5 510.222V530.667H240.5V510.222H231.5ZM231.5 551.111L231.5 571.556H240.5L240.5 551.111H231.5ZM231.5 592V612.444H240.5V592H231.5ZM231.5 632.889V653.333H240.5V632.889H231.5ZM231.5 673.778V694.222H240.5V673.778H231.5ZM231.5 714.667V735.111H240.5V714.667H231.5ZM231.5 755.556V776H240.5V755.556H231.5ZM231.5 796.445V816.889H240.5V796.445H231.5ZM231.5 837.333V857.778H240.5V837.333H231.5ZM231.5 878.222V898.667H240.5V878.222H231.5ZM231.5 919.111V939.556H240.5V919.111H231.5ZM231.5 960V980.445H240.5V960H231.5ZM231.5 1000.89L231.5 1021.33H240.5L240.5 1000.89H231.5ZM231.5 1041.78V1052H240.5V1041.78H231.5Z" fill="#AFADAD"/>
<path d="M1080 290.019L1054.02 316L1080 341.981L1105.98 316L1080 290.019ZM1080 1077.98L1105.98 1052L1080 1026.02L1054.02 1052L1080 1077.98ZM1075.5 326.222C1075.5 328.708 1077.51 330.722 1080 330.722C1082.49 330.722 1084.5 328.708 1084.5 326.222H1075.5ZM1084.5 346.667C1084.5 344.181 1082.49 342.167 1080 342.167C1077.51 342.167 1075.5 344.181 1075.5 346.667H1084.5ZM1075.5 367.111C1075.5 369.596 1077.51 371.611 1080 371.611C1082.49 371.611 1084.5 369.596 1084.5 367.111H1075.5ZM1084.5 387.556C1084.5 385.07 1082.49 383.056 1080 383.056C1077.51 383.056 1075.5 385.07 1075.5 387.556H1084.5ZM1075.5 408C1075.5 410.485 1077.51 412.5 1080 412.5C1082.49 412.5 1084.5 410.485 1084.5 408H1075.5ZM1084.5 428.444C1084.5 425.959 1082.49 423.944 1080 423.944C1077.51 423.944 1075.5 425.959 1075.5 428.444H1084.5ZM1075.5 448.889C1075.5 451.374 1077.51 453.389 1080 453.389C1082.49 453.389 1084.5 451.374 1084.5 448.889H1075.5ZM1084.5 469.333C1084.5 466.848 1082.49 464.833 1080 464.833C1077.51 464.833 1075.5 466.848 1075.5 469.333H1084.5ZM1075.5 489.778C1075.5 492.263 1077.51 494.278 1080 494.278C1082.49 494.278 1084.5 492.263 1084.5 489.778H1075.5ZM1084.5 510.222C1084.5 507.737 1082.49 505.722 1080 505.722C1077.51 505.722 1075.5 507.737 1075.5 510.222H1084.5ZM1075.5 530.667C1075.5 533.152 1077.51 535.167 1080 535.167C1082.49 535.167 1084.5 533.152 1084.5 530.667H1075.5ZM1084.5 551.111C1084.5 548.626 1082.49 546.611 1080 546.611C1077.51 546.611 1075.5 548.626 1075.5 551.111H1084.5ZM1075.5 571.556C1075.5 574.041 1077.51 576.056 1080 576.056C1082.49 576.056 1084.5 574.041 1084.5 571.556H1075.5ZM1084.5 592C1084.5 589.515 1082.49 587.5 1080 587.5C1077.51 587.5 1075.5 589.515 1075.5 592H1084.5ZM1075.5 612.444C1075.5 614.93 1077.51 616.944 1080 616.944C1082.49 616.944 1084.5 614.93 1084.5 612.444H1075.5ZM1084.5 632.889C1084.5 630.404 1082.49 628.389 1080 628.389C1077.51 628.389 1075.5 630.404 1075.5 632.889H1084.5ZM1075.5 653.333C1075.5 655.819 1077.51 657.833 1080 657.833C1082.49 657.833 1084.5 655.819 1084.5 653.333H1075.5ZM1084.5 673.778C1084.5 671.293 1082.49 669.278 1080 669.278C1077.51 669.278 1075.5 671.293 1075.5 673.778H1084.5ZM1075.5 694.222C1075.5 696.708 1077.51 698.722 1080 698.722C1082.49 698.722 1084.5 696.708 1084.5 694.222H1075.5ZM1084.5 714.667C1084.5 712.181 1082.49 710.167 1080 710.167C1077.51 710.167 1075.5 712.181 1075.5 714.667H1084.5ZM1075.5 735.111C1075.5 737.597 1077.51 739.611 1080 739.611C1082.49 739.611 1084.5 737.597 1084.5 735.111H1075.5ZM1084.5 755.556C1084.5 753.07 1082.49 751.056 1080 751.056C1077.51 751.056 1075.5 753.07 1075.5 755.556H1084.5ZM1075.5 776C1075.5 778.485 1077.51 780.5 1080 780.5C1082.49 780.5 1084.5 778.485 1084.5 776H1075.5ZM1084.5 796.445C1084.5 793.959 1082.49 791.945 1080 791.945C1077.51 791.945 1075.5 793.959 1075.5 796.445H1084.5ZM1075.5 816.889C1075.5 819.374 1077.51 821.389 1080 821.389C1082.49 821.389 1084.5 819.374 1084.5 816.889H1075.5ZM1084.5 837.333C1084.5 834.848 1082.49 832.833 1080 832.833C1077.51 832.833 1075.5 834.848 1075.5 837.333H1084.5ZM1075.5 857.778C1075.5 860.263 1077.51 862.278 1080 862.278C1082.49 862.278 1084.5 860.263 1084.5 857.778H1075.5ZM1084.5 878.222C1084.5 875.737 1082.49 873.722 1080 873.722C1077.51 873.722 1075.5 875.737 1075.5 878.222H1084.5ZM1075.5 898.667C1075.5 901.152 1077.51 903.167 1080 903.167C1082.49 903.167 1084.5 901.152 1084.5 898.667H1075.5ZM1084.5 919.111C1084.5 916.626 1082.49 914.611 1080 914.611C1077.51 914.611 1075.5 916.626 1075.5 919.111H1084.5ZM1075.5 939.556C1075.5 942.041 1077.51 944.056 1080 944.056C1082.49 944.056 1084.5 942.041 1084.5 939.556H1075.5ZM1084.5 960C1084.5 957.515 1082.49 955.5 1080 955.5C1077.51 955.5 1075.5 957.515 1075.5 960H1084.5ZM1075.5 980.445C1075.5 982.93 1077.51 984.945 1080 984.945C1082.49 984.945 1084.5 982.93 1084.5 980.445H1075.5ZM1084.5 1000.89C1084.5 998.404 1082.49 996.389 1080 996.389C1077.51 996.389 1075.5 998.404 1075.5 1000.89H1084.5ZM1075.5 1021.33C1075.5 1023.82 1077.51 1025.83 1080 1025.83C1082.49 1025.83 1084.5 1023.82 1084.5 1021.33H1075.5ZM1084.5 1041.78C1084.5 1039.29 1082.49 1037.28 1080 1037.28C1077.51 1037.28 1075.5 1039.29 1075.5 1041.78H1084.5ZM1075.5 316V326.222H1084.5V316H1075.5ZM1075.5 346.667V367.111H1084.5V346.667H1075.5ZM1075.5 387.556V408H1084.5V387.556H1075.5ZM1075.5 428.444V448.889H1084.5V428.444H1075.5ZM1075.5 469.333V489.778H1084.5V469.333H1075.5ZM1075.5 510.222V530.667H1084.5V510.222H1075.5ZM1075.5 551.111V571.556H1084.5V551.111H1075.5ZM1075.5 592V612.444H1084.5V592H1075.5ZM1075.5 632.889V653.333H1084.5V632.889H1075.5ZM1075.5 673.778V694.222H1084.5V673.778H1075.5ZM1075.5 714.667V735.111H1084.5V714.667H1075.5ZM1075.5 755.556V776H1084.5V755.556H1075.5ZM1075.5 796.445V816.889H1084.5V796.445H1075.5ZM1075.5 837.333V857.778H1084.5V837.333H1075.5ZM1075.5 878.222V898.667H1084.5V878.222H1075.5ZM1075.5 919.111V939.556H1084.5V919.111H1075.5ZM1075.5 960V980.445H1084.5V960H1075.5ZM1075.5 1000.89V1021.33H1084.5V1000.89H1075.5ZM1075.5 1041.78V1052H1084.5V1041.78H1075.5Z" fill="#AFADAD"/>
<path d="M1756 290.019L1730.02 316L1756 341.981L1781.98 316L1756 290.019ZM1756 1077.98L1781.98 1052L1756 1026.02L1730.02 1052L1756 1077.98ZM1751.5 326.222C1751.5 328.708 1753.51 330.722 1756 330.722C1758.49 330.722 1760.5 328.708 1760.5 326.222H1751.5ZM1760.5 346.667C1760.5 344.181 1758.49 342.167 1756 342.167C1753.51 342.167 1751.5 344.181 1751.5 346.667H1760.5ZM1751.5 367.111C1751.5 369.596 1753.51 371.611 1756 371.611C1758.49 371.611 1760.5 369.596 1760.5 367.111H1751.5ZM1760.5 387.556C1760.5 385.07 1758.49 383.056 1756 383.056C1753.51 383.056 1751.5 385.07 1751.5 387.556H1760.5ZM1751.5 408C1751.5 410.485 1753.51 412.5 1756 412.5C1758.49 412.5 1760.5 410.485 1760.5 408H1751.5ZM1760.5 428.444C1760.5 425.959 1758.49 423.944 1756 423.944C1753.51 423.944 1751.5 425.959 1751.5 428.444H1760.5ZM1751.5 448.889C1751.5 451.374 1753.51 453.389 1756 453.389C1758.49 453.389 1760.5 451.374 1760.5 448.889H1751.5ZM1760.5 469.333C1760.5 466.848 1758.49 464.833 1756 464.833C1753.51 464.833 1751.5 466.848 1751.5 469.333H1760.5ZM1751.5 489.778C1751.5 492.263 1753.51 494.278 1756 494.278C1758.49 494.278 1760.5 492.263 1760.5 489.778H1751.5ZM1760.5 510.222C1760.5 507.737 1758.49 505.722 1756 505.722C1753.51 505.722 1751.5 507.737 1751.5 510.222H1760.5ZM1751.5 530.667C1751.5 533.152 1753.51 535.167 1756 535.167C1758.49 535.167 1760.5 533.152 1760.5 530.667H1751.5ZM1760.5 551.111C1760.5 548.626 1758.49 546.611 1756 546.611C1753.51 546.611 1751.5 548.626 1751.5 551.111H1760.5ZM1751.5 571.556C1751.5 574.041 1753.51 576.056 1756 576.056C1758.49 576.056 1760.5 574.041 1760.5 571.556H1751.5ZM1760.5 592C1760.5 589.515 1758.49 587.5 1756 587.5C1753.51 587.5 1751.5 589.515 1751.5 592H1760.5ZM1751.5 612.444C1751.5 614.93 1753.51 616.944 1756 616.944C1758.49 616.944 1760.5 614.93 1760.5 612.444H1751.5ZM1760.5 632.889C1760.5 630.404 1758.49 628.389 1756 628.389C1753.51 628.389 1751.5 630.404 1751.5 632.889H1760.5ZM1751.5 653.333C1751.5 655.819 1753.51 657.833 1756 657.833C1758.49 657.833 1760.5 655.819 1760.5 653.333H1751.5ZM1760.5 673.778C1760.5 671.293 1758.49 669.278 1756 669.278C1753.51 669.278 1751.5 671.293 1751.5 673.778H1760.5ZM1751.5 694.222C1751.5 696.708 1753.51 698.722 1756 698.722C1758.49 698.722 1760.5 696.708 1760.5 694.222H1751.5ZM1760.5 714.667C1760.5 712.181 1758.49 710.167 1756 710.167C1753.51 710.167 1751.5 712.181 1751.5 714.667H1760.5ZM1751.5 735.111C1751.5 737.597 1753.51 739.611 1756 739.611C1758.49 739.611 1760.5 737.597 1760.5 735.111H1751.5ZM1760.5 755.556C1760.5 753.07 1758.49 751.056 1756 751.056C1753.51 751.056 1751.5 753.07 1751.5 755.556H1760.5ZM1751.5 776C1751.5 778.485 1753.51 780.5 1756 780.5C1758.49 780.5 1760.5 778.485 1760.5 776H1751.5ZM1760.5 796.445C1760.5 793.959 1758.49 791.945 1756 791.945C1753.51 791.945 1751.5 793.959 1751.5 796.445H1760.5ZM1751.5 816.889C1751.5 819.374 1753.51 821.389 1756 821.389C1758.49 821.389 1760.5 819.374 1760.5 816.889H1751.5ZM1760.5 837.333C1760.5 834.848 1758.49 832.833 1756 832.833C1753.51 832.833 1751.5 834.848 1751.5 837.333H1760.5ZM1751.5 857.778C1751.5 860.263 1753.51 862.278 1756 862.278C1758.49 862.278 1760.5 860.263 1760.5 857.778H1751.5ZM1760.5 878.222C1760.5 875.737 1758.49 873.722 1756 873.722C1753.51 873.722 1751.5 875.737 1751.5 878.222H1760.5ZM1751.5 898.667C1751.5 901.152 1753.51 903.167 1756 903.167C1758.49 903.167 1760.5 901.152 1760.5 898.667H1751.5ZM1760.5 919.111C1760.5 916.626 1758.49 914.611 1756 914.611C1753.51 914.611 1751.5 916.626 1751.5 919.111H1760.5ZM1751.5 939.556C1751.5 942.041 1753.51 944.056 1756 944.056C1758.49 944.056 1760.5 942.041 1760.5 939.556H1751.5ZM1760.5 960C1760.5 957.515 1758.49 955.5 1756 955.5C1753.51 955.5 1751.5 957.515 1751.5 960H1760.5ZM1751.5 980.445C1751.5 982.93 1753.51 984.945 1756 984.945C1758.49 984.945 1760.5 982.93 1760.5 980.445H1751.5ZM1760.5 1000.89C1760.5 998.404 1758.49 996.389 1756 996.389C1753.51 996.389 1751.5 998.404 1751.5 1000.89H1760.5ZM1751.5 1021.33C1751.5 1023.82 1753.51 1025.83 1756 1025.83C1758.49 1025.83 1760.5 1023.82 1760.5 1021.33H1751.5ZM1760.5 1041.78C1760.5 1039.29 1758.49 1037.28 1756 1037.28C1753.51 1037.28 1751.5 1039.29 1751.5 1041.78H1760.5ZM1751.5 316V326.222H1760.5V316H1751.5ZM1751.5 346.667V367.111H1760.5V346.667H1751.5ZM1751.5 387.556V408H1760.5V387.556H1751.5ZM1751.5 428.444V448.889H1760.5V428.444H1751.5ZM1751.5 469.333V489.778H1760.5V469.333H1751.5ZM1751.5 510.222V530.667H1760.5V510.222H1751.5ZM1751.5 551.111V571.556H1760.5V551.111H1751.5ZM1751.5 592V612.444H1760.5V592H1751.5ZM1751.5 632.889V653.333H1760.5V632.889H1751.5ZM1751.5 673.778V694.222H1760.5V673.778H1751.5ZM1751.5 714.667V735.111H1760.5V714.667H1751.5ZM1751.5 755.556V776H1760.5V755.556H1751.5ZM1751.5 796.445V816.889H1760.5V796.445H1751.5ZM1751.5 837.333V857.778H1760.5V837.333H1751.5ZM1751.5 878.222V898.667H1760.5V878.222H1751.5ZM1751.5 919.111V939.556H1760.5V919.111H1751.5ZM1751.5 960V980.445H1760.5V960H1751.5ZM1751.5 1000.89V1021.33H1760.5V1000.89H1751.5ZM1751.5 1041.78V1052H1760.5V1041.78H1751.5Z" fill="#AFADAD"/>
</svg>
