<svg width="2160" height="1284" viewBox="0 0 2160 1284" fill="none" xmlns="http://www.w3.org/2000/svg">
<rect width="2160" height="1284" rx="20" fill="#191D26"/>
<rect width="2160" height="1284" rx="20" fill="#191D26"/>
<path d="M119.32 154.09C121.18 154.09 122.89 153.88 124.45 153.46C126.07 153.04 127.51 152.32 128.77 151.3C130.09 150.22 131.2 148.84 132.1 147.16C133.06 145.48 133.78 143.35 134.26 140.77C134.8 138.13 135.07 135.04 135.07 131.5C135.07 127.9 134.8 124.81 134.26 122.23C133.72 119.59 132.97 117.43 132.01 115.75C131.11 114.01 130.03 112.63 128.77 111.61C127.51 110.59 126.07 109.87 124.45 109.45C122.83 109.03 121.12 108.82 119.32 108.82C117.58 108.82 115.93 109.03 114.37 109.45C112.81 109.87 111.37 110.59 110.05 111.61C108.79 112.57 107.68 113.92 106.72 115.66C105.82 117.4 105.1 119.59 104.56 122.23C104.08 124.81 103.84 127.9 103.84 131.5C103.84 135.1 104.08 138.19 104.56 140.77C105.1 143.29 105.85 145.42 106.81 147.16C107.77 148.9 108.88 150.28 110.14 151.3C111.46 152.32 112.87 153.04 114.37 153.46C115.93 153.88 117.58 154.09 119.32 154.09ZM119.41 163.9C115.99 163.9 112.84 163.57 109.96 162.91C107.08 162.19 104.47 161.08 102.13 159.58C99.79 158.02 97.81 156.01 96.19 153.55C94.63 151.03 93.4 147.97 92.5 144.37C91.66 140.71 91.24 136.42 91.24 131.5C91.24 126.58 91.63 122.32 92.41 118.72C93.25 115.12 94.45 112.09 96.01 109.63C97.63 107.11 99.61 105.07 101.95 103.51C104.29 101.89 106.9 100.75 109.78 100.09C112.66 99.43 115.87 99.1 119.41 99.1C122.89 99.1 126.1 99.46 129.04 100.18C131.98 100.84 134.59 101.92 136.87 103.42C139.15 104.92 141.1 106.93 142.72 109.45C144.34 111.91 145.57 114.94 146.41 118.54C147.25 122.14 147.67 126.37 147.67 131.23C147.67 136.27 147.25 140.62 146.41 144.28C145.57 147.94 144.31 151.03 142.63 153.55C141.01 156.01 139.06 158.02 136.78 159.58C134.5 161.08 131.89 162.19 128.95 162.91C126.07 163.57 122.89 163.9 119.41 163.9ZM156.334 181.9V114.04H167.224L167.584 118.54C170.344 116.74 172.984 115.45 175.504 114.67C178.084 113.83 180.694 113.41 183.334 113.41C188.614 113.41 192.664 115.51 195.484 119.71C198.364 123.85 199.804 129.82 199.804 137.62C199.804 143.62 198.964 148.57 197.284 152.47C195.664 156.31 193.144 159.19 189.724 161.11C186.364 162.97 182.104 163.9 176.944 163.9C175.684 163.9 174.334 163.81 172.894 163.63C171.454 163.51 169.954 163.33 168.394 163.09V181.9H156.334ZM176.044 155.17C178.684 155.17 180.814 154.66 182.434 153.64C184.114 152.56 185.344 150.82 186.124 148.42C186.964 146.02 187.384 142.81 187.384 138.79C187.384 135.19 187.054 132.25 186.394 129.97C185.734 127.69 184.744 126.01 183.424 124.93C182.164 123.85 180.574 123.31 178.654 123.31C177.574 123.31 176.494 123.43 175.414 123.67C174.334 123.85 173.224 124.18 172.084 124.66C170.944 125.14 169.684 125.8 168.304 126.64V154C169.804 154.36 171.184 154.66 172.444 154.9C173.704 155.08 174.904 155.17 176.044 155.17ZM208.21 181.9V114.04H219.1L219.46 118.54C222.22 116.74 224.86 115.45 227.38 114.67C229.96 113.83 232.57 113.41 235.21 113.41C240.49 113.41 244.54 115.51 247.36 119.71C250.24 123.85 251.68 129.82 251.68 137.62C251.68 143.62 250.84 148.57 249.16 152.47C247.54 156.31 245.02 159.19 241.6 161.11C238.24 162.97 233.98 163.9 228.82 163.9C227.56 163.9 226.21 163.81 224.77 163.63C223.33 163.51 221.83 163.33 220.27 163.09V181.9H208.21ZM227.92 155.17C230.56 155.17 232.69 154.66 234.31 153.64C235.99 152.56 237.22 150.82 238 148.42C238.84 146.02 239.26 142.81 239.26 138.79C239.26 135.19 238.93 132.25 238.27 129.97C237.61 127.69 236.62 126.01 235.3 124.93C234.04 123.85 232.45 123.31 230.53 123.31C229.45 123.31 228.37 123.43 227.29 123.67C226.21 123.85 225.1 124.18 223.96 124.66C222.82 125.14 221.56 125.8 220.18 126.64V154C221.68 154.36 223.06 154.66 224.32 154.9C225.58 155.08 226.78 155.17 227.92 155.17ZM258.197 138.61C258.197 134.47 258.557 130.84 259.277 127.72C260.057 124.6 261.287 121.99 262.967 119.89C264.707 117.79 267.047 116.2 269.987 115.12C272.927 113.98 276.557 113.41 280.877 113.41C285.257 113.41 288.887 113.98 291.767 115.12C294.707 116.2 297.047 117.79 298.787 119.89C300.527 121.99 301.757 124.6 302.477 127.72C303.257 130.84 303.647 134.47 303.647 138.61C303.647 142.75 303.227 146.41 302.387 149.59C301.607 152.77 300.317 155.41 298.517 157.51C296.717 159.61 294.377 161.2 291.497 162.28C288.617 163.36 285.077 163.9 280.877 163.9C276.737 163.9 273.197 163.36 270.257 162.28C267.377 161.2 265.037 159.61 263.237 157.51C261.497 155.41 260.207 152.77 259.367 149.59C258.587 146.41 258.197 142.75 258.197 138.61ZM270.437 138.61C270.437 142.63 270.797 145.84 271.517 148.24C272.237 150.58 273.377 152.26 274.937 153.28C276.497 154.3 278.477 154.81 280.877 154.81C283.397 154.81 285.407 154.3 286.907 153.28C288.467 152.26 289.577 150.58 290.237 148.24C290.957 145.84 291.317 142.63 291.317 138.61C291.317 134.59 290.987 131.41 290.327 129.07C289.727 126.73 288.647 125.05 287.087 124.03C285.587 123.01 283.517 122.5 280.877 122.5C278.297 122.5 276.227 123.01 274.667 124.03C273.167 125.05 272.087 126.73 271.427 129.07C270.767 131.41 270.437 134.59 270.437 138.61ZM312.051 163V114.31H322.941V118.54C324.921 117.4 326.811 116.47 328.611 115.75C330.411 114.97 332.181 114.4 333.921 114.04C335.721 113.62 337.611 113.41 339.591 113.41C342.711 113.41 345.291 113.98 347.331 115.12C349.431 116.2 350.991 117.76 352.011 119.8C353.031 121.84 353.541 124.3 353.541 127.18V163H341.571V130.96C341.571 128.44 340.971 126.58 339.771 125.38C338.631 124.12 336.891 123.49 334.551 123.49C333.351 123.49 332.181 123.64 331.041 123.94C329.901 124.18 328.761 124.51 327.621 124.93C326.481 125.35 325.281 125.89 324.021 126.55V163H312.051ZM384.72 163.9C381.06 163.9 377.82 163.45 375 162.55C372.18 161.59 369.78 160.15 367.8 158.23C365.88 156.25 364.41 153.76 363.39 150.76C362.43 147.7 361.95 144.07 361.95 139.87C361.95 135.01 362.52 130.9 363.66 127.54C364.86 124.12 366.54 121.39 368.7 119.35C370.86 117.25 373.38 115.75 376.26 114.85C379.14 113.89 382.29 113.41 385.71 113.41C392.49 113.41 397.47 115.12 400.65 118.54C403.89 121.96 405.51 127.54 405.51 135.28C405.51 135.82 405.51 136.51 405.51 137.35C405.51 138.19 405.45 139 405.33 139.78C403.95 139.9 402.18 140.05 400.02 140.23C397.86 140.41 395.43 140.59 392.73 140.77C390.03 140.95 387.12 141.1 384 141.22C380.88 141.34 377.67 141.46 374.37 141.58C374.31 141.76 374.28 141.97 374.28 142.21C374.28 142.45 374.28 142.69 374.28 142.93C374.28 145.69 374.73 147.91 375.63 149.59C376.59 151.21 378 152.44 379.86 153.28C381.72 154.06 384.06 154.45 386.88 154.45C388.68 154.45 390.51 154.36 392.37 154.18C394.29 153.94 396.18 153.67 398.04 153.37C399.96 153.01 401.82 152.62 403.62 152.2L405.06 161.02C403.14 161.62 401.1 162.16 398.94 162.64C396.78 163.06 394.53 163.36 392.19 163.54C389.85 163.78 387.36 163.9 384.72 163.9ZM374.46 133.84C376.56 133.84 378.57 133.81 380.49 133.75C382.47 133.63 384.33 133.54 386.07 133.48C387.81 133.36 389.31 133.27 390.57 133.21C391.83 133.09 392.82 133 393.54 132.94C393.48 130.3 393.12 128.17 392.46 126.55C391.86 124.93 390.9 123.76 389.58 123.04C388.32 122.32 386.73 121.96 384.81 121.96C383.61 121.96 382.44 122.14 381.3 122.5C380.16 122.86 379.11 123.49 378.15 124.39C377.19 125.29 376.38 126.49 375.72 127.99C375.12 129.49 374.7 131.44 374.46 133.84ZM413.871 163V114.31H424.761V118.54C426.741 117.4 428.631 116.47 430.431 115.75C432.231 114.97 434.001 114.4 435.741 114.04C437.541 113.62 439.431 113.41 441.411 113.41C444.531 113.41 447.111 113.98 449.151 115.12C451.251 116.2 452.811 117.76 453.831 119.8C454.851 121.84 455.361 124.3 455.361 127.18V163H443.391V130.96C443.391 128.44 442.791 126.58 441.591 125.38C440.451 124.12 438.711 123.49 436.371 123.49C435.171 123.49 434.001 123.64 432.861 123.94C431.721 124.18 430.581 124.51 429.441 124.93C428.301 125.35 427.101 125.89 425.841 126.55V163H413.871ZM483.3 163.9C480.18 163.9 477.54 163.3 475.38 162.1C473.28 160.9 471.69 159.07 470.61 156.61C469.59 154.15 469.08 151 469.08 147.16V123.04H461.61V115.12L469.08 114.31L470.52 103.51H481.05V114.31H494.82V123.13H481.05V146.17C481.05 148.93 481.56 150.88 482.58 152.02C483.6 153.16 485.19 153.73 487.35 153.73C488.55 153.73 489.78 153.64 491.04 153.46C492.3 153.22 493.62 152.92 495 152.56L496.62 161.65C494.22 162.49 491.88 163.06 489.6 163.36C487.38 163.72 485.28 163.9 483.3 163.9ZM508.715 124.3L499.805 123.22C501.065 120.1 501.965 117.13 502.505 114.31C503.105 111.43 503.405 108.37 503.405 105.13C503.405 104.23 503.375 103.36 503.315 102.52C503.315 101.68 503.285 100.84 503.225 100H513.935C513.995 100.54 514.025 101.08 514.025 101.62C514.025 102.16 514.025 102.67 514.025 103.15C514.025 107.65 513.575 111.55 512.675 114.85C511.835 118.15 510.515 121.3 508.715 124.3ZM517.668 161.11L519.108 152.29C520.188 152.65 521.388 153.01 522.708 153.37C524.028 153.67 525.408 153.94 526.848 154.18C528.348 154.42 529.818 154.6 531.258 154.72C532.698 154.84 534.048 154.9 535.308 154.9C538.188 154.9 540.288 154.48 541.608 153.64C542.928 152.74 543.588 151.42 543.588 149.68C543.588 148.72 543.318 147.91 542.778 147.25C542.298 146.53 541.518 145.93 540.438 145.45C539.418 144.91 538.128 144.43 536.568 144.01C535.068 143.53 533.328 143.05 531.348 142.57C529.248 142.09 527.418 141.46 525.858 140.68C524.298 139.84 522.948 138.85 521.808 137.71C520.728 136.57 519.918 135.25 519.378 133.75C518.898 132.25 518.658 130.54 518.658 128.62C518.658 123.64 520.278 119.86 523.518 117.28C526.758 114.7 531.558 113.41 537.918 113.41C539.898 113.41 541.758 113.53 543.498 113.77C545.238 113.95 546.888 114.22 548.448 114.58C550.068 114.88 551.538 115.27 552.858 115.75L551.328 124.75C550.008 124.33 548.688 123.97 547.368 123.67C546.048 123.37 544.608 123.13 543.048 122.95C541.548 122.77 539.838 122.68 537.918 122.68C535.338 122.68 533.388 123.1 532.068 123.94C530.748 124.72 530.088 125.92 530.088 127.54C530.088 128.5 530.328 129.31 530.808 129.97C531.288 130.57 531.978 131.08 532.878 131.5C533.778 131.92 534.888 132.31 536.208 132.67C537.528 133.03 538.998 133.39 540.618 133.75C542.838 134.29 544.848 134.95 546.648 135.73C548.448 136.45 549.978 137.35 551.238 138.43C552.558 139.51 553.578 140.89 554.298 142.57C555.078 144.19 555.468 146.17 555.468 148.51C555.468 150.73 555.108 152.71 554.388 154.45C553.728 156.13 552.768 157.57 551.508 158.77C550.248 159.97 548.778 160.96 547.098 161.74C545.418 162.46 543.558 163 541.518 163.36C539.478 163.72 537.348 163.9 535.128 163.9C532.968 163.9 530.898 163.78 528.918 163.54C526.938 163.36 524.988 163.06 523.068 162.64C521.208 162.22 519.408 161.71 517.668 161.11ZM598.626 114.31V120.07C600.306 118.51 601.866 117.25 603.306 116.29C604.806 115.27 606.306 114.55 607.806 114.13C609.366 113.65 610.986 113.41 612.666 113.41C613.746 113.41 614.826 113.5 615.906 113.68C617.046 113.8 618.156 114.04 619.236 114.4L617.346 125.2C616.266 124.96 615.156 124.78 614.016 124.66C612.936 124.48 611.916 124.39 610.956 124.39C609.216 124.39 607.416 124.72 605.556 125.38C603.696 126.04 601.746 127.18 599.706 128.8V163H587.736V114.31H598.626ZM643.442 163.9C639.782 163.9 636.542 163.45 633.722 162.55C630.902 161.59 628.502 160.15 626.522 158.23C624.602 156.25 623.132 153.76 622.112 150.76C621.152 147.7 620.672 144.07 620.672 139.87C620.672 135.01 621.242 130.9 622.382 127.54C623.582 124.12 625.262 121.39 627.422 119.35C629.582 117.25 632.102 115.75 634.982 114.85C637.862 113.89 641.012 113.41 644.432 113.41C651.212 113.41 656.192 115.12 659.372 118.54C662.612 121.96 664.232 127.54 664.232 135.28C664.232 135.82 664.232 136.51 664.232 137.35C664.232 138.19 664.172 139 664.052 139.78C662.672 139.9 660.902 140.05 658.742 140.23C656.582 140.41 654.152 140.59 651.452 140.77C648.752 140.95 645.842 141.1 642.722 141.22C639.602 141.34 636.392 141.46 633.092 141.58C633.032 141.76 633.002 141.97 633.002 142.21C633.002 142.45 633.002 142.69 633.002 142.93C633.002 145.69 633.452 147.91 634.352 149.59C635.312 151.21 636.722 152.44 638.582 153.28C640.442 154.06 642.782 154.45 645.602 154.45C647.402 154.45 649.232 154.36 651.092 154.18C653.012 153.94 654.902 153.67 656.762 153.37C658.682 153.01 660.542 152.62 662.342 152.2L663.782 161.02C661.862 161.62 659.822 162.16 657.662 162.64C655.502 163.06 653.252 163.36 650.912 163.54C648.572 163.78 646.082 163.9 643.442 163.9ZM633.182 133.84C635.282 133.84 637.292 133.81 639.212 133.75C641.192 133.63 643.052 133.54 644.792 133.48C646.532 133.36 648.032 133.27 649.292 133.21C650.552 133.09 651.542 133 652.262 132.94C652.202 130.3 651.842 128.17 651.182 126.55C650.582 124.93 649.622 123.76 648.302 123.04C647.042 122.32 645.452 121.96 643.532 121.96C642.332 121.96 641.162 122.14 640.022 122.5C638.882 122.86 637.832 123.49 636.872 124.39C635.912 125.29 635.102 126.49 634.442 127.99C633.842 129.49 633.422 131.44 633.182 133.84ZM684.475 96.4V147.25C684.475 148.99 684.655 150.34 685.015 151.3C685.435 152.2 685.975 152.8 686.635 153.1C687.355 153.4 688.135 153.55 688.975 153.55C689.575 153.55 690.235 153.49 690.955 153.37C691.675 153.25 692.455 153.07 693.295 152.83L694.375 162.01C693.175 162.55 691.825 163 690.325 163.36C688.825 163.72 687.205 163.9 685.465 163.9C682.705 163.9 680.335 163.42 678.355 162.46C676.435 161.5 674.965 159.88 673.945 157.6C672.985 155.32 672.505 152.23 672.505 148.33V96.4H684.475ZM720.125 163.9C716.465 163.9 713.225 163.45 710.405 162.55C707.585 161.59 705.185 160.15 703.205 158.23C701.285 156.25 699.815 153.76 698.795 150.76C697.835 147.7 697.355 144.07 697.355 139.87C697.355 135.01 697.925 130.9 699.065 127.54C700.265 124.12 701.945 121.39 704.105 119.35C706.265 117.25 708.785 115.75 711.665 114.85C714.545 113.89 717.695 113.41 721.115 113.41C727.895 113.41 732.875 115.12 736.055 118.54C739.295 121.96 740.915 127.54 740.915 135.28C740.915 135.82 740.915 136.51 740.915 137.35C740.915 138.19 740.855 139 740.735 139.78C739.355 139.9 737.585 140.05 735.425 140.23C733.265 140.41 730.835 140.59 728.135 140.77C725.435 140.95 722.525 141.1 719.405 141.22C716.285 141.34 713.075 141.46 709.775 141.58C709.715 141.76 709.685 141.97 709.685 142.21C709.685 142.45 709.685 142.69 709.685 142.93C709.685 145.69 710.135 147.91 711.035 149.59C711.995 151.21 713.405 152.44 715.265 153.28C717.125 154.06 719.465 154.45 722.285 154.45C724.085 154.45 725.915 154.36 727.775 154.18C729.695 153.94 731.585 153.67 733.445 153.37C735.365 153.01 737.225 152.62 739.025 152.2L740.465 161.02C738.545 161.62 736.505 162.16 734.345 162.64C732.185 163.06 729.935 163.36 727.595 163.54C725.255 163.78 722.765 163.9 720.125 163.9ZM709.865 133.84C711.965 133.84 713.975 133.81 715.895 133.75C717.875 133.63 719.735 133.54 721.475 133.48C723.215 133.36 724.715 133.27 725.975 133.21C727.235 133.09 728.225 133 728.945 132.94C728.885 130.3 728.525 128.17 727.865 126.55C727.265 124.93 726.305 123.76 724.985 123.04C723.725 122.32 722.135 121.96 720.215 121.96C719.015 121.96 717.845 122.14 716.705 122.5C715.565 122.86 714.515 123.49 713.555 124.39C712.595 125.29 711.785 126.49 711.125 127.99C710.525 129.49 710.105 131.44 709.865 133.84ZM761.192 163L743.822 114.49L756.512 114.13L768.302 152.29L779.642 114.13L792.242 114.49L774.692 163H761.192ZM794.15 150.31C794.15 147.31 794.72 144.88 795.86 143.02C797 141.1 798.74 139.6 801.08 138.52C803.48 137.38 806.45 136.51 809.99 135.91C813.59 135.25 817.79 134.74 822.59 134.38V129.88C822.59 127.72 821.78 126.13 820.16 125.11C818.54 124.03 816.2 123.49 813.14 123.49C811.88 123.49 810.47 123.55 808.91 123.67C807.35 123.79 805.73 124 804.05 124.3C802.37 124.6 800.66 125.02 798.92 125.56L796.85 116.02C799.55 115.24 802.4 114.61 805.4 114.13C808.46 113.65 811.31 113.41 813.95 113.41C818.69 113.41 822.59 114.04 825.65 115.3C828.71 116.5 830.96 118.33 832.4 120.79C833.9 123.19 834.65 126.19 834.65 129.79V149.23C834.65 150.91 834.89 152.05 835.37 152.65C835.85 153.25 836.45 153.55 837.17 153.55C837.47 153.55 837.83 153.52 838.25 153.46C838.67 153.4 839.06 153.28 839.42 153.1L840.41 161.83C839.39 162.43 838.22 162.91 836.9 163.27C835.58 163.69 834.17 163.9 832.67 163.9C830.27 163.9 828.35 163.42 826.91 162.46C825.47 161.44 824.42 159.91 823.76 157.87C822.26 159.01 820.67 160.06 818.99 161.02C817.31 161.92 815.51 162.61 813.59 163.09C811.67 163.63 809.54 163.9 807.2 163.9C805.22 163.9 803.45 163.6 801.89 163C800.33 162.4 798.95 161.53 797.75 160.39C796.61 159.19 795.71 157.75 795.05 156.07C794.45 154.39 794.15 152.47 794.15 150.31ZM806.3 149.5C806.3 151.6 806.78 153.19 807.74 154.27C808.76 155.29 810.11 155.8 811.79 155.8C813.05 155.8 814.31 155.59 815.57 155.17C816.89 154.75 818.15 154.21 819.35 153.55C820.61 152.83 821.69 151.99 822.59 151.03V141.04C820.01 141.16 817.7 141.4 815.66 141.76C813.68 142.12 811.97 142.6 810.53 143.2C809.15 143.8 808.1 144.61 807.38 145.63C806.66 146.65 806.3 147.94 806.3 149.5ZM846.437 163V114.31H857.327V118.54C859.307 117.4 861.197 116.47 862.997 115.75C864.797 114.97 866.567 114.4 868.307 114.04C870.107 113.62 871.997 113.41 873.977 113.41C877.097 113.41 879.677 113.98 881.717 115.12C883.817 116.2 885.377 117.76 886.397 119.8C887.417 121.84 887.927 124.3 887.927 127.18V163H875.957V130.96C875.957 128.44 875.357 126.58 874.157 125.38C873.017 124.12 871.277 123.49 868.937 123.49C867.737 123.49 866.567 123.64 865.427 123.94C864.287 124.18 863.147 124.51 862.007 124.93C860.867 125.35 859.667 125.89 858.407 126.55V163H846.437ZM896.336 139.33C896.336 133.57 897.236 128.77 899.036 124.93C900.896 121.09 903.656 118.21 907.316 116.29C910.976 114.37 915.416 113.41 920.636 113.41C922.436 113.41 924.236 113.5 926.036 113.68C927.896 113.8 929.696 114.01 931.436 114.31C933.176 114.55 934.736 114.88 936.116 115.3L934.496 125.29C933.116 124.99 931.706 124.75 930.266 124.57C928.826 124.33 927.386 124.15 925.946 124.03C924.566 123.91 923.216 123.85 921.896 123.85C919.016 123.85 916.586 124.42 914.606 125.56C912.686 126.64 911.216 128.32 910.196 130.6C909.176 132.82 908.666 135.67 908.666 139.15C908.666 142.39 909.176 145.09 910.196 147.25C911.276 149.35 912.806 150.94 914.786 152.02C916.826 153.04 919.256 153.55 922.076 153.55C923.456 153.55 924.866 153.52 926.306 153.46C927.806 153.34 929.306 153.16 930.806 152.92C932.306 152.68 933.776 152.41 935.216 152.11L937.016 161.65C934.616 162.31 931.826 162.85 928.646 163.27C925.526 163.69 922.496 163.9 919.556 163.9C911.816 163.9 905.996 161.92 902.096 157.96C898.256 153.94 896.336 147.73 896.336 139.33ZM964.303 163.9C960.643 163.9 957.403 163.45 954.583 162.55C951.763 161.59 949.363 160.15 947.383 158.23C945.463 156.25 943.993 153.76 942.973 150.76C942.013 147.7 941.533 144.07 941.533 139.87C941.533 135.01 942.103 130.9 943.243 127.54C944.443 124.12 946.123 121.39 948.283 119.35C950.443 117.25 952.963 115.75 955.843 114.85C958.723 113.89 961.873 113.41 965.293 113.41C972.073 113.41 977.053 115.12 980.233 118.54C983.473 121.96 985.093 127.54 985.093 135.28C985.093 135.82 985.093 136.51 985.093 137.35C985.093 138.19 985.033 139 984.913 139.78C983.533 139.9 981.763 140.05 979.603 140.23C977.443 140.41 975.013 140.59 972.313 140.77C969.613 140.95 966.703 141.1 963.583 141.22C960.463 141.34 957.253 141.46 953.953 141.58C953.893 141.76 953.863 141.97 953.863 142.21C953.863 142.45 953.863 142.69 953.863 142.93C953.863 145.69 954.313 147.91 955.213 149.59C956.173 151.21 957.583 152.44 959.443 153.28C961.303 154.06 963.643 154.45 966.463 154.45C968.263 154.45 970.093 154.36 971.953 154.18C973.873 153.94 975.763 153.67 977.623 153.37C979.543 153.01 981.403 152.62 983.203 152.2L984.643 161.02C982.723 161.62 980.683 162.16 978.523 162.64C976.363 163.06 974.113 163.36 971.773 163.54C969.433 163.78 966.943 163.9 964.303 163.9ZM954.043 133.84C956.143 133.84 958.153 133.81 960.073 133.75C962.053 133.63 963.913 133.54 965.653 133.48C967.393 133.36 968.893 133.27 970.153 133.21C971.413 133.09 972.403 133 973.123 132.94C973.063 130.3 972.703 128.17 972.043 126.55C971.443 124.93 970.483 123.76 969.163 123.04C967.903 122.32 966.313 121.96 964.393 121.96C963.193 121.96 962.023 122.14 960.883 122.5C959.743 122.86 958.693 123.49 957.733 124.39C956.773 125.29 955.963 126.49 955.303 127.99C954.703 129.49 954.283 131.44 954.043 133.84Z" fill="white"/>
<path d="M194.2 1165.36C196.333 1163.55 198.147 1161.97 199.64 1160.64C201.16 1159.31 202.4 1158.15 203.36 1157.16C204.347 1156.17 205.107 1155.29 205.64 1154.52C206.2 1153.72 206.587 1153 206.8 1152.36C207.013 1151.69 207.12 1151 207.12 1150.28C207.12 1149.35 206.92 1148.56 206.52 1147.92C206.147 1147.25 205.6 1146.75 204.88 1146.4C204.16 1146.05 203.267 1145.88 202.2 1145.88C201.24 1145.88 200.213 1146.04 199.12 1146.36C198.053 1146.65 196.973 1147.12 195.88 1147.76L194.2 1143.24C195.08 1142.65 196.013 1142.17 197 1141.8C198.013 1141.4 199.067 1141.11 200.16 1140.92C201.28 1140.71 202.387 1140.6 203.48 1140.6C205.48 1140.6 207.173 1140.96 208.56 1141.68C209.973 1142.4 211.053 1143.4 211.8 1144.68C212.547 1145.96 212.92 1147.45 212.92 1149.16C212.92 1150.01 212.84 1150.81 212.68 1151.56C212.547 1152.31 212.267 1153.09 211.84 1153.92C211.413 1154.72 210.787 1155.63 209.96 1156.64C209.16 1157.63 208.093 1158.77 206.76 1160.08C205.427 1161.39 203.787 1162.91 201.84 1164.64H215.04V1169H194.32L194.2 1165.36ZM218.481 1155C218.481 1152.23 218.748 1149.92 219.281 1148.08C219.814 1146.21 220.588 1144.73 221.601 1143.64C222.614 1142.55 223.814 1141.77 225.201 1141.32C226.588 1140.84 228.134 1140.6 229.841 1140.6C231.574 1140.6 233.134 1140.84 234.521 1141.32C235.934 1141.77 237.134 1142.56 238.121 1143.68C239.108 1144.77 239.868 1146.24 240.401 1148.08C240.934 1149.92 241.201 1152.23 241.201 1155C241.201 1157.75 240.921 1160.05 240.361 1161.92C239.801 1163.76 239.014 1165.23 238.001 1166.32C237.014 1167.41 235.828 1168.2 234.441 1168.68C233.054 1169.16 231.521 1169.4 229.841 1169.4C228.134 1169.4 226.588 1169.17 225.201 1168.72C223.814 1168.24 222.614 1167.45 221.601 1166.36C220.614 1165.24 219.841 1163.76 219.281 1161.92C218.748 1160.05 218.481 1157.75 218.481 1155ZM223.921 1155.16C223.921 1157.24 224.068 1158.95 224.361 1160.28C224.654 1161.59 225.068 1162.6 225.601 1163.32C226.134 1164.01 226.761 1164.51 227.481 1164.8C228.201 1165.07 228.988 1165.2 229.841 1165.2C230.668 1165.2 231.441 1165.07 232.161 1164.8C232.881 1164.51 233.508 1164.01 234.041 1163.32C234.574 1162.6 234.988 1161.59 235.281 1160.28C235.574 1158.95 235.721 1157.24 235.721 1155.16C235.721 1153 235.574 1151.24 235.281 1149.88C234.988 1148.52 234.561 1147.47 234.001 1146.72C233.468 1145.97 232.841 1145.47 232.121 1145.2C231.428 1144.93 230.668 1144.8 229.841 1144.8C228.988 1144.8 228.201 1144.93 227.481 1145.2C226.788 1145.47 226.161 1145.97 225.601 1146.72C225.068 1147.47 224.654 1148.52 224.361 1149.88C224.068 1151.24 223.921 1153 223.921 1155.16ZM244.883 1165.36C247.016 1163.55 248.829 1161.97 250.323 1160.64C251.843 1159.31 253.083 1158.15 254.043 1157.16C255.029 1156.17 255.789 1155.29 256.323 1154.52C256.883 1153.72 257.269 1153 257.483 1152.36C257.696 1151.69 257.803 1151 257.803 1150.28C257.803 1149.35 257.603 1148.56 257.203 1147.92C256.829 1147.25 256.283 1146.75 255.563 1146.4C254.843 1146.05 253.949 1145.88 252.883 1145.88C251.923 1145.88 250.896 1146.04 249.803 1146.36C248.736 1146.65 247.656 1147.12 246.563 1147.76L244.883 1143.24C245.763 1142.65 246.696 1142.17 247.683 1141.8C248.696 1141.4 249.749 1141.11 250.843 1140.92C251.963 1140.71 253.069 1140.6 254.163 1140.6C256.163 1140.6 257.856 1140.96 259.243 1141.68C260.656 1142.4 261.736 1143.4 262.483 1144.68C263.229 1145.96 263.603 1147.45 263.603 1149.16C263.603 1150.01 263.523 1150.81 263.363 1151.56C263.229 1152.31 262.949 1153.09 262.523 1153.92C262.096 1154.72 261.469 1155.63 260.643 1156.64C259.843 1157.63 258.776 1158.77 257.443 1160.08C256.109 1161.39 254.469 1162.91 252.523 1164.64H265.723V1169H245.003L244.883 1165.36ZM270.244 1165.36C272.377 1163.55 274.19 1161.97 275.684 1160.64C277.204 1159.31 278.444 1158.15 279.404 1157.16C280.39 1156.17 281.15 1155.29 281.684 1154.52C282.244 1153.72 282.63 1153 282.844 1152.36C283.057 1151.69 283.164 1151 283.164 1150.28C283.164 1149.35 282.964 1148.56 282.564 1147.92C282.19 1147.25 281.644 1146.75 280.924 1146.4C280.204 1146.05 279.31 1145.88 278.244 1145.88C277.284 1145.88 276.257 1146.04 275.164 1146.36C274.097 1146.65 273.017 1147.12 271.924 1147.76L270.244 1143.24C271.124 1142.65 272.057 1142.17 273.044 1141.8C274.057 1141.4 275.11 1141.11 276.204 1140.92C277.324 1140.71 278.43 1140.6 279.524 1140.6C281.524 1140.6 283.217 1140.96 284.604 1141.68C286.017 1142.4 287.097 1143.4 287.844 1144.68C288.59 1145.96 288.964 1147.45 288.964 1149.16C288.964 1150.01 288.884 1150.81 288.724 1151.56C288.59 1152.31 288.31 1153.09 287.884 1153.92C287.457 1154.72 286.83 1155.63 286.004 1156.64C285.204 1157.63 284.137 1158.77 282.804 1160.08C281.47 1161.39 279.83 1162.91 277.884 1164.64H291.084V1169H270.364L270.244 1165.36Z" fill="white"/>
<path d="M1035.2 1165.36C1037.33 1163.55 1039.15 1161.97 1040.64 1160.64C1042.16 1159.31 1043.4 1158.15 1044.36 1157.16C1045.35 1156.17 1046.11 1155.29 1046.64 1154.52C1047.2 1153.72 1047.59 1153 1047.8 1152.36C1048.01 1151.69 1048.12 1151 1048.12 1150.28C1048.12 1149.35 1047.92 1148.56 1047.52 1147.92C1047.15 1147.25 1046.6 1146.75 1045.88 1146.4C1045.16 1146.05 1044.27 1145.88 1043.2 1145.88C1042.24 1145.88 1041.21 1146.04 1040.12 1146.36C1039.05 1146.65 1037.97 1147.12 1036.88 1147.76L1035.2 1143.24C1036.08 1142.65 1037.01 1142.17 1038 1141.8C1039.01 1141.4 1040.07 1141.11 1041.16 1140.92C1042.28 1140.71 1043.39 1140.6 1044.48 1140.6C1046.48 1140.6 1048.17 1140.96 1049.56 1141.68C1050.97 1142.4 1052.05 1143.4 1052.8 1144.68C1053.55 1145.96 1053.92 1147.45 1053.92 1149.16C1053.92 1150.01 1053.84 1150.81 1053.68 1151.56C1053.55 1152.31 1053.27 1153.09 1052.84 1153.92C1052.41 1154.72 1051.79 1155.63 1050.96 1156.64C1050.16 1157.63 1049.09 1158.77 1047.76 1160.08C1046.43 1161.39 1044.79 1162.91 1042.84 1164.64H1056.04V1169H1035.32L1035.2 1165.36ZM1059.48 1155C1059.48 1152.23 1059.75 1149.92 1060.28 1148.08C1060.81 1146.21 1061.59 1144.73 1062.6 1143.64C1063.61 1142.55 1064.81 1141.77 1066.2 1141.32C1067.59 1140.84 1069.13 1140.6 1070.84 1140.6C1072.57 1140.6 1074.13 1140.84 1075.52 1141.32C1076.93 1141.77 1078.13 1142.56 1079.12 1143.68C1080.11 1144.77 1080.87 1146.24 1081.4 1148.08C1081.93 1149.92 1082.2 1152.23 1082.2 1155C1082.2 1157.75 1081.92 1160.05 1081.36 1161.92C1080.8 1163.76 1080.01 1165.23 1079 1166.32C1078.01 1167.41 1076.83 1168.2 1075.44 1168.68C1074.05 1169.16 1072.52 1169.4 1070.84 1169.4C1069.13 1169.4 1067.59 1169.17 1066.2 1168.72C1064.81 1168.24 1063.61 1167.45 1062.6 1166.36C1061.61 1165.24 1060.84 1163.76 1060.28 1161.92C1059.75 1160.05 1059.48 1157.75 1059.48 1155ZM1064.92 1155.16C1064.92 1157.24 1065.07 1158.95 1065.36 1160.28C1065.65 1161.59 1066.07 1162.6 1066.6 1163.32C1067.13 1164.01 1067.76 1164.51 1068.48 1164.8C1069.2 1165.07 1069.99 1165.2 1070.84 1165.2C1071.67 1165.2 1072.44 1165.07 1073.16 1164.8C1073.88 1164.51 1074.51 1164.01 1075.04 1163.32C1075.57 1162.6 1075.99 1161.59 1076.28 1160.28C1076.57 1158.95 1076.72 1157.24 1076.72 1155.16C1076.72 1153 1076.57 1151.24 1076.28 1149.88C1075.99 1148.52 1075.56 1147.47 1075 1146.72C1074.47 1145.97 1073.84 1145.47 1073.12 1145.2C1072.43 1144.93 1071.67 1144.8 1070.84 1144.8C1069.99 1144.8 1069.2 1144.93 1068.48 1145.2C1067.79 1145.47 1067.16 1145.97 1066.6 1146.72C1066.07 1147.47 1065.65 1148.52 1065.36 1149.88C1065.07 1151.24 1064.92 1153 1064.92 1155.16ZM1085.88 1165.36C1088.02 1163.55 1089.83 1161.97 1091.32 1160.64C1092.84 1159.31 1094.08 1158.15 1095.04 1157.16C1096.03 1156.17 1096.79 1155.29 1097.32 1154.52C1097.88 1153.72 1098.27 1153 1098.48 1152.36C1098.7 1151.69 1098.8 1151 1098.8 1150.28C1098.8 1149.35 1098.6 1148.56 1098.2 1147.92C1097.83 1147.25 1097.28 1146.75 1096.56 1146.4C1095.84 1146.05 1094.95 1145.88 1093.88 1145.88C1092.92 1145.88 1091.9 1146.04 1090.8 1146.36C1089.74 1146.65 1088.66 1147.12 1087.56 1147.76L1085.88 1143.24C1086.76 1142.65 1087.7 1142.17 1088.68 1141.8C1089.7 1141.4 1090.75 1141.11 1091.84 1140.92C1092.96 1140.71 1094.07 1140.6 1095.16 1140.6C1097.16 1140.6 1098.86 1140.96 1100.24 1141.68C1101.66 1142.4 1102.74 1143.4 1103.48 1144.68C1104.23 1145.96 1104.6 1147.45 1104.6 1149.16C1104.6 1150.01 1104.52 1150.81 1104.36 1151.56C1104.23 1152.31 1103.95 1153.09 1103.52 1153.92C1103.1 1154.72 1102.47 1155.63 1101.64 1156.64C1100.84 1157.63 1099.78 1158.77 1098.44 1160.08C1097.11 1161.39 1095.47 1162.91 1093.52 1164.64H1106.72V1169H1086L1085.88 1165.36ZM1110.32 1167.12L1111.8 1163.28C1112.58 1163.63 1113.38 1163.92 1114.2 1164.16C1115.03 1164.4 1115.91 1164.59 1116.84 1164.72C1117.78 1164.85 1118.76 1164.92 1119.8 1164.92C1121.22 1164.92 1122.4 1164.76 1123.36 1164.44C1124.32 1164.09 1125.03 1163.59 1125.48 1162.92C1125.96 1162.23 1126.2 1161.4 1126.2 1160.44C1126.2 1159.13 1125.67 1158.17 1124.6 1157.56C1123.54 1156.95 1121.96 1156.64 1119.88 1156.64H1115.84V1152.68H1120.32C1121.42 1152.68 1122.34 1152.53 1123.08 1152.24C1123.86 1151.95 1124.42 1151.52 1124.76 1150.96C1125.14 1150.4 1125.32 1149.76 1125.32 1149.04C1125.32 1147.87 1124.82 1146.96 1123.8 1146.32C1122.82 1145.65 1121.43 1145.32 1119.64 1145.32C1118.5 1145.32 1117.31 1145.44 1116.08 1145.68C1114.88 1145.89 1113.67 1146.29 1112.44 1146.88L1111.16 1142.68C1111.94 1142.25 1112.82 1141.88 1113.8 1141.56C1114.79 1141.24 1115.84 1141 1116.96 1140.84C1118.11 1140.68 1119.34 1140.6 1120.64 1140.6C1122.7 1140.6 1124.46 1140.89 1125.92 1141.48C1127.42 1142.07 1128.58 1142.91 1129.4 1144C1130.23 1145.07 1130.64 1146.36 1130.64 1147.88C1130.64 1149.35 1130.27 1150.64 1129.52 1151.76C1128.78 1152.85 1127.7 1153.67 1126.28 1154.2C1128.04 1154.65 1129.38 1155.45 1130.28 1156.6C1131.22 1157.75 1131.68 1159.15 1131.68 1160.8C1131.68 1162.61 1131.22 1164.16 1130.28 1165.44C1129.38 1166.72 1128.07 1167.71 1126.36 1168.4C1124.68 1169.07 1122.64 1169.4 1120.24 1169.4C1118.88 1169.4 1117.63 1169.32 1116.48 1169.16C1115.34 1169 1114.27 1168.76 1113.28 1168.44C1112.32 1168.09 1111.34 1167.65 1110.32 1167.12Z" fill="white"/>
<path d="M1705.7 1165.36C1707.83 1163.55 1709.64 1161.97 1711.14 1160.64C1712.66 1159.31 1713.9 1158.15 1714.86 1157.16C1715.84 1156.17 1716.6 1155.29 1717.14 1154.52C1717.7 1153.72 1718.08 1153 1718.3 1152.36C1718.51 1151.69 1718.62 1151 1718.62 1150.28C1718.62 1149.35 1718.42 1148.56 1718.02 1147.92C1717.64 1147.25 1717.1 1146.75 1716.38 1146.4C1715.66 1146.05 1714.76 1145.88 1713.7 1145.88C1712.74 1145.88 1711.71 1146.04 1710.62 1146.36C1709.55 1146.65 1708.47 1147.12 1707.38 1147.76L1705.7 1143.24C1706.58 1142.65 1707.51 1142.17 1708.5 1141.8C1709.51 1141.4 1710.56 1141.11 1711.66 1140.92C1712.78 1140.71 1713.88 1140.6 1714.98 1140.6C1716.98 1140.6 1718.67 1140.96 1720.06 1141.68C1721.47 1142.4 1722.55 1143.4 1723.3 1144.68C1724.04 1145.96 1724.42 1147.45 1724.42 1149.16C1724.42 1150.01 1724.34 1150.81 1724.18 1151.56C1724.04 1152.31 1723.76 1153.09 1723.34 1153.92C1722.91 1154.72 1722.28 1155.63 1721.46 1156.64C1720.66 1157.63 1719.59 1158.77 1718.26 1160.08C1716.92 1161.39 1715.28 1162.91 1713.34 1164.64H1726.54V1169H1705.82L1705.7 1165.36ZM1729.98 1155C1729.98 1152.23 1730.25 1149.92 1730.78 1148.08C1731.31 1146.21 1732.09 1144.73 1733.1 1143.64C1734.11 1142.55 1735.31 1141.77 1736.7 1141.32C1738.09 1140.84 1739.63 1140.6 1741.34 1140.6C1743.07 1140.6 1744.63 1140.84 1746.02 1141.32C1747.43 1141.77 1748.63 1142.56 1749.62 1143.68C1750.61 1144.77 1751.37 1146.24 1751.9 1148.08C1752.43 1149.92 1752.7 1152.23 1752.7 1155C1752.7 1157.75 1752.42 1160.05 1751.86 1161.92C1751.3 1163.76 1750.51 1165.23 1749.5 1166.32C1748.51 1167.41 1747.33 1168.2 1745.94 1168.68C1744.55 1169.16 1743.02 1169.4 1741.34 1169.4C1739.63 1169.4 1738.09 1169.17 1736.7 1168.72C1735.31 1168.24 1734.11 1167.45 1733.1 1166.36C1732.11 1165.24 1731.34 1163.76 1730.78 1161.92C1730.25 1160.05 1729.98 1157.75 1729.98 1155ZM1735.42 1155.16C1735.42 1157.24 1735.57 1158.95 1735.86 1160.28C1736.15 1161.59 1736.57 1162.6 1737.1 1163.32C1737.63 1164.01 1738.26 1164.51 1738.98 1164.8C1739.7 1165.07 1740.49 1165.2 1741.34 1165.2C1742.17 1165.2 1742.94 1165.07 1743.66 1164.8C1744.38 1164.51 1745.01 1164.01 1745.54 1163.32C1746.07 1162.6 1746.49 1161.59 1746.78 1160.28C1747.07 1158.95 1747.22 1157.24 1747.22 1155.16C1747.22 1153 1747.07 1151.24 1746.78 1149.88C1746.49 1148.52 1746.06 1147.47 1745.5 1146.72C1744.97 1145.97 1744.34 1145.47 1743.62 1145.2C1742.93 1144.93 1742.17 1144.8 1741.34 1144.8C1740.49 1144.8 1739.7 1144.93 1738.98 1145.2C1738.29 1145.47 1737.66 1145.97 1737.1 1146.72C1736.57 1147.47 1736.15 1148.52 1735.86 1149.88C1735.57 1151.24 1735.42 1153 1735.42 1155.16ZM1756.38 1165.36C1758.51 1163.55 1760.33 1161.97 1761.82 1160.64C1763.34 1159.31 1764.58 1158.15 1765.54 1157.16C1766.53 1156.17 1767.29 1155.29 1767.82 1154.52C1768.38 1153.72 1768.77 1153 1768.98 1152.36C1769.19 1151.69 1769.3 1151 1769.3 1150.28C1769.3 1149.35 1769.1 1148.56 1768.7 1147.92C1768.33 1147.25 1767.78 1146.75 1767.06 1146.4C1766.34 1146.05 1765.45 1145.88 1764.38 1145.88C1763.42 1145.88 1762.39 1146.04 1761.3 1146.36C1760.23 1146.65 1759.15 1147.12 1758.06 1147.76L1756.38 1143.24C1757.26 1142.65 1758.19 1142.17 1759.18 1141.8C1760.19 1141.4 1761.25 1141.11 1762.34 1140.92C1763.46 1140.71 1764.57 1140.6 1765.66 1140.6C1767.66 1140.6 1769.35 1140.96 1770.74 1141.68C1772.15 1142.4 1773.23 1143.4 1773.98 1144.68C1774.73 1145.96 1775.1 1147.45 1775.1 1149.16C1775.1 1150.01 1775.02 1150.81 1774.86 1151.56C1774.73 1152.31 1774.45 1153.09 1774.02 1153.92C1773.59 1154.72 1772.97 1155.63 1772.14 1156.64C1771.34 1157.63 1770.27 1158.77 1768.94 1160.08C1767.61 1161.39 1765.97 1162.91 1764.02 1164.64H1777.22V1169H1756.5L1756.38 1165.36ZM1780.42 1163.68L1780.34 1159.72L1794.5 1140.88L1799.26 1141V1159.48H1803.42V1163.68H1799.26V1169H1793.62V1163.68H1780.42ZM1785.1 1159.48H1793.74V1148.08L1785.1 1159.48Z" fill="white"/>
<path d="M236 290.019L210.019 316L236 341.981L261.981 316L236 290.019ZM236 1077.98L261.981 1052L236 1026.02L210.019 1052L236 1077.98ZM231.5 326.222C231.5 328.708 233.515 330.722 236 330.722C238.485 330.722 240.5 328.708 240.5 326.222H231.5ZM240.5 346.667C240.5 344.181 238.485 342.167 236 342.167C233.515 342.167 231.5 344.181 231.5 346.667H240.5ZM231.5 367.111C231.5 369.596 233.515 371.611 236 371.611C238.485 371.611 240.5 369.596 240.5 367.111H231.5ZM240.5 387.556C240.5 385.07 238.485 383.056 236 383.056C233.515 383.056 231.5 385.07 231.5 387.556H240.5ZM231.5 408C231.5 410.485 233.515 412.5 236 412.5C238.485 412.5 240.5 410.485 240.5 408H231.5ZM240.5 428.444C240.5 425.959 238.485 423.944 236 423.944C233.515 423.944 231.5 425.959 231.5 428.444H240.5ZM231.5 448.889C231.5 451.374 233.515 453.389 236 453.389C238.485 453.389 240.5 451.374 240.5 448.889H231.5ZM240.5 469.333C240.5 466.848 238.485 464.833 236 464.833C233.515 464.833 231.5 466.848 231.5 469.333H240.5ZM231.5 489.778C231.5 492.263 233.515 494.278 236 494.278C238.485 494.278 240.5 492.263 240.5 489.778H231.5ZM240.5 510.222C240.5 507.737 238.485 505.722 236 505.722C233.515 505.722 231.5 507.737 231.5 510.222H240.5ZM231.5 530.667C231.5 533.152 233.515 535.167 236 535.167C238.485 535.167 240.5 533.152 240.5 530.667H231.5ZM240.5 551.111C240.5 548.626 238.485 546.611 236 546.611C233.515 546.611 231.5 548.626 231.5 551.111H240.5ZM231.5 571.556C231.5 574.041 233.515 576.056 236 576.056C238.485 576.056 240.5 574.041 240.5 571.556H231.5ZM240.5 592C240.5 589.515 238.485 587.5 236 587.5C233.515 587.5 231.5 589.515 231.5 592H240.5ZM231.5 612.444C231.5 614.93 233.515 616.944 236 616.944C238.485 616.944 240.5 614.93 240.5 612.444H231.5ZM240.5 632.889C240.5 630.404 238.485 628.389 236 628.389C233.515 628.389 231.5 630.404 231.5 632.889H240.5ZM231.5 653.333C231.5 655.819 233.515 657.833 236 657.833C238.485 657.833 240.5 655.819 240.5 653.333H231.5ZM240.5 673.778C240.5 671.293 238.485 669.278 236 669.278C233.515 669.278 231.5 671.293 231.5 673.778H240.5ZM231.5 694.222C231.5 696.708 233.515 698.722 236 698.722C238.485 698.722 240.5 696.708 240.5 694.222H231.5ZM240.5 714.667C240.5 712.181 238.485 710.167 236 710.167C233.515 710.167 231.5 712.181 231.5 714.667H240.5ZM231.5 735.111C231.5 737.597 233.515 739.611 236 739.611C238.485 739.611 240.5 737.597 240.5 735.111H231.5ZM240.5 755.556C240.5 753.07 238.485 751.056 236 751.056C233.515 751.056 231.5 753.07 231.5 755.556H240.5ZM231.5 776C231.5 778.485 233.515 780.5 236 780.5C238.485 780.5 240.5 778.485 240.5 776H231.5ZM240.5 796.445C240.5 793.959 238.485 791.945 236 791.945C233.515 791.945 231.5 793.959 231.5 796.445H240.5ZM231.5 816.889C231.5 819.374 233.515 821.389 236 821.389C238.485 821.389 240.5 819.374 240.5 816.889H231.5ZM240.5 837.333C240.5 834.848 238.485 832.833 236 832.833C233.515 832.833 231.5 834.848 231.5 837.333H240.5ZM231.5 857.778C231.5 860.263 233.515 862.278 236 862.278C238.485 862.278 240.5 860.263 240.5 857.778H231.5ZM240.5 878.222C240.5 875.737 238.485 873.722 236 873.722C233.515 873.722 231.5 875.737 231.5 878.222H240.5ZM231.5 898.667C231.5 901.152 233.515 903.167 236 903.167C238.485 903.167 240.5 901.152 240.5 898.667H231.5ZM240.5 919.111C240.5 916.626 238.485 914.611 236 914.611C233.515 914.611 231.5 916.626 231.5 919.111H240.5ZM231.5 939.556C231.5 942.041 233.515 944.056 236 944.056C238.485 944.056 240.5 942.041 240.5 939.556H231.5ZM240.5 960C240.5 957.515 238.485 955.5 236 955.5C233.515 955.5 231.5 957.515 231.5 960H240.5ZM231.5 980.445C231.5 982.93 233.515 984.945 236 984.945C238.485 984.945 240.5 982.93 240.5 980.445H231.5ZM240.5 1000.89C240.5 998.404 238.485 996.389 236 996.389C233.515 996.389 231.5 998.404 231.5 1000.89H240.5ZM231.5 1021.33C231.5 1023.82 233.515 1025.83 236 1025.83C238.485 1025.83 240.5 1023.82 240.5 1021.33H231.5ZM240.5 1041.78C240.5 1039.29 238.485 1037.28 236 1037.28C233.515 1037.28 231.5 1039.29 231.5 1041.78H240.5ZM231.5 316V326.222H240.5V316H231.5ZM231.5 346.667V367.111H240.5V346.667H231.5ZM231.5 387.556V408H240.5V387.556H231.5ZM231.5 428.444V448.889H240.5V428.444H231.5ZM231.5 469.333V489.778H240.5V469.333H231.5ZM231.5 510.222V530.667H240.5V510.222H231.5ZM231.5 551.111L231.5 571.556H240.5L240.5 551.111H231.5ZM231.5 592V612.444H240.5V592H231.5ZM231.5 632.889V653.333H240.5V632.889H231.5ZM231.5 673.778V694.222H240.5V673.778H231.5ZM231.5 714.667V735.111H240.5V714.667H231.5ZM231.5 755.556V776H240.5V755.556H231.5ZM231.5 796.445V816.889H240.5V796.445H231.5ZM231.5 837.333V857.778H240.5V837.333H231.5ZM231.5 878.222V898.667H240.5V878.222H231.5ZM231.5 919.111V939.556H240.5V919.111H231.5ZM231.5 960V980.445H240.5V960H231.5ZM231.5 1000.89L231.5 1021.33H240.5L240.5 1000.89H231.5ZM231.5 1041.78V1052H240.5V1041.78H231.5Z" fill="#AFADAD"/>
<path d="M1080 290.019L1054.02 316L1080 341.981L1105.98 316L1080 290.019ZM1080 1077.98L1105.98 1052L1080 1026.02L1054.02 1052L1080 1077.98ZM1075.5 326.222C1075.5 328.708 1077.51 330.722 1080 330.722C1082.49 330.722 1084.5 328.708 1084.5 326.222H1075.5ZM1084.5 346.667C1084.5 344.181 1082.49 342.167 1080 342.167C1077.51 342.167 1075.5 344.181 1075.5 346.667H1084.5ZM1075.5 367.111C1075.5 369.596 1077.51 371.611 1080 371.611C1082.49 371.611 1084.5 369.596 1084.5 367.111H1075.5ZM1084.5 387.556C1084.5 385.07 1082.49 383.056 1080 383.056C1077.51 383.056 1075.5 385.07 1075.5 387.556H1084.5ZM1075.5 408C1075.5 410.485 1077.51 412.5 1080 412.5C1082.49 412.5 1084.5 410.485 1084.5 408H1075.5ZM1084.5 428.444C1084.5 425.959 1082.49 423.944 1080 423.944C1077.51 423.944 1075.5 425.959 1075.5 428.444H1084.5ZM1075.5 448.889C1075.5 451.374 1077.51 453.389 1080 453.389C1082.49 453.389 1084.5 451.374 1084.5 448.889H1075.5ZM1084.5 469.333C1084.5 466.848 1082.49 464.833 1080 464.833C1077.51 464.833 1075.5 466.848 1075.5 469.333H1084.5ZM1075.5 489.778C1075.5 492.263 1077.51 494.278 1080 494.278C1082.49 494.278 1084.5 492.263 1084.5 489.778H1075.5ZM1084.5 510.222C1084.5 507.737 1082.49 505.722 1080 505.722C1077.51 505.722 1075.5 507.737 1075.5 510.222H1084.5ZM1075.5 530.667C1075.5 533.152 1077.51 535.167 1080 535.167C1082.49 535.167 1084.5 533.152 1084.5 530.667H1075.5ZM1084.5 551.111C1084.5 548.626 1082.49 546.611 1080 546.611C1077.51 546.611 1075.5 548.626 1075.5 551.111H1084.5ZM1075.5 571.556C1075.5 574.041 1077.51 576.056 1080 576.056C1082.49 576.056 1084.5 574.041 1084.5 571.556H1075.5ZM1084.5 592C1084.5 589.515 1082.49 587.5 1080 587.5C1077.51 587.5 1075.5 589.515 1075.5 592H1084.5ZM1075.5 612.444C1075.5 614.93 1077.51 616.944 1080 616.944C1082.49 616.944 1084.5 614.93 1084.5 612.444H1075.5ZM1084.5 632.889C1084.5 630.404 1082.49 628.389 1080 628.389C1077.51 628.389 1075.5 630.404 1075.5 632.889H1084.5ZM1075.5 653.333C1075.5 655.819 1077.51 657.833 1080 657.833C1082.49 657.833 1084.5 655.819 1084.5 653.333H1075.5ZM1084.5 673.778C1084.5 671.293 1082.49 669.278 1080 669.278C1077.51 669.278 1075.5 671.293 1075.5 673.778H1084.5ZM1075.5 694.222C1075.5 696.708 1077.51 698.722 1080 698.722C1082.49 698.722 1084.5 696.708 1084.5 694.222H1075.5ZM1084.5 714.667C1084.5 712.181 1082.49 710.167 1080 710.167C1077.51 710.167 1075.5 712.181 1075.5 714.667H1084.5ZM1075.5 735.111C1075.5 737.597 1077.51 739.611 1080 739.611C1082.49 739.611 1084.5 737.597 1084.5 735.111H1075.5ZM1084.5 755.556C1084.5 753.07 1082.49 751.056 1080 751.056C1077.51 751.056 1075.5 753.07 1075.5 755.556H1084.5ZM1075.5 776C1075.5 778.485 1077.51 780.5 1080 780.5C1082.49 780.5 1084.5 778.485 1084.5 776H1075.5ZM1084.5 796.445C1084.5 793.959 1082.49 791.945 1080 791.945C1077.51 791.945 1075.5 793.959 1075.5 796.445H1084.5ZM1075.5 816.889C1075.5 819.374 1077.51 821.389 1080 821.389C1082.49 821.389 1084.5 819.374 1084.5 816.889H1075.5ZM1084.5 837.333C1084.5 834.848 1082.49 832.833 1080 832.833C1077.51 832.833 1075.5 834.848 1075.5 837.333H1084.5ZM1075.5 857.778C1075.5 860.263 1077.51 862.278 1080 862.278C1082.49 862.278 1084.5 860.263 1084.5 857.778H1075.5ZM1084.5 878.222C1084.5 875.737 1082.49 873.722 1080 873.722C1077.51 873.722 1075.5 875.737 1075.5 878.222H1084.5ZM1075.5 898.667C1075.5 901.152 1077.51 903.167 1080 903.167C1082.49 903.167 1084.5 901.152 1084.5 898.667H1075.5ZM1084.5 919.111C1084.5 916.626 1082.49 914.611 1080 914.611C1077.51 914.611 1075.5 916.626 1075.5 919.111H1084.5ZM1075.5 939.556C1075.5 942.041 1077.51 944.056 1080 944.056C1082.49 944.056 1084.5 942.041 1084.5 939.556H1075.5ZM1084.5 960C1084.5 957.515 1082.49 955.5 1080 955.5C1077.51 955.5 1075.5 957.515 1075.5 960H1084.5ZM1075.5 980.445C1075.5 982.93 1077.51 984.945 1080 984.945C1082.49 984.945 1084.5 982.93 1084.5 980.445H1075.5ZM1084.5 1000.89C1084.5 998.404 1082.49 996.389 1080 996.389C1077.51 996.389 1075.5 998.404 1075.5 1000.89H1084.5ZM1075.5 1021.33C1075.5 1023.82 1077.51 1025.83 1080 1025.83C1082.49 1025.83 1084.5 1023.82 1084.5 1021.33H1075.5ZM1084.5 1041.78C1084.5 1039.29 1082.49 1037.28 1080 1037.28C1077.51 1037.28 1075.5 1039.29 1075.5 1041.78H1084.5ZM1075.5 316V326.222H1084.5V316H1075.5ZM1075.5 346.667V367.111H1084.5V346.667H1075.5ZM1075.5 387.556V408H1084.5V387.556H1075.5ZM1075.5 428.444V448.889H1084.5V428.444H1075.5ZM1075.5 469.333V489.778H1084.5V469.333H1075.5ZM1075.5 510.222V530.667H1084.5V510.222H1075.5ZM1075.5 551.111V571.556H1084.5V551.111H1075.5ZM1075.5 592V612.444H1084.5V592H1075.5ZM1075.5 632.889V653.333H1084.5V632.889H1075.5ZM1075.5 673.778V694.222H1084.5V673.778H1075.5ZM1075.5 714.667V735.111H1084.5V714.667H1075.5ZM1075.5 755.556V776H1084.5V755.556H1075.5ZM1075.5 796.445V816.889H1084.5V796.445H1075.5ZM1075.5 837.333V857.778H1084.5V837.333H1075.5ZM1075.5 878.222V898.667H1084.5V878.222H1075.5ZM1075.5 919.111V939.556H1084.5V919.111H1075.5ZM1075.5 960V980.445H1084.5V960H1075.5ZM1075.5 1000.89V1021.33H1084.5V1000.89H1075.5ZM1075.5 1041.78V1052H1084.5V1041.78H1075.5Z" fill="#AFADAD"/>
<path d="M1756 290.019L1730.02 316L1756 341.981L1781.98 316L1756 290.019ZM1756 1077.98L1781.98 1052L1756 1026.02L1730.02 1052L1756 1077.98ZM1751.5 326.222C1751.5 328.708 1753.51 330.722 1756 330.722C1758.49 330.722 1760.5 328.708 1760.5 326.222H1751.5ZM1760.5 346.667C1760.5 344.181 1758.49 342.167 1756 342.167C1753.51 342.167 1751.5 344.181 1751.5 346.667H1760.5ZM1751.5 367.111C1751.5 369.596 1753.51 371.611 1756 371.611C1758.49 371.611 1760.5 369.596 1760.5 367.111H1751.5ZM1760.5 387.556C1760.5 385.07 1758.49 383.056 1756 383.056C1753.51 383.056 1751.5 385.07 1751.5 387.556H1760.5ZM1751.5 408C1751.5 410.485 1753.51 412.5 1756 412.5C1758.49 412.5 1760.5 410.485 1760.5 408H1751.5ZM1760.5 428.444C1760.5 425.959 1758.49 423.944 1756 423.944C1753.51 423.944 1751.5 425.959 1751.5 428.444H1760.5ZM1751.5 448.889C1751.5 451.374 1753.51 453.389 1756 453.389C1758.49 453.389 1760.5 451.374 1760.5 448.889H1751.5ZM1760.5 469.333C1760.5 466.848 1758.49 464.833 1756 464.833C1753.51 464.833 1751.5 466.848 1751.5 469.333H1760.5ZM1751.5 489.778C1751.5 492.263 1753.51 494.278 1756 494.278C1758.49 494.278 1760.5 492.263 1760.5 489.778H1751.5ZM1760.5 510.222C1760.5 507.737 1758.49 505.722 1756 505.722C1753.51 505.722 1751.5 507.737 1751.5 510.222H1760.5ZM1751.5 530.667C1751.5 533.152 1753.51 535.167 1756 535.167C1758.49 535.167 1760.5 533.152 1760.5 530.667H1751.5ZM1760.5 551.111C1760.5 548.626 1758.49 546.611 1756 546.611C1753.51 546.611 1751.5 548.626 1751.5 551.111H1760.5ZM1751.5 571.556C1751.5 574.041 1753.51 576.056 1756 576.056C1758.49 576.056 1760.5 574.041 1760.5 571.556H1751.5ZM1760.5 592C1760.5 589.515 1758.49 587.5 1756 587.5C1753.51 587.5 1751.5 589.515 1751.5 592H1760.5ZM1751.5 612.444C1751.5 614.93 1753.51 616.944 1756 616.944C1758.49 616.944 1760.5 614.93 1760.5 612.444H1751.5ZM1760.5 632.889C1760.5 630.404 1758.49 628.389 1756 628.389C1753.51 628.389 1751.5 630.404 1751.5 632.889H1760.5ZM1751.5 653.333C1751.5 655.819 1753.51 657.833 1756 657.833C1758.49 657.833 1760.5 655.819 1760.5 653.333H1751.5ZM1760.5 673.778C1760.5 671.293 1758.49 669.278 1756 669.278C1753.51 669.278 1751.5 671.293 1751.5 673.778H1760.5ZM1751.5 694.222C1751.5 696.708 1753.51 698.722 1756 698.722C1758.49 698.722 1760.5 696.708 1760.5 694.222H1751.5ZM1760.5 714.667C1760.5 712.181 1758.49 710.167 1756 710.167C1753.51 710.167 1751.5 712.181 1751.5 714.667H1760.5ZM1751.5 735.111C1751.5 737.597 1753.51 739.611 1756 739.611C1758.49 739.611 1760.5 737.597 1760.5 735.111H1751.5ZM1760.5 755.556C1760.5 753.07 1758.49 751.056 1756 751.056C1753.51 751.056 1751.5 753.07 1751.5 755.556H1760.5ZM1751.5 776C1751.5 778.485 1753.51 780.5 1756 780.5C1758.49 780.5 1760.5 778.485 1760.5 776H1751.5ZM1760.5 796.445C1760.5 793.959 1758.49 791.945 1756 791.945C1753.51 791.945 1751.5 793.959 1751.5 796.445H1760.5ZM1751.5 816.889C1751.5 819.374 1753.51 821.389 1756 821.389C1758.49 821.389 1760.5 819.374 1760.5 816.889H1751.5ZM1760.5 837.333C1760.5 834.848 1758.49 832.833 1756 832.833C1753.51 832.833 1751.5 834.848 1751.5 837.333H1760.5ZM1751.5 857.778C1751.5 860.263 1753.51 862.278 1756 862.278C1758.49 862.278 1760.5 860.263 1760.5 857.778H1751.5ZM1760.5 878.222C1760.5 875.737 1758.49 873.722 1756 873.722C1753.51 873.722 1751.5 875.737 1751.5 878.222H1760.5ZM1751.5 898.667C1751.5 901.152 1753.51 903.167 1756 903.167C1758.49 903.167 1760.5 901.152 1760.5 898.667H1751.5ZM1760.5 919.111C1760.5 916.626 1758.49 914.611 1756 914.611C1753.51 914.611 1751.5 916.626 1751.5 919.111H1760.5ZM1751.5 939.556C1751.5 942.041 1753.51 944.056 1756 944.056C1758.49 944.056 1760.5 942.041 1760.5 939.556H1751.5ZM1760.5 960C1760.5 957.515 1758.49 955.5 1756 955.5C1753.51 955.5 1751.5 957.515 1751.5 960H1760.5ZM1751.5 980.445C1751.5 982.93 1753.51 984.945 1756 984.945C1758.49 984.945 1760.5 982.93 1760.5 980.445H1751.5ZM1760.5 1000.89C1760.5 998.404 1758.49 996.389 1756 996.389C1753.51 996.389 1751.5 998.404 1751.5 1000.89H1760.5ZM1751.5 1021.33C1751.5 1023.82 1753.51 1025.83 1756 1025.83C1758.49 1025.83 1760.5 1023.82 1760.5 1021.33H1751.5ZM1760.5 1041.78C1760.5 1039.29 1758.49 1037.28 1756 1037.28C1753.51 1037.28 1751.5 1039.29 1751.5 1041.78H1760.5ZM1751.5 316V326.222H1760.5V316H1751.5ZM1751.5 346.667V367.111H1760.5V346.667H1751.5ZM1751.5 387.556V408H1760.5V387.556H1751.5ZM1751.5 428.444V448.889H1760.5V428.444H1751.5ZM1751.5 469.333V489.778H1760.5V469.333H1751.5ZM1751.5 510.222V530.667H1760.5V510.222H1751.5ZM1751.5 551.111V571.556H1760.5V551.111H1751.5ZM1751.5 592V612.444H1760.5V592H1751.5ZM1751.5 632.889V653.333H1760.5V632.889H1751.5ZM1751.5 673.778V694.222H1760.5V673.778H1751.5ZM1751.5 714.667V735.111H1760.5V714.667H1751.5ZM1751.5 755.556V776H1760.5V755.556H1751.5ZM1751.5 796.445V816.889H1760.5V796.445H1751.5ZM1751.5 837.333V857.778H1760.5V837.333H1751.5ZM1751.5 878.222V898.667H1760.5V878.222H1751.5ZM1751.5 919.111V939.556H1760.5V919.111H1751.5ZM1751.5 960V980.445H1760.5V960H1751.5ZM1751.5 1000.89V1021.33H1760.5V1000.89H1751.5ZM1751.5 1041.78V1052H1760.5V1041.78H1751.5Z" fill="#AFADAD"/>
<line y1="-5" x2="352.881" y2="-5" transform="matrix(-0.869982 -0.493084 -0.493084 0.869982 2066 858)" stroke="#FF73B4" stroke-width="10"/>
<line y1="-5" x2="352.881" y2="-5" transform="matrix(-0.798635 0.601815 0.601815 0.798635 1759 684)" stroke="#FF73B4" stroke-width="10"/>
<line y1="-5" x2="340.27" y2="-5" transform="matrix(-0.323272 -0.946306 -0.946306 0.323272 1477 891)" stroke="#FF73B4" stroke-width="10"/>
<line y1="-5" x2="461.091" y2="-5" transform="matrix(-0.253746 0.967271 0.967271 0.253746 1374 569)" stroke="#FF73B4" stroke-width="10"/>
<line y1="-5" x2="352.881" y2="-5" transform="matrix(-0.869982 -0.493084 -0.493084 0.869982 1257 1015)" stroke="#FF73B4" stroke-width="10"/>
<line y1="-5" x2="220.465" y2="-5" transform="matrix(-0.920779 -0.390084 -0.390084 0.920779 950 841)" stroke="#FF73B4" stroke-width="10"/>
<line y1="-5" x2="220.465" y2="-5" transform="matrix(-0.920779 -0.390084 -0.390084 0.920779 950 841)" stroke="#FF73B4" stroke-width="10"/>
<line y1="-5" x2="142.664" y2="-5" transform="matrix(-0.897213 -0.441597 -0.441597 0.897213 269 424)" stroke="#FF73B4" stroke-width="10"/>
<line y1="-5" x2="477.896" y2="-5" transform="matrix(-0.299228 -0.954182 -0.954182 0.299228 747 755)" stroke="#FF73B4" stroke-width="10"/>
<line y1="-5" x2="362.25" y2="-5" transform="matrix(-0.938579 0.345066 0.345066 0.938579 609 299)" stroke="#FF73B4" stroke-width="10"/>
</svg>
