<svg width="2160" height="1284" viewBox="0 0 2160 1284" fill="none" xmlns="http://www.w3.org/2000/svg">
<rect width="2160" height="1284" rx="20" fill="#191D26"/>
<path d="M137.05 102.07L134.71 111.7C133.51 111.28 132.16 110.92 130.66 110.62C129.16 110.26 127.6 109.96 125.98 109.72C124.42 109.48 122.83 109.3 121.21 109.18C119.59 109.06 118.06 109 116.62 109C112.66 109 109.54 109.63 107.26 110.89C105.04 112.09 103.93 113.92 103.93 116.38C103.93 117.58 104.23 118.66 104.83 119.62C105.49 120.52 106.48 121.39 107.8 122.23C109.12 123.07 110.86 123.88 113.02 124.66C115.24 125.44 117.88 126.25 120.94 127.09C124.18 127.99 127 129.04 129.4 130.24C131.8 131.38 133.78 132.67 135.34 134.11C136.96 135.55 138.13 137.23 138.85 139.15C139.63 141.01 140.02 143.17 140.02 145.63C140.02 149.53 138.97 152.83 136.87 155.53C134.83 158.23 131.8 160.3 127.78 161.74C123.82 163.18 118.96 163.9 113.2 163.9C111.34 163.9 109.36 163.81 107.26 163.63C105.16 163.45 103.03 163.21 100.87 162.91C98.77 162.55 96.73 162.13 94.75 161.65C92.77 161.17 91 160.63 89.44 160.03L91.87 150.49C93.49 151.03 95.23 151.54 97.09 152.02C98.95 152.44 100.84 152.83 102.76 153.19C104.68 153.49 106.6 153.73 108.52 153.91C110.44 154.09 112.24 154.18 113.92 154.18C116.86 154.18 119.32 153.91 121.3 153.37C123.28 152.77 124.75 151.9 125.71 150.76C126.73 149.62 127.24 148.24 127.24 146.62C127.24 145.36 126.85 144.25 126.07 143.29C125.29 142.33 124.12 141.49 122.56 140.77C121 139.99 118.99 139.18 116.53 138.34C114.13 137.5 111.31 136.57 108.07 135.55C105.19 134.53 102.67 133.45 100.51 132.31C98.41 131.17 96.67 129.88 95.29 128.44C93.91 126.94 92.86 125.26 92.14 123.4C91.48 121.54 91.15 119.44 91.15 117.1C91.15 114.46 91.66 112.06 92.68 109.9C93.7 107.68 95.23 105.76 97.27 104.14C99.37 102.52 102.01 101.29 105.19 100.45C108.43 99.55 112.21 99.1 116.53 99.1C119.11 99.1 121.66 99.25 124.18 99.55C126.76 99.79 129.16 100.15 131.38 100.63C133.66 101.05 135.55 101.53 137.05 102.07ZM168.513 163.9C164.853 163.9 161.613 163.45 158.793 162.55C155.973 161.59 153.573 160.15 151.593 158.23C149.673 156.25 148.203 153.76 147.183 150.76C146.223 147.7 145.743 144.07 145.743 139.87C145.743 135.01 146.313 130.9 147.453 127.54C148.653 124.12 150.333 121.39 152.493 119.35C154.653 117.25 157.173 115.75 160.053 114.85C162.933 113.89 166.083 113.41 169.503 113.41C176.283 113.41 181.263 115.12 184.443 118.54C187.683 121.96 189.303 127.54 189.303 135.28C189.303 135.82 189.303 136.51 189.303 137.35C189.303 138.19 189.243 139 189.123 139.78C187.743 139.9 185.973 140.05 183.813 140.23C181.653 140.41 179.223 140.59 176.523 140.77C173.823 140.95 170.913 141.1 167.793 141.22C164.673 141.34 161.463 141.46 158.163 141.58C158.103 141.76 158.073 141.97 158.073 142.21C158.073 142.45 158.073 142.69 158.073 142.93C158.073 145.69 158.523 147.91 159.423 149.59C160.383 151.21 161.793 152.44 163.653 153.28C165.513 154.06 167.853 154.45 170.673 154.45C172.473 154.45 174.303 154.36 176.163 154.18C178.083 153.94 179.973 153.67 181.833 153.37C183.753 153.01 185.613 152.62 187.413 152.2L188.853 161.02C186.933 161.62 184.893 162.16 182.733 162.64C180.573 163.06 178.323 163.36 175.983 163.54C173.643 163.78 171.153 163.9 168.513 163.9ZM158.253 133.84C160.353 133.84 162.363 133.81 164.283 133.75C166.263 133.63 168.123 133.54 169.863 133.48C171.603 133.36 173.103 133.27 174.363 133.21C175.623 133.09 176.613 133 177.333 132.94C177.273 130.3 176.913 128.17 176.253 126.55C175.653 124.93 174.693 123.76 173.373 123.04C172.113 122.32 170.523 121.96 168.603 121.96C167.403 121.96 166.233 122.14 165.093 122.5C163.953 122.86 162.903 123.49 161.943 124.39C160.983 125.29 160.173 126.49 159.513 127.99C158.913 129.49 158.493 131.44 158.253 133.84ZM208.554 114.31V120.07C210.234 118.51 211.794 117.25 213.234 116.29C214.734 115.27 216.234 114.55 217.734 114.13C219.294 113.65 220.914 113.41 222.594 113.41C223.674 113.41 224.754 113.5 225.834 113.68C226.974 113.8 228.084 114.04 229.164 114.4L227.274 125.2C226.194 124.96 225.084 124.78 223.944 124.66C222.864 124.48 221.844 124.39 220.884 124.39C219.144 124.39 217.344 124.72 215.484 125.38C213.624 126.04 211.674 127.18 209.634 128.8V163H197.664V114.31H208.554ZM249.063 163L231.693 114.49L244.383 114.13L256.173 152.29L267.513 114.13L280.113 114.49L262.563 163H249.063ZM305.334 163.9C301.674 163.9 298.434 163.45 295.614 162.55C292.794 161.59 290.394 160.15 288.414 158.23C286.494 156.25 285.024 153.76 284.004 150.76C283.044 147.7 282.564 144.07 282.564 139.87C282.564 135.01 283.134 130.9 284.274 127.54C285.474 124.12 287.154 121.39 289.314 119.35C291.474 117.25 293.994 115.75 296.874 114.85C299.754 113.89 302.904 113.41 306.324 113.41C313.104 113.41 318.084 115.12 321.264 118.54C324.504 121.96 326.124 127.54 326.124 135.28C326.124 135.82 326.124 136.51 326.124 137.35C326.124 138.19 326.064 139 325.944 139.78C324.564 139.9 322.794 140.05 320.634 140.23C318.474 140.41 316.044 140.59 313.344 140.77C310.644 140.95 307.734 141.1 304.614 141.22C301.494 141.34 298.284 141.46 294.984 141.58C294.924 141.76 294.894 141.97 294.894 142.21C294.894 142.45 294.894 142.69 294.894 142.93C294.894 145.69 295.344 147.91 296.244 149.59C297.204 151.21 298.614 152.44 300.474 153.28C302.334 154.06 304.674 154.45 307.494 154.45C309.294 154.45 311.124 154.36 312.984 154.18C314.904 153.94 316.794 153.67 318.654 153.37C320.574 153.01 322.434 152.62 324.234 152.2L325.674 161.02C323.754 161.62 321.714 162.16 319.554 162.64C317.394 163.06 315.144 163.36 312.804 163.54C310.464 163.78 307.974 163.9 305.334 163.9ZM295.074 133.84C297.174 133.84 299.184 133.81 301.104 133.75C303.084 133.63 304.944 133.54 306.684 133.48C308.424 133.36 309.924 133.27 311.184 133.21C312.444 133.09 313.434 133 314.154 132.94C314.094 130.3 313.734 128.17 313.074 126.55C312.474 124.93 311.514 123.76 310.194 123.04C308.934 122.32 307.344 121.96 305.424 121.96C304.224 121.96 303.054 122.14 301.914 122.5C300.774 122.86 299.724 123.49 298.764 124.39C297.804 125.29 296.994 126.49 296.334 127.99C295.734 129.49 295.314 131.44 295.074 133.84ZM345.375 114.31V120.07C347.055 118.51 348.615 117.25 350.055 116.29C351.555 115.27 353.055 114.55 354.555 114.13C356.115 113.65 357.735 113.41 359.415 113.41C360.495 113.41 361.575 113.5 362.655 113.68C363.795 113.8 364.905 114.04 365.985 114.4L364.095 125.2C363.015 124.96 361.905 124.78 360.765 124.66C359.685 124.48 358.665 124.39 357.705 124.39C355.965 124.39 354.165 124.72 352.305 125.38C350.445 126.04 348.495 127.18 346.455 128.8V163H334.485V114.31H345.375ZM408.811 96.4V147.25C408.811 148.99 408.991 150.34 409.351 151.3C409.771 152.2 410.311 152.8 410.971 153.1C411.691 153.4 412.471 153.55 413.311 153.55C413.911 153.55 414.571 153.49 415.291 153.37C416.011 153.25 416.791 153.07 417.631 152.83L418.711 162.01C417.511 162.55 416.161 163 414.661 163.36C413.161 163.72 411.541 163.9 409.801 163.9C407.041 163.9 404.671 163.42 402.691 162.46C400.771 161.5 399.301 159.88 398.281 157.6C397.321 155.32 396.841 152.23 396.841 148.33V96.4H408.811ZM421.691 138.61C421.691 134.47 422.051 130.84 422.771 127.72C423.551 124.6 424.781 121.99 426.461 119.89C428.201 117.79 430.541 116.2 433.481 115.12C436.421 113.98 440.051 113.41 444.371 113.41C448.751 113.41 452.381 113.98 455.261 115.12C458.201 116.2 460.541 117.79 462.281 119.89C464.021 121.99 465.251 124.6 465.971 127.72C466.751 130.84 467.141 134.47 467.141 138.61C467.141 142.75 466.721 146.41 465.881 149.59C465.101 152.77 463.811 155.41 462.011 157.51C460.211 159.61 457.871 161.2 454.991 162.28C452.111 163.36 448.571 163.9 444.371 163.9C440.231 163.9 436.691 163.36 433.751 162.28C430.871 161.2 428.531 159.61 426.731 157.51C424.991 155.41 423.701 152.77 422.861 149.59C422.081 146.41 421.691 142.75 421.691 138.61ZM433.931 138.61C433.931 142.63 434.291 145.84 435.011 148.24C435.731 150.58 436.871 152.26 438.431 153.28C439.991 154.3 441.971 154.81 444.371 154.81C446.891 154.81 448.901 154.3 450.401 153.28C451.961 152.26 453.071 150.58 453.731 148.24C454.451 145.84 454.811 142.63 454.811 138.61C454.811 134.59 454.481 131.41 453.821 129.07C453.221 126.73 452.141 125.05 450.581 124.03C449.081 123.01 447.011 122.5 444.371 122.5C441.791 122.5 439.721 123.01 438.161 124.03C436.661 125.05 435.581 126.73 434.921 129.07C434.261 131.41 433.931 134.59 433.931 138.61ZM472.147 150.31C472.147 147.31 472.717 144.88 473.857 143.02C474.997 141.1 476.737 139.6 479.077 138.52C481.477 137.38 484.447 136.51 487.987 135.91C491.587 135.25 495.787 134.74 500.587 134.38V129.88C500.587 127.72 499.777 126.13 498.157 125.11C496.537 124.03 494.197 123.49 491.137 123.49C489.877 123.49 488.467 123.55 486.907 123.67C485.347 123.79 483.727 124 482.047 124.3C480.367 124.6 478.657 125.02 476.917 125.56L474.847 116.02C477.547 115.24 480.397 114.61 483.397 114.13C486.457 113.65 489.307 113.41 491.947 113.41C496.687 113.41 500.587 114.04 503.647 115.3C506.707 116.5 508.957 118.33 510.397 120.79C511.897 123.19 512.647 126.19 512.647 129.79V149.23C512.647 150.91 512.887 152.05 513.367 152.65C513.847 153.25 514.447 153.55 515.167 153.55C515.467 153.55 515.827 153.52 516.247 153.46C516.667 153.4 517.057 153.28 517.417 153.1L518.407 161.83C517.387 162.43 516.217 162.91 514.897 163.27C513.577 163.69 512.167 163.9 510.667 163.9C508.267 163.9 506.347 163.42 504.907 162.46C503.467 161.44 502.417 159.91 501.757 157.87C500.257 159.01 498.667 160.06 496.987 161.02C495.307 161.92 493.507 162.61 491.587 163.09C489.667 163.63 487.537 163.9 485.197 163.9C483.217 163.9 481.447 163.6 479.887 163C478.327 162.4 476.947 161.53 475.747 160.39C474.607 159.19 473.707 157.75 473.047 156.07C472.447 154.39 472.147 152.47 472.147 150.31ZM484.297 149.5C484.297 151.6 484.777 153.19 485.737 154.27C486.757 155.29 488.107 155.8 489.787 155.8C491.047 155.8 492.307 155.59 493.567 155.17C494.887 154.75 496.147 154.21 497.347 153.55C498.607 152.83 499.687 151.99 500.587 151.03V141.04C498.007 141.16 495.697 141.4 493.657 141.76C491.677 142.12 489.967 142.6 488.527 143.2C487.147 143.8 486.097 144.61 485.377 145.63C484.657 146.65 484.297 147.94 484.297 149.5ZM554.693 163.09L553.253 159.13C550.733 160.75 548.243 161.95 545.783 162.73C543.383 163.51 540.863 163.9 538.223 163.9C532.943 163.9 528.863 161.83 525.983 157.69C523.163 153.49 521.753 147.46 521.753 139.6C521.753 133.6 522.563 128.68 524.183 124.84C525.803 121 528.293 118.15 531.653 116.29C535.073 114.37 539.363 113.41 544.523 113.41C545.903 113.41 547.313 113.47 548.753 113.59C550.253 113.71 551.723 113.92 553.163 114.22V96.4H565.223V163.09H554.693ZM553.163 150.58V123.31C551.663 122.89 550.283 122.62 549.023 122.5C547.763 122.32 546.563 122.23 545.423 122.23C542.843 122.23 540.713 122.74 539.033 123.76C537.413 124.78 536.183 126.49 535.343 128.89C534.563 131.29 534.173 134.5 534.173 138.52C534.173 142.06 534.503 144.97 535.163 147.25C535.883 149.53 536.873 151.21 538.133 152.29C539.453 153.37 541.043 153.91 542.903 153.91C543.983 153.91 545.063 153.79 546.143 153.55C547.223 153.31 548.333 152.95 549.473 152.47C550.613 151.99 551.843 151.36 553.163 150.58Z" fill="white"/>
<path d="M194.2 1165.36C196.333 1163.55 198.147 1161.97 199.64 1160.64C201.16 1159.31 202.4 1158.15 203.36 1157.16C204.347 1156.17 205.107 1155.29 205.64 1154.52C206.2 1153.72 206.587 1153 206.8 1152.36C207.013 1151.69 207.12 1151 207.12 1150.28C207.12 1149.35 206.92 1148.56 206.52 1147.92C206.147 1147.25 205.6 1146.75 204.88 1146.4C204.16 1146.05 203.267 1145.88 202.2 1145.88C201.24 1145.88 200.213 1146.04 199.12 1146.36C198.053 1146.65 196.973 1147.12 195.88 1147.76L194.2 1143.24C195.08 1142.65 196.013 1142.17 197 1141.8C198.013 1141.4 199.067 1141.11 200.16 1140.92C201.28 1140.71 202.387 1140.6 203.48 1140.6C205.48 1140.6 207.173 1140.96 208.56 1141.68C209.973 1142.4 211.053 1143.4 211.8 1144.68C212.547 1145.96 212.92 1147.45 212.92 1149.16C212.92 1150.01 212.84 1150.81 212.68 1151.56C212.547 1152.31 212.267 1153.09 211.84 1153.92C211.413 1154.72 210.787 1155.63 209.96 1156.64C209.16 1157.63 208.093 1158.77 206.76 1160.08C205.427 1161.39 203.787 1162.91 201.84 1164.64H215.04V1169H194.32L194.2 1165.36ZM218.481 1155C218.481 1152.23 218.748 1149.92 219.281 1148.08C219.814 1146.21 220.588 1144.73 221.601 1143.64C222.614 1142.55 223.814 1141.77 225.201 1141.32C226.588 1140.84 228.134 1140.6 229.841 1140.6C231.574 1140.6 233.134 1140.84 234.521 1141.32C235.934 1141.77 237.134 1142.56 238.121 1143.68C239.108 1144.77 239.868 1146.24 240.401 1148.08C240.934 1149.92 241.201 1152.23 241.201 1155C241.201 1157.75 240.921 1160.05 240.361 1161.92C239.801 1163.76 239.014 1165.23 238.001 1166.32C237.014 1167.41 235.828 1168.2 234.441 1168.68C233.054 1169.16 231.521 1169.4 229.841 1169.4C228.134 1169.4 226.588 1169.17 225.201 1168.72C223.814 1168.24 222.614 1167.45 221.601 1166.36C220.614 1165.24 219.841 1163.76 219.281 1161.92C218.748 1160.05 218.481 1157.75 218.481 1155ZM223.921 1155.16C223.921 1157.24 224.068 1158.95 224.361 1160.28C224.654 1161.59 225.068 1162.6 225.601 1163.32C226.134 1164.01 226.761 1164.51 227.481 1164.8C228.201 1165.07 228.988 1165.2 229.841 1165.2C230.668 1165.2 231.441 1165.07 232.161 1164.8C232.881 1164.51 233.508 1164.01 234.041 1163.32C234.574 1162.6 234.988 1161.59 235.281 1160.28C235.574 1158.95 235.721 1157.24 235.721 1155.16C235.721 1153 235.574 1151.24 235.281 1149.88C234.988 1148.52 234.561 1147.47 234.001 1146.72C233.468 1145.97 232.841 1145.47 232.121 1145.2C231.428 1144.93 230.668 1144.8 229.841 1144.8C228.988 1144.8 228.201 1144.93 227.481 1145.2C226.788 1145.47 226.161 1145.97 225.601 1146.72C225.068 1147.47 224.654 1148.52 224.361 1149.88C224.068 1151.24 223.921 1153 223.921 1155.16ZM244.883 1165.36C247.016 1163.55 248.829 1161.97 250.323 1160.64C251.843 1159.31 253.083 1158.15 254.043 1157.16C255.029 1156.17 255.789 1155.29 256.323 1154.52C256.883 1153.72 257.269 1153 257.483 1152.36C257.696 1151.69 257.803 1151 257.803 1150.28C257.803 1149.35 257.603 1148.56 257.203 1147.92C256.829 1147.25 256.283 1146.75 255.563 1146.4C254.843 1146.05 253.949 1145.88 252.883 1145.88C251.923 1145.88 250.896 1146.04 249.803 1146.36C248.736 1146.65 247.656 1147.12 246.563 1147.76L244.883 1143.24C245.763 1142.65 246.696 1142.17 247.683 1141.8C248.696 1141.4 249.749 1141.11 250.843 1140.92C251.963 1140.71 253.069 1140.6 254.163 1140.6C256.163 1140.6 257.856 1140.96 259.243 1141.68C260.656 1142.4 261.736 1143.4 262.483 1144.68C263.229 1145.96 263.603 1147.45 263.603 1149.16C263.603 1150.01 263.523 1150.81 263.363 1151.56C263.229 1152.31 262.949 1153.09 262.523 1153.92C262.096 1154.72 261.469 1155.63 260.643 1156.64C259.843 1157.63 258.776 1158.77 257.443 1160.08C256.109 1161.39 254.469 1162.91 252.523 1164.64H265.723V1169H245.003L244.883 1165.36ZM270.244 1165.36C272.377 1163.55 274.19 1161.97 275.684 1160.64C277.204 1159.31 278.444 1158.15 279.404 1157.16C280.39 1156.17 281.15 1155.29 281.684 1154.52C282.244 1153.72 282.63 1153 282.844 1152.36C283.057 1151.69 283.164 1151 283.164 1150.28C283.164 1149.35 282.964 1148.56 282.564 1147.92C282.19 1147.25 281.644 1146.75 280.924 1146.4C280.204 1146.05 279.31 1145.88 278.244 1145.88C277.284 1145.88 276.257 1146.04 275.164 1146.36C274.097 1146.65 273.017 1147.12 271.924 1147.76L270.244 1143.24C271.124 1142.65 272.057 1142.17 273.044 1141.8C274.057 1141.4 275.11 1141.11 276.204 1140.92C277.324 1140.71 278.43 1140.6 279.524 1140.6C281.524 1140.6 283.217 1140.96 284.604 1141.68C286.017 1142.4 287.097 1143.4 287.844 1144.68C288.59 1145.96 288.964 1147.45 288.964 1149.16C288.964 1150.01 288.884 1150.81 288.724 1151.56C288.59 1152.31 288.31 1153.09 287.884 1153.92C287.457 1154.72 286.83 1155.63 286.004 1156.64C285.204 1157.63 284.137 1158.77 282.804 1160.08C281.47 1161.39 279.83 1162.91 277.884 1164.64H291.084V1169H270.364L270.244 1165.36Z" fill="white"/>
<path d="M1035.2 1165.36C1037.33 1163.55 1039.15 1161.97 1040.64 1160.64C1042.16 1159.31 1043.4 1158.15 1044.36 1157.16C1045.35 1156.17 1046.11 1155.29 1046.64 1154.52C1047.2 1153.72 1047.59 1153 1047.8 1152.36C1048.01 1151.69 1048.12 1151 1048.12 1150.28C1048.12 1149.35 1047.92 1148.56 1047.52 1147.92C1047.15 1147.25 1046.6 1146.75 1045.88 1146.4C1045.16 1146.05 1044.27 1145.88 1043.2 1145.88C1042.24 1145.88 1041.21 1146.04 1040.12 1146.36C1039.05 1146.65 1037.97 1147.12 1036.88 1147.76L1035.2 1143.24C1036.08 1142.65 1037.01 1142.17 1038 1141.8C1039.01 1141.4 1040.07 1141.11 1041.16 1140.92C1042.28 1140.71 1043.39 1140.6 1044.48 1140.6C1046.48 1140.6 1048.17 1140.96 1049.56 1141.68C1050.97 1142.4 1052.05 1143.4 1052.8 1144.68C1053.55 1145.96 1053.92 1147.45 1053.92 1149.16C1053.92 1150.01 1053.84 1150.81 1053.68 1151.56C1053.55 1152.31 1053.27 1153.09 1052.84 1153.92C1052.41 1154.72 1051.79 1155.63 1050.96 1156.64C1050.16 1157.63 1049.09 1158.77 1047.76 1160.08C1046.43 1161.39 1044.79 1162.91 1042.84 1164.64H1056.04V1169H1035.32L1035.2 1165.36ZM1059.48 1155C1059.48 1152.23 1059.75 1149.92 1060.28 1148.08C1060.81 1146.21 1061.59 1144.73 1062.6 1143.64C1063.61 1142.55 1064.81 1141.77 1066.2 1141.32C1067.59 1140.84 1069.13 1140.6 1070.84 1140.6C1072.57 1140.6 1074.13 1140.84 1075.52 1141.32C1076.93 1141.77 1078.13 1142.56 1079.12 1143.68C1080.11 1144.77 1080.87 1146.24 1081.4 1148.08C1081.93 1149.92 1082.2 1152.23 1082.2 1155C1082.2 1157.75 1081.92 1160.05 1081.36 1161.92C1080.8 1163.76 1080.01 1165.23 1079 1166.32C1078.01 1167.41 1076.83 1168.2 1075.44 1168.68C1074.05 1169.16 1072.52 1169.4 1070.84 1169.4C1069.13 1169.4 1067.59 1169.17 1066.2 1168.72C1064.81 1168.24 1063.61 1167.45 1062.6 1166.36C1061.61 1165.24 1060.84 1163.76 1060.28 1161.92C1059.75 1160.05 1059.48 1157.75 1059.48 1155ZM1064.92 1155.16C1064.92 1157.24 1065.07 1158.95 1065.36 1160.28C1065.65 1161.59 1066.07 1162.6 1066.6 1163.32C1067.13 1164.01 1067.76 1164.51 1068.48 1164.8C1069.2 1165.07 1069.99 1165.2 1070.84 1165.2C1071.67 1165.2 1072.44 1165.07 1073.16 1164.8C1073.88 1164.51 1074.51 1164.01 1075.04 1163.32C1075.57 1162.6 1075.99 1161.59 1076.28 1160.28C1076.57 1158.95 1076.72 1157.24 1076.72 1155.16C1076.72 1153 1076.57 1151.24 1076.28 1149.88C1075.99 1148.52 1075.56 1147.47 1075 1146.72C1074.47 1145.97 1073.84 1145.47 1073.12 1145.2C1072.43 1144.93 1071.67 1144.8 1070.84 1144.8C1069.99 1144.8 1069.2 1144.93 1068.48 1145.2C1067.79 1145.47 1067.16 1145.97 1066.6 1146.72C1066.07 1147.47 1065.65 1148.52 1065.36 1149.88C1065.07 1151.24 1064.92 1153 1064.92 1155.16ZM1085.88 1165.36C1088.02 1163.55 1089.83 1161.97 1091.32 1160.64C1092.84 1159.31 1094.08 1158.15 1095.04 1157.16C1096.03 1156.17 1096.79 1155.29 1097.32 1154.52C1097.88 1153.72 1098.27 1153 1098.48 1152.36C1098.7 1151.69 1098.8 1151 1098.8 1150.28C1098.8 1149.35 1098.6 1148.56 1098.2 1147.92C1097.83 1147.25 1097.28 1146.75 1096.56 1146.4C1095.84 1146.05 1094.95 1145.88 1093.88 1145.88C1092.92 1145.88 1091.9 1146.04 1090.8 1146.36C1089.74 1146.65 1088.66 1147.12 1087.56 1147.76L1085.88 1143.24C1086.76 1142.65 1087.7 1142.17 1088.68 1141.8C1089.7 1141.4 1090.75 1141.11 1091.84 1140.92C1092.96 1140.71 1094.07 1140.6 1095.16 1140.6C1097.16 1140.6 1098.86 1140.96 1100.24 1141.68C1101.66 1142.4 1102.74 1143.4 1103.48 1144.68C1104.23 1145.96 1104.6 1147.45 1104.6 1149.16C1104.6 1150.01 1104.52 1150.81 1104.36 1151.56C1104.23 1152.31 1103.95 1153.09 1103.52 1153.92C1103.1 1154.72 1102.47 1155.63 1101.64 1156.64C1100.84 1157.63 1099.78 1158.77 1098.44 1160.08C1097.11 1161.39 1095.47 1162.91 1093.52 1164.64H1106.72V1169H1086L1085.88 1165.36ZM1110.32 1167.12L1111.8 1163.28C1112.58 1163.63 1113.38 1163.92 1114.2 1164.16C1115.03 1164.4 1115.91 1164.59 1116.84 1164.72C1117.78 1164.85 1118.76 1164.92 1119.8 1164.92C1121.22 1164.92 1122.4 1164.76 1123.36 1164.44C1124.32 1164.09 1125.03 1163.59 1125.48 1162.92C1125.96 1162.23 1126.2 1161.4 1126.2 1160.44C1126.2 1159.13 1125.67 1158.17 1124.6 1157.56C1123.54 1156.95 1121.96 1156.64 1119.88 1156.64H1115.84V1152.68H1120.32C1121.42 1152.68 1122.34 1152.53 1123.08 1152.24C1123.86 1151.95 1124.42 1151.52 1124.76 1150.96C1125.14 1150.4 1125.32 1149.76 1125.32 1149.04C1125.32 1147.87 1124.82 1146.96 1123.8 1146.32C1122.82 1145.65 1121.43 1145.32 1119.64 1145.32C1118.5 1145.32 1117.31 1145.44 1116.08 1145.68C1114.88 1145.89 1113.67 1146.29 1112.44 1146.88L1111.16 1142.68C1111.94 1142.25 1112.82 1141.88 1113.8 1141.56C1114.79 1141.24 1115.84 1141 1116.96 1140.84C1118.11 1140.68 1119.34 1140.6 1120.64 1140.6C1122.7 1140.6 1124.46 1140.89 1125.92 1141.48C1127.42 1142.07 1128.58 1142.91 1129.4 1144C1130.23 1145.07 1130.64 1146.36 1130.64 1147.88C1130.64 1149.35 1130.27 1150.64 1129.52 1151.76C1128.78 1152.85 1127.7 1153.67 1126.28 1154.2C1128.04 1154.65 1129.38 1155.45 1130.28 1156.6C1131.22 1157.75 1131.68 1159.15 1131.68 1160.8C1131.68 1162.61 1131.22 1164.16 1130.28 1165.44C1129.38 1166.72 1128.07 1167.71 1126.36 1168.4C1124.68 1169.07 1122.64 1169.4 1120.24 1169.4C1118.88 1169.4 1117.63 1169.32 1116.48 1169.16C1115.34 1169 1114.27 1168.76 1113.28 1168.44C1112.32 1168.09 1111.34 1167.65 1110.32 1167.12Z" fill="white"/>
<path d="M1705.7 1165.36C1707.83 1163.55 1709.64 1161.97 1711.14 1160.64C1712.66 1159.31 1713.9 1158.15 1714.86 1157.16C1715.84 1156.17 1716.6 1155.29 1717.14 1154.52C1717.7 1153.72 1718.08 1153 1718.3 1152.36C1718.51 1151.69 1718.62 1151 1718.62 1150.28C1718.62 1149.35 1718.42 1148.56 1718.02 1147.92C1717.64 1147.25 1717.1 1146.75 1716.38 1146.4C1715.66 1146.05 1714.76 1145.88 1713.7 1145.88C1712.74 1145.88 1711.71 1146.04 1710.62 1146.36C1709.55 1146.65 1708.47 1147.12 1707.38 1147.76L1705.7 1143.24C1706.58 1142.65 1707.51 1142.17 1708.5 1141.8C1709.51 1141.4 1710.56 1141.11 1711.66 1140.92C1712.78 1140.71 1713.88 1140.6 1714.98 1140.6C1716.98 1140.6 1718.67 1140.96 1720.06 1141.68C1721.47 1142.4 1722.55 1143.4 1723.3 1144.68C1724.04 1145.96 1724.42 1147.45 1724.42 1149.16C1724.42 1150.01 1724.34 1150.81 1724.18 1151.56C1724.04 1152.31 1723.76 1153.09 1723.34 1153.92C1722.91 1154.72 1722.28 1155.63 1721.46 1156.64C1720.66 1157.63 1719.59 1158.77 1718.26 1160.08C1716.92 1161.39 1715.28 1162.91 1713.34 1164.64H1726.54V1169H1705.82L1705.7 1165.36ZM1729.98 1155C1729.98 1152.23 1730.25 1149.92 1730.78 1148.08C1731.31 1146.21 1732.09 1144.73 1733.1 1143.64C1734.11 1142.55 1735.31 1141.77 1736.7 1141.32C1738.09 1140.84 1739.63 1140.6 1741.34 1140.6C1743.07 1140.6 1744.63 1140.84 1746.02 1141.32C1747.43 1141.77 1748.63 1142.56 1749.62 1143.68C1750.61 1144.77 1751.37 1146.24 1751.9 1148.08C1752.43 1149.92 1752.7 1152.23 1752.7 1155C1752.7 1157.75 1752.42 1160.05 1751.86 1161.92C1751.3 1163.76 1750.51 1165.23 1749.5 1166.32C1748.51 1167.41 1747.33 1168.2 1745.94 1168.68C1744.55 1169.16 1743.02 1169.4 1741.34 1169.4C1739.63 1169.4 1738.09 1169.17 1736.7 1168.72C1735.31 1168.24 1734.11 1167.45 1733.1 1166.36C1732.11 1165.24 1731.34 1163.76 1730.78 1161.92C1730.25 1160.05 1729.98 1157.75 1729.98 1155ZM1735.42 1155.16C1735.42 1157.24 1735.57 1158.95 1735.86 1160.28C1736.15 1161.59 1736.57 1162.6 1737.1 1163.32C1737.63 1164.01 1738.26 1164.51 1738.98 1164.8C1739.7 1165.07 1740.49 1165.2 1741.34 1165.2C1742.17 1165.2 1742.94 1165.07 1743.66 1164.8C1744.38 1164.51 1745.01 1164.01 1745.54 1163.32C1746.07 1162.6 1746.49 1161.59 1746.78 1160.28C1747.07 1158.95 1747.22 1157.24 1747.22 1155.16C1747.22 1153 1747.07 1151.24 1746.78 1149.88C1746.49 1148.52 1746.06 1147.47 1745.5 1146.72C1744.97 1145.97 1744.34 1145.47 1743.62 1145.2C1742.93 1144.93 1742.17 1144.8 1741.34 1144.8C1740.49 1144.8 1739.7 1144.93 1738.98 1145.2C1738.29 1145.47 1737.66 1145.97 1737.1 1146.72C1736.57 1147.47 1736.15 1148.52 1735.86 1149.88C1735.57 1151.24 1735.42 1153 1735.42 1155.16ZM1756.38 1165.36C1758.51 1163.55 1760.33 1161.97 1761.82 1160.64C1763.34 1159.31 1764.58 1158.15 1765.54 1157.16C1766.53 1156.17 1767.29 1155.29 1767.82 1154.52C1768.38 1153.72 1768.77 1153 1768.98 1152.36C1769.19 1151.69 1769.3 1151 1769.3 1150.28C1769.3 1149.35 1769.1 1148.56 1768.7 1147.92C1768.33 1147.25 1767.78 1146.75 1767.06 1146.4C1766.34 1146.05 1765.45 1145.88 1764.38 1145.88C1763.42 1145.88 1762.39 1146.04 1761.3 1146.36C1760.23 1146.65 1759.15 1147.12 1758.06 1147.76L1756.38 1143.24C1757.26 1142.65 1758.19 1142.17 1759.18 1141.8C1760.19 1141.4 1761.25 1141.11 1762.34 1140.92C1763.46 1140.71 1764.57 1140.6 1765.66 1140.6C1767.66 1140.6 1769.35 1140.96 1770.74 1141.68C1772.15 1142.4 1773.23 1143.4 1773.98 1144.68C1774.73 1145.96 1775.1 1147.45 1775.1 1149.16C1775.1 1150.01 1775.02 1150.81 1774.86 1151.56C1774.73 1152.31 1774.45 1153.09 1774.02 1153.92C1773.59 1154.72 1772.97 1155.63 1772.14 1156.64C1771.34 1157.63 1770.27 1158.77 1768.94 1160.08C1767.61 1161.39 1765.97 1162.91 1764.02 1164.64H1777.22V1169H1756.5L1756.38 1165.36ZM1780.42 1163.68L1780.34 1159.72L1794.5 1140.88L1799.26 1141V1159.48H1803.42V1163.68H1799.26V1169H1793.62V1163.68H1780.42ZM1785.1 1159.48H1793.74V1148.08L1785.1 1159.48Z" fill="white"/>
<path d="M236 290.019L210.019 316L236 341.981L261.981 316L236 290.019ZM236 1077.98L261.981 1052L236 1026.02L210.019 1052L236 1077.98ZM231.5 326.222C231.5 328.708 233.515 330.722 236 330.722C238.485 330.722 240.5 328.708 240.5 326.222H231.5ZM240.5 346.667C240.5 344.181 238.485 342.167 236 342.167C233.515 342.167 231.5 344.181 231.5 346.667H240.5ZM231.5 367.111C231.5 369.596 233.515 371.611 236 371.611C238.485 371.611 240.5 369.596 240.5 367.111H231.5ZM240.5 387.556C240.5 385.07 238.485 383.056 236 383.056C233.515 383.056 231.5 385.07 231.5 387.556H240.5ZM231.5 408C231.5 410.485 233.515 412.5 236 412.5C238.485 412.5 240.5 410.485 240.5 408H231.5ZM240.5 428.444C240.5 425.959 238.485 423.944 236 423.944C233.515 423.944 231.5 425.959 231.5 428.444H240.5ZM231.5 448.889C231.5 451.374 233.515 453.389 236 453.389C238.485 453.389 240.5 451.374 240.5 448.889H231.5ZM240.5 469.333C240.5 466.848 238.485 464.833 236 464.833C233.515 464.833 231.5 466.848 231.5 469.333H240.5ZM231.5 489.778C231.5 492.263 233.515 494.278 236 494.278C238.485 494.278 240.5 492.263 240.5 489.778H231.5ZM240.5 510.222C240.5 507.737 238.485 505.722 236 505.722C233.515 505.722 231.5 507.737 231.5 510.222H240.5ZM231.5 530.667C231.5 533.152 233.515 535.167 236 535.167C238.485 535.167 240.5 533.152 240.5 530.667H231.5ZM240.5 551.111C240.5 548.626 238.485 546.611 236 546.611C233.515 546.611 231.5 548.626 231.5 551.111H240.5ZM231.5 571.556C231.5 574.041 233.515 576.056 236 576.056C238.485 576.056 240.5 574.041 240.5 571.556H231.5ZM240.5 592C240.5 589.515 238.485 587.5 236 587.5C233.515 587.5 231.5 589.515 231.5 592H240.5ZM231.5 612.444C231.5 614.93 233.515 616.944 236 616.944C238.485 616.944 240.5 614.93 240.5 612.444H231.5ZM240.5 632.889C240.5 630.404 238.485 628.389 236 628.389C233.515 628.389 231.5 630.404 231.5 632.889H240.5ZM231.5 653.333C231.5 655.819 233.515 657.833 236 657.833C238.485 657.833 240.5 655.819 240.5 653.333H231.5ZM240.5 673.778C240.5 671.293 238.485 669.278 236 669.278C233.515 669.278 231.5 671.293 231.5 673.778H240.5ZM231.5 694.222C231.5 696.708 233.515 698.722 236 698.722C238.485 698.722 240.5 696.708 240.5 694.222H231.5ZM240.5 714.667C240.5 712.181 238.485 710.167 236 710.167C233.515 710.167 231.5 712.181 231.5 714.667H240.5ZM231.5 735.111C231.5 737.597 233.515 739.611 236 739.611C238.485 739.611 240.5 737.597 240.5 735.111H231.5ZM240.5 755.556C240.5 753.07 238.485 751.056 236 751.056C233.515 751.056 231.5 753.07 231.5 755.556H240.5ZM231.5 776C231.5 778.485 233.515 780.5 236 780.5C238.485 780.5 240.5 778.485 240.5 776H231.5ZM240.5 796.445C240.5 793.959 238.485 791.945 236 791.945C233.515 791.945 231.5 793.959 231.5 796.445H240.5ZM231.5 816.889C231.5 819.374 233.515 821.389 236 821.389C238.485 821.389 240.5 819.374 240.5 816.889H231.5ZM240.5 837.333C240.5 834.848 238.485 832.833 236 832.833C233.515 832.833 231.5 834.848 231.5 837.333H240.5ZM231.5 857.778C231.5 860.263 233.515 862.278 236 862.278C238.485 862.278 240.5 860.263 240.5 857.778H231.5ZM240.5 878.222C240.5 875.737 238.485 873.722 236 873.722C233.515 873.722 231.5 875.737 231.5 878.222H240.5ZM231.5 898.667C231.5 901.152 233.515 903.167 236 903.167C238.485 903.167 240.5 901.152 240.5 898.667H231.5ZM240.5 919.111C240.5 916.626 238.485 914.611 236 914.611C233.515 914.611 231.5 916.626 231.5 919.111H240.5ZM231.5 939.556C231.5 942.041 233.515 944.056 236 944.056C238.485 944.056 240.5 942.041 240.5 939.556H231.5ZM240.5 960C240.5 957.515 238.485 955.5 236 955.5C233.515 955.5 231.5 957.515 231.5 960H240.5ZM231.5 980.445C231.5 982.93 233.515 984.945 236 984.945C238.485 984.945 240.5 982.93 240.5 980.445H231.5ZM240.5 1000.89C240.5 998.404 238.485 996.389 236 996.389C233.515 996.389 231.5 998.404 231.5 1000.89H240.5ZM231.5 1021.33C231.5 1023.82 233.515 1025.83 236 1025.83C238.485 1025.83 240.5 1023.82 240.5 1021.33H231.5ZM240.5 1041.78C240.5 1039.29 238.485 1037.28 236 1037.28C233.515 1037.28 231.5 1039.29 231.5 1041.78H240.5ZM231.5 316V326.222H240.5V316H231.5ZM231.5 346.667V367.111H240.5V346.667H231.5ZM231.5 387.556V408H240.5V387.556H231.5ZM231.5 428.444V448.889H240.5V428.444H231.5ZM231.5 469.333V489.778H240.5V469.333H231.5ZM231.5 510.222V530.667H240.5V510.222H231.5ZM231.5 551.111L231.5 571.556H240.5L240.5 551.111H231.5ZM231.5 592V612.444H240.5V592H231.5ZM231.5 632.889V653.333H240.5V632.889H231.5ZM231.5 673.778V694.222H240.5V673.778H231.5ZM231.5 714.667V735.111H240.5V714.667H231.5ZM231.5 755.556V776H240.5V755.556H231.5ZM231.5 796.445V816.889H240.5V796.445H231.5ZM231.5 837.333V857.778H240.5V837.333H231.5ZM231.5 878.222V898.667H240.5V878.222H231.5ZM231.5 919.111V939.556H240.5V919.111H231.5ZM231.5 960V980.445H240.5V960H231.5ZM231.5 1000.89L231.5 1021.33H240.5L240.5 1000.89H231.5ZM231.5 1041.78V1052H240.5V1041.78H231.5Z" fill="#AFADAD"/>
<path d="M1080 290.019L1054.02 316L1080 341.981L1105.98 316L1080 290.019ZM1080 1077.98L1105.98 1052L1080 1026.02L1054.02 1052L1080 1077.98ZM1075.5 326.222C1075.5 328.708 1077.51 330.722 1080 330.722C1082.49 330.722 1084.5 328.708 1084.5 326.222H1075.5ZM1084.5 346.667C1084.5 344.181 1082.49 342.167 1080 342.167C1077.51 342.167 1075.5 344.181 1075.5 346.667H1084.5ZM1075.5 367.111C1075.5 369.596 1077.51 371.611 1080 371.611C1082.49 371.611 1084.5 369.596 1084.5 367.111H1075.5ZM1084.5 387.556C1084.5 385.07 1082.49 383.056 1080 383.056C1077.51 383.056 1075.5 385.07 1075.5 387.556H1084.5ZM1075.5 408C1075.5 410.485 1077.51 412.5 1080 412.5C1082.49 412.5 1084.5 410.485 1084.5 408H1075.5ZM1084.5 428.444C1084.5 425.959 1082.49 423.944 1080 423.944C1077.51 423.944 1075.5 425.959 1075.5 428.444H1084.5ZM1075.5 448.889C1075.5 451.374 1077.51 453.389 1080 453.389C1082.49 453.389 1084.5 451.374 1084.5 448.889H1075.5ZM1084.5 469.333C1084.5 466.848 1082.49 464.833 1080 464.833C1077.51 464.833 1075.5 466.848 1075.5 469.333H1084.5ZM1075.5 489.778C1075.5 492.263 1077.51 494.278 1080 494.278C1082.49 494.278 1084.5 492.263 1084.5 489.778H1075.5ZM1084.5 510.222C1084.5 507.737 1082.49 505.722 1080 505.722C1077.51 505.722 1075.5 507.737 1075.5 510.222H1084.5ZM1075.5 530.667C1075.5 533.152 1077.51 535.167 1080 535.167C1082.49 535.167 1084.5 533.152 1084.5 530.667H1075.5ZM1084.5 551.111C1084.5 548.626 1082.49 546.611 1080 546.611C1077.51 546.611 1075.5 548.626 1075.5 551.111H1084.5ZM1075.5 571.556C1075.5 574.041 1077.51 576.056 1080 576.056C1082.49 576.056 1084.5 574.041 1084.5 571.556H1075.5ZM1084.5 592C1084.5 589.515 1082.49 587.5 1080 587.5C1077.51 587.5 1075.5 589.515 1075.5 592H1084.5ZM1075.5 612.444C1075.5 614.93 1077.51 616.944 1080 616.944C1082.49 616.944 1084.5 614.93 1084.5 612.444H1075.5ZM1084.5 632.889C1084.5 630.404 1082.49 628.389 1080 628.389C1077.51 628.389 1075.5 630.404 1075.5 632.889H1084.5ZM1075.5 653.333C1075.5 655.819 1077.51 657.833 1080 657.833C1082.49 657.833 1084.5 655.819 1084.5 653.333H1075.5ZM1084.5 673.778C1084.5 671.293 1082.49 669.278 1080 669.278C1077.51 669.278 1075.5 671.293 1075.5 673.778H1084.5ZM1075.5 694.222C1075.5 696.708 1077.51 698.722 1080 698.722C1082.49 698.722 1084.5 696.708 1084.5 694.222H1075.5ZM1084.5 714.667C1084.5 712.181 1082.49 710.167 1080 710.167C1077.51 710.167 1075.5 712.181 1075.5 714.667H1084.5ZM1075.5 735.111C1075.5 737.597 1077.51 739.611 1080 739.611C1082.49 739.611 1084.5 737.597 1084.5 735.111H1075.5ZM1084.5 755.556C1084.5 753.07 1082.49 751.056 1080 751.056C1077.51 751.056 1075.5 753.07 1075.5 755.556H1084.5ZM1075.5 776C1075.5 778.485 1077.51 780.5 1080 780.5C1082.49 780.5 1084.5 778.485 1084.5 776H1075.5ZM1084.5 796.445C1084.5 793.959 1082.49 791.945 1080 791.945C1077.51 791.945 1075.5 793.959 1075.5 796.445H1084.5ZM1075.5 816.889C1075.5 819.374 1077.51 821.389 1080 821.389C1082.49 821.389 1084.5 819.374 1084.5 816.889H1075.5ZM1084.5 837.333C1084.5 834.848 1082.49 832.833 1080 832.833C1077.51 832.833 1075.5 834.848 1075.5 837.333H1084.5ZM1075.5 857.778C1075.5 860.263 1077.51 862.278 1080 862.278C1082.49 862.278 1084.5 860.263 1084.5 857.778H1075.5ZM1084.5 878.222C1084.5 875.737 1082.49 873.722 1080 873.722C1077.51 873.722 1075.5 875.737 1075.5 878.222H1084.5ZM1075.5 898.667C1075.5 901.152 1077.51 903.167 1080 903.167C1082.49 903.167 1084.5 901.152 1084.5 898.667H1075.5ZM1084.5 919.111C1084.5 916.626 1082.49 914.611 1080 914.611C1077.51 914.611 1075.5 916.626 1075.5 919.111H1084.5ZM1075.5 939.556C1075.5 942.041 1077.51 944.056 1080 944.056C1082.49 944.056 1084.5 942.041 1084.5 939.556H1075.5ZM1084.5 960C1084.5 957.515 1082.49 955.5 1080 955.5C1077.51 955.5 1075.5 957.515 1075.5 960H1084.5ZM1075.5 980.445C1075.5 982.93 1077.51 984.945 1080 984.945C1082.49 984.945 1084.5 982.93 1084.5 980.445H1075.5ZM1084.5 1000.89C1084.5 998.404 1082.49 996.389 1080 996.389C1077.51 996.389 1075.5 998.404 1075.5 1000.89H1084.5ZM1075.5 1021.33C1075.5 1023.82 1077.51 1025.83 1080 1025.83C1082.49 1025.83 1084.5 1023.82 1084.5 1021.33H1075.5ZM1084.5 1041.78C1084.5 1039.29 1082.49 1037.28 1080 1037.28C1077.51 1037.28 1075.5 1039.29 1075.5 1041.78H1084.5ZM1075.5 316V326.222H1084.5V316H1075.5ZM1075.5 346.667V367.111H1084.5V346.667H1075.5ZM1075.5 387.556V408H1084.5V387.556H1075.5ZM1075.5 428.444V448.889H1084.5V428.444H1075.5ZM1075.5 469.333V489.778H1084.5V469.333H1075.5ZM1075.5 510.222V530.667H1084.5V510.222H1075.5ZM1075.5 551.111V571.556H1084.5V551.111H1075.5ZM1075.5 592V612.444H1084.5V592H1075.5ZM1075.5 632.889V653.333H1084.5V632.889H1075.5ZM1075.5 673.778V694.222H1084.5V673.778H1075.5ZM1075.5 714.667V735.111H1084.5V714.667H1075.5ZM1075.5 755.556V776H1084.5V755.556H1075.5ZM1075.5 796.445V816.889H1084.5V796.445H1075.5ZM1075.5 837.333V857.778H1084.5V837.333H1075.5ZM1075.5 878.222V898.667H1084.5V878.222H1075.5ZM1075.5 919.111V939.556H1084.5V919.111H1075.5ZM1075.5 960V980.445H1084.5V960H1075.5ZM1075.5 1000.89V1021.33H1084.5V1000.89H1075.5ZM1075.5 1041.78V1052H1084.5V1041.78H1075.5Z" fill="#AFADAD"/>
<path d="M1756 290.019L1730.02 316L1756 341.981L1781.98 316L1756 290.019ZM1756 1077.98L1781.98 1052L1756 1026.02L1730.02 1052L1756 1077.98ZM1751.5 326.222C1751.5 328.708 1753.51 330.722 1756 330.722C1758.49 330.722 1760.5 328.708 1760.5 326.222H1751.5ZM1760.5 346.667C1760.5 344.181 1758.49 342.167 1756 342.167C1753.51 342.167 1751.5 344.181 1751.5 346.667H1760.5ZM1751.5 367.111C1751.5 369.596 1753.51 371.611 1756 371.611C1758.49 371.611 1760.5 369.596 1760.5 367.111H1751.5ZM1760.5 387.556C1760.5 385.07 1758.49 383.056 1756 383.056C1753.51 383.056 1751.5 385.07 1751.5 387.556H1760.5ZM1751.5 408C1751.5 410.485 1753.51 412.5 1756 412.5C1758.49 412.5 1760.5 410.485 1760.5 408H1751.5ZM1760.5 428.444C1760.5 425.959 1758.49 423.944 1756 423.944C1753.51 423.944 1751.5 425.959 1751.5 428.444H1760.5ZM1751.5 448.889C1751.5 451.374 1753.51 453.389 1756 453.389C1758.49 453.389 1760.5 451.374 1760.5 448.889H1751.5ZM1760.5 469.333C1760.5 466.848 1758.49 464.833 1756 464.833C1753.51 464.833 1751.5 466.848 1751.5 469.333H1760.5ZM1751.5 489.778C1751.5 492.263 1753.51 494.278 1756 494.278C1758.49 494.278 1760.5 492.263 1760.5 489.778H1751.5ZM1760.5 510.222C1760.5 507.737 1758.49 505.722 1756 505.722C1753.51 505.722 1751.5 507.737 1751.5 510.222H1760.5ZM1751.5 530.667C1751.5 533.152 1753.51 535.167 1756 535.167C1758.49 535.167 1760.5 533.152 1760.5 530.667H1751.5ZM1760.5 551.111C1760.5 548.626 1758.49 546.611 1756 546.611C1753.51 546.611 1751.5 548.626 1751.5 551.111H1760.5ZM1751.5 571.556C1751.5 574.041 1753.51 576.056 1756 576.056C1758.49 576.056 1760.5 574.041 1760.5 571.556H1751.5ZM1760.5 592C1760.5 589.515 1758.49 587.5 1756 587.5C1753.51 587.5 1751.5 589.515 1751.5 592H1760.5ZM1751.5 612.444C1751.5 614.93 1753.51 616.944 1756 616.944C1758.49 616.944 1760.5 614.93 1760.5 612.444H1751.5ZM1760.5 632.889C1760.5 630.404 1758.49 628.389 1756 628.389C1753.51 628.389 1751.5 630.404 1751.5 632.889H1760.5ZM1751.5 653.333C1751.5 655.819 1753.51 657.833 1756 657.833C1758.49 657.833 1760.5 655.819 1760.5 653.333H1751.5ZM1760.5 673.778C1760.5 671.293 1758.49 669.278 1756 669.278C1753.51 669.278 1751.5 671.293 1751.5 673.778H1760.5ZM1751.5 694.222C1751.5 696.708 1753.51 698.722 1756 698.722C1758.49 698.722 1760.5 696.708 1760.5 694.222H1751.5ZM1760.5 714.667C1760.5 712.181 1758.49 710.167 1756 710.167C1753.51 710.167 1751.5 712.181 1751.5 714.667H1760.5ZM1751.5 735.111C1751.5 737.597 1753.51 739.611 1756 739.611C1758.49 739.611 1760.5 737.597 1760.5 735.111H1751.5ZM1760.5 755.556C1760.5 753.07 1758.49 751.056 1756 751.056C1753.51 751.056 1751.5 753.07 1751.5 755.556H1760.5ZM1751.5 776C1751.5 778.485 1753.51 780.5 1756 780.5C1758.49 780.5 1760.5 778.485 1760.5 776H1751.5ZM1760.5 796.445C1760.5 793.959 1758.49 791.945 1756 791.945C1753.51 791.945 1751.5 793.959 1751.5 796.445H1760.5ZM1751.5 816.889C1751.5 819.374 1753.51 821.389 1756 821.389C1758.49 821.389 1760.5 819.374 1760.5 816.889H1751.5ZM1760.5 837.333C1760.5 834.848 1758.49 832.833 1756 832.833C1753.51 832.833 1751.5 834.848 1751.5 837.333H1760.5ZM1751.5 857.778C1751.5 860.263 1753.51 862.278 1756 862.278C1758.49 862.278 1760.5 860.263 1760.5 857.778H1751.5ZM1760.5 878.222C1760.5 875.737 1758.49 873.722 1756 873.722C1753.51 873.722 1751.5 875.737 1751.5 878.222H1760.5ZM1751.5 898.667C1751.5 901.152 1753.51 903.167 1756 903.167C1758.49 903.167 1760.5 901.152 1760.5 898.667H1751.5ZM1760.5 919.111C1760.5 916.626 1758.49 914.611 1756 914.611C1753.51 914.611 1751.5 916.626 1751.5 919.111H1760.5ZM1751.5 939.556C1751.5 942.041 1753.51 944.056 1756 944.056C1758.49 944.056 1760.5 942.041 1760.5 939.556H1751.5ZM1760.5 960C1760.5 957.515 1758.49 955.5 1756 955.5C1753.51 955.5 1751.5 957.515 1751.5 960H1760.5ZM1751.5 980.445C1751.5 982.93 1753.51 984.945 1756 984.945C1758.49 984.945 1760.5 982.93 1760.5 980.445H1751.5ZM1760.5 1000.89C1760.5 998.404 1758.49 996.389 1756 996.389C1753.51 996.389 1751.5 998.404 1751.5 1000.89H1760.5ZM1751.5 1021.33C1751.5 1023.82 1753.51 1025.83 1756 1025.83C1758.49 1025.83 1760.5 1023.82 1760.5 1021.33H1751.5ZM1760.5 1041.78C1760.5 1039.29 1758.49 1037.28 1756 1037.28C1753.51 1037.28 1751.5 1039.29 1751.5 1041.78H1760.5ZM1751.5 316V326.222H1760.5V316H1751.5ZM1751.5 346.667V367.111H1760.5V346.667H1751.5ZM1751.5 387.556V408H1760.5V387.556H1751.5ZM1751.5 428.444V448.889H1760.5V428.444H1751.5ZM1751.5 469.333V489.778H1760.5V469.333H1751.5ZM1751.5 510.222V530.667H1760.5V510.222H1751.5ZM1751.5 551.111V571.556H1760.5V551.111H1751.5ZM1751.5 592V612.444H1760.5V592H1751.5ZM1751.5 632.889V653.333H1760.5V632.889H1751.5ZM1751.5 673.778V694.222H1760.5V673.778H1751.5ZM1751.5 714.667V735.111H1760.5V714.667H1751.5ZM1751.5 755.556V776H1760.5V755.556H1751.5ZM1751.5 796.445V816.889H1760.5V796.445H1751.5ZM1751.5 837.333V857.778H1760.5V837.333H1751.5ZM1751.5 878.222V898.667H1760.5V878.222H1751.5ZM1751.5 919.111V939.556H1760.5V919.111H1751.5ZM1751.5 960V980.445H1760.5V960H1751.5ZM1751.5 1000.89V1021.33H1760.5V1000.89H1751.5ZM1751.5 1041.78V1052H1760.5V1041.78H1751.5Z" fill="#AFADAD"/>
<line x1="138.535" y1="853.65" x2="445.535" y2="679.65" stroke="#7379FF" stroke-width="10"/>
<line x1="451.009" y1="680.007" x2="732.832" y2="892.376" stroke="#7379FF" stroke-width="10"/>
<line x1="725.268" y1="889.384" x2="835.268" y2="567.384" stroke="#7379FF" stroke-width="10"/>
<line x1="837.836" y1="567.731" x2="954.836" y2="1013.73" stroke="#7379FF" stroke-width="10"/>
<line x1="947.535" y1="1010.65" x2="1254.53" y2="836.65" stroke="#7379FF" stroke-width="10"/>
<line x1="1255.05" y1="836.396" x2="1458.05" y2="750.396" stroke="#7379FF" stroke-width="10"/>
<line x1="1255.05" y1="836.396" x2="1458.05" y2="750.396" stroke="#7379FF" stroke-width="10"/>
<line x1="1935.79" y1="419.514" x2="2063.79" y2="356.514" stroke="#7379FF" stroke-width="10"/>
<line x1="1455.23" y1="753.504" x2="1598.23" y2="297.504" stroke="#7379FF" stroke-width="10"/>
<line x1="1599.73" y1="294.307" x2="1939.73" y2="419.307" stroke="#7379FF" stroke-width="10"/>
</svg>
