<svg width="2160" height="1284" viewBox="0 0 2160 1284" fill="none" xmlns="http://www.w3.org/2000/svg">
<rect width="2160" height="1284" rx="20" fill="#191D26"/>
<path d="M144.7 163.9C142.96 163.9 141.25 163.63 139.57 163.09C137.89 162.55 136.18 161.71 134.44 160.57C132.7 159.37 130.93 157.87 129.13 156.07C127.33 154.21 125.44 152.02 123.46 149.5C121.48 146.92 119.41 144.01 117.25 140.77C116.83 140.83 116.17 140.86 115.27 140.86C114.43 140.86 113.8 140.86 113.38 140.86C112.24 140.86 111.01 140.86 109.69 140.86C108.43 140.86 107.17 140.83 105.91 140.77V163H93.49V99.91C96.73 99.73 99.67 99.58 102.31 99.46C105.01 99.34 107.5 99.25 109.78 99.19C112.12 99.13 114.31 99.1 116.35 99.1C121.21 99.1 125.35 99.46 128.77 100.18C132.19 100.84 134.98 101.95 137.14 103.51C139.3 105.01 140.86 106.99 141.82 109.45C142.84 111.91 143.35 114.85 143.35 118.27C143.35 121.87 142.78 124.96 141.64 127.54C140.56 130.06 139 132.13 136.96 133.75C134.92 135.37 132.49 136.66 129.67 137.62C131.47 140.02 133.15 142.12 134.71 143.92C136.33 145.66 137.8 147.13 139.12 148.33C140.5 149.47 141.76 150.34 142.9 150.94C144.04 151.54 145.15 151.84 146.23 151.84C146.41 151.84 146.62 151.84 146.86 151.84C147.16 151.78 147.43 151.75 147.67 151.75V163.63C147.31 163.69 146.89 163.75 146.41 163.81C145.93 163.87 145.36 163.9 144.7 163.9ZM115.99 130.96C118.45 130.96 120.58 130.78 122.38 130.42C124.24 130 125.77 129.37 126.97 128.53C128.17 127.69 129.07 126.58 129.67 125.2C130.27 123.76 130.57 121.99 130.57 119.89C130.57 117.25 130.15 115.15 129.31 113.59C128.47 111.97 127.03 110.8 124.99 110.08C122.95 109.36 120.16 109 116.62 109C115.6 109 114.7 109 113.92 109C113.14 109 112.36 109.03 111.58 109.09C110.86 109.09 110.05 109.12 109.15 109.18C108.25 109.18 107.17 109.24 105.91 109.36V130.69C106.93 130.75 107.86 130.81 108.7 130.87C109.54 130.87 110.35 130.9 111.13 130.96C111.97 130.96 112.75 130.96 113.47 130.96C114.25 130.96 115.09 130.96 115.99 130.96ZM174.314 163.9C170.654 163.9 167.414 163.45 164.594 162.55C161.774 161.59 159.374 160.15 157.394 158.23C155.474 156.25 154.004 153.76 152.984 150.76C152.024 147.7 151.544 144.07 151.544 139.87C151.544 135.01 152.114 130.9 153.254 127.54C154.454 124.12 156.134 121.39 158.294 119.35C160.454 117.25 162.974 115.75 165.854 114.85C168.734 113.89 171.884 113.41 175.304 113.41C182.084 113.41 187.064 115.12 190.244 118.54C193.484 121.96 195.104 127.54 195.104 135.28C195.104 135.82 195.104 136.51 195.104 137.35C195.104 138.19 195.044 139 194.924 139.78C193.544 139.9 191.774 140.05 189.614 140.23C187.454 140.41 185.024 140.59 182.324 140.77C179.624 140.95 176.714 141.1 173.594 141.22C170.474 141.34 167.264 141.46 163.964 141.58C163.904 141.76 163.874 141.97 163.874 142.21C163.874 142.45 163.874 142.69 163.874 142.93C163.874 145.69 164.324 147.91 165.224 149.59C166.184 151.21 167.594 152.44 169.454 153.28C171.314 154.06 173.654 154.45 176.474 154.45C178.274 154.45 180.104 154.36 181.964 154.18C183.884 153.94 185.774 153.67 187.634 153.37C189.554 153.01 191.414 152.62 193.214 152.2L194.654 161.02C192.734 161.62 190.694 162.16 188.534 162.64C186.374 163.06 184.124 163.36 181.784 163.54C179.444 163.78 176.954 163.9 174.314 163.9ZM164.054 133.84C166.154 133.84 168.164 133.81 170.084 133.75C172.064 133.63 173.924 133.54 175.664 133.48C177.404 133.36 178.904 133.27 180.164 133.21C181.424 133.09 182.414 133 183.134 132.94C183.074 130.3 182.714 128.17 182.054 126.55C181.454 124.93 180.494 123.76 179.174 123.04C177.914 122.32 176.324 121.96 174.404 121.96C173.204 121.96 172.034 122.14 170.894 122.5C169.754 122.86 168.704 123.49 167.744 124.39C166.784 125.29 165.974 126.49 165.314 127.99C164.714 129.49 164.294 131.44 164.054 133.84ZM215.346 96.4V147.25C215.346 148.99 215.526 150.34 215.886 151.3C216.306 152.2 216.846 152.8 217.506 153.1C218.226 153.4 219.006 153.55 219.846 153.55C220.446 153.55 221.106 153.49 221.826 153.37C222.546 153.25 223.326 153.07 224.166 152.83L225.246 162.01C224.046 162.55 222.696 163 221.196 163.36C219.696 163.72 218.076 163.9 216.336 163.9C213.576 163.9 211.206 163.42 209.226 162.46C207.306 161.5 205.836 159.88 204.816 157.6C203.856 155.32 203.376 152.23 203.376 148.33V96.4H215.346ZM250.996 163.9C247.336 163.9 244.096 163.45 241.276 162.55C238.456 161.59 236.056 160.15 234.076 158.23C232.156 156.25 230.686 153.76 229.666 150.76C228.706 147.7 228.226 144.07 228.226 139.87C228.226 135.01 228.796 130.9 229.936 127.54C231.136 124.12 232.816 121.39 234.976 119.35C237.136 117.25 239.656 115.75 242.536 114.85C245.416 113.89 248.566 113.41 251.986 113.41C258.766 113.41 263.746 115.12 266.926 118.54C270.166 121.96 271.786 127.54 271.786 135.28C271.786 135.82 271.786 136.51 271.786 137.35C271.786 138.19 271.726 139 271.606 139.78C270.226 139.9 268.456 140.05 266.296 140.23C264.136 140.41 261.706 140.59 259.006 140.77C256.306 140.95 253.396 141.1 250.276 141.22C247.156 141.34 243.946 141.46 240.646 141.58C240.586 141.76 240.556 141.97 240.556 142.21C240.556 142.45 240.556 142.69 240.556 142.93C240.556 145.69 241.006 147.91 241.906 149.59C242.866 151.21 244.276 152.44 246.136 153.28C247.996 154.06 250.336 154.45 253.156 154.45C254.956 154.45 256.786 154.36 258.646 154.18C260.566 153.94 262.456 153.67 264.316 153.37C266.236 153.01 268.096 152.62 269.896 152.2L271.336 161.02C269.416 161.62 267.376 162.16 265.216 162.64C263.056 163.06 260.806 163.36 258.466 163.54C256.126 163.78 253.636 163.9 250.996 163.9ZM240.736 133.84C242.836 133.84 244.846 133.81 246.766 133.75C248.746 133.63 250.606 133.54 252.346 133.48C254.086 133.36 255.586 133.27 256.846 133.21C258.106 133.09 259.096 133 259.816 132.94C259.756 130.3 259.396 128.17 258.736 126.55C258.136 124.93 257.176 123.76 255.856 123.04C254.596 122.32 253.006 121.96 251.086 121.96C249.886 121.96 248.716 122.14 247.576 122.5C246.436 122.86 245.386 123.49 244.426 124.39C243.466 125.29 242.656 126.49 241.996 127.99C241.396 129.49 240.976 131.44 240.736 133.84ZM292.063 163L274.693 114.49L287.383 114.13L299.173 152.29L310.513 114.13L323.113 114.49L305.563 163H292.063ZM325.021 150.31C325.021 147.31 325.591 144.88 326.731 143.02C327.871 141.1 329.611 139.6 331.951 138.52C334.351 137.38 337.321 136.51 340.861 135.91C344.461 135.25 348.661 134.74 353.461 134.38V129.88C353.461 127.72 352.651 126.13 351.031 125.11C349.411 124.03 347.071 123.49 344.011 123.49C342.751 123.49 341.341 123.55 339.781 123.67C338.221 123.79 336.601 124 334.921 124.3C333.241 124.6 331.531 125.02 329.791 125.56L327.721 116.02C330.421 115.24 333.271 114.61 336.271 114.13C339.331 113.65 342.181 113.41 344.821 113.41C349.561 113.41 353.461 114.04 356.521 115.3C359.581 116.5 361.831 118.33 363.271 120.79C364.771 123.19 365.521 126.19 365.521 129.79V149.23C365.521 150.91 365.761 152.05 366.241 152.65C366.721 153.25 367.321 153.55 368.041 153.55C368.341 153.55 368.701 153.52 369.121 153.46C369.541 153.4 369.931 153.28 370.291 153.1L371.281 161.83C370.261 162.43 369.091 162.91 367.771 163.27C366.451 163.69 365.041 163.9 363.541 163.9C361.141 163.9 359.221 163.42 357.781 162.46C356.341 161.44 355.291 159.91 354.631 157.87C353.131 159.01 351.541 160.06 349.861 161.02C348.181 161.92 346.381 162.61 344.461 163.09C342.541 163.63 340.411 163.9 338.071 163.9C336.091 163.9 334.321 163.6 332.761 163C331.201 162.4 329.821 161.53 328.621 160.39C327.481 159.19 326.581 157.75 325.921 156.07C325.321 154.39 325.021 152.47 325.021 150.31ZM337.171 149.5C337.171 151.6 337.651 153.19 338.611 154.27C339.631 155.29 340.981 155.8 342.661 155.8C343.921 155.8 345.181 155.59 346.441 155.17C347.761 154.75 349.021 154.21 350.221 153.55C351.481 152.83 352.561 151.99 353.461 151.03V141.04C350.881 141.16 348.571 141.4 346.531 141.76C344.551 142.12 342.841 142.6 341.401 143.2C340.021 143.8 338.971 144.61 338.251 145.63C337.531 146.65 337.171 147.94 337.171 149.5ZM377.309 163V114.31H388.199V118.54C390.179 117.4 392.069 116.47 393.869 115.75C395.669 114.97 397.439 114.4 399.179 114.04C400.979 113.62 402.869 113.41 404.849 113.41C407.969 113.41 410.549 113.98 412.589 115.12C414.689 116.2 416.249 117.76 417.269 119.8C418.289 121.84 418.799 124.3 418.799 127.18V163H406.829V130.96C406.829 128.44 406.229 126.58 405.029 125.38C403.889 124.12 402.149 123.49 399.809 123.49C398.609 123.49 397.439 123.64 396.299 123.94C395.159 124.18 394.019 124.51 392.879 124.93C391.739 125.35 390.539 125.89 389.279 126.55V163H377.309ZM446.737 163.9C443.617 163.9 440.977 163.3 438.817 162.1C436.717 160.9 435.127 159.07 434.047 156.61C433.027 154.15 432.517 151 432.517 147.16V123.04H425.047V115.12L432.517 114.31L433.957 103.51H444.487V114.31H458.257V123.13H444.487V146.17C444.487 148.93 444.997 150.88 446.017 152.02C447.037 153.16 448.627 153.73 450.787 153.73C451.987 153.73 453.217 153.64 454.477 153.46C455.737 153.22 457.057 152.92 458.437 152.56L460.057 161.65C457.657 162.49 455.317 163.06 453.037 163.36C450.817 163.72 448.717 163.9 446.737 163.9ZM508.83 163.9C505.71 163.9 503.07 163.3 500.91 162.1C498.81 160.9 497.22 159.07 496.14 156.61C495.12 154.15 494.61 151 494.61 147.16V123.04H487.14V115.12L494.61 114.31L496.05 103.51H506.58V114.31H520.35V123.13H506.58V146.17C506.58 148.93 507.09 150.88 508.11 152.02C509.13 153.16 510.72 153.73 512.88 153.73C514.08 153.73 515.31 153.64 516.57 153.46C517.83 153.22 519.15 152.92 520.53 152.56L522.15 161.65C519.75 162.49 517.41 163.06 515.13 163.36C512.91 163.72 510.81 163.9 508.83 163.9ZM525.43 150.31C525.43 147.31 526 144.88 527.14 143.02C528.28 141.1 530.02 139.6 532.36 138.52C534.76 137.38 537.73 136.51 541.27 135.91C544.87 135.25 549.07 134.74 553.87 134.38V129.88C553.87 127.72 553.06 126.13 551.44 125.11C549.82 124.03 547.48 123.49 544.42 123.49C543.16 123.49 541.75 123.55 540.19 123.67C538.63 123.79 537.01 124 535.33 124.3C533.65 124.6 531.94 125.02 530.2 125.56L528.13 116.02C530.83 115.24 533.68 114.61 536.68 114.13C539.74 113.65 542.59 113.41 545.23 113.41C549.97 113.41 553.87 114.04 556.93 115.3C559.99 116.5 562.24 118.33 563.68 120.79C565.18 123.19 565.93 126.19 565.93 129.79V149.23C565.93 150.91 566.17 152.05 566.65 152.65C567.13 153.25 567.73 153.55 568.45 153.55C568.75 153.55 569.11 153.52 569.53 153.46C569.95 153.4 570.34 153.28 570.7 153.1L571.69 161.83C570.67 162.43 569.5 162.91 568.18 163.27C566.86 163.69 565.45 163.9 563.95 163.9C561.55 163.9 559.63 163.42 558.19 162.46C556.75 161.44 555.7 159.91 555.04 157.87C553.54 159.01 551.95 160.06 550.27 161.02C548.59 161.92 546.79 162.61 544.87 163.09C542.95 163.63 540.82 163.9 538.48 163.9C536.5 163.9 534.73 163.6 533.17 163C531.61 162.4 530.23 161.53 529.03 160.39C527.89 159.19 526.99 157.75 526.33 156.07C525.73 154.39 525.43 152.47 525.43 150.31ZM537.58 149.5C537.58 151.6 538.06 153.19 539.02 154.27C540.04 155.29 541.39 155.8 543.07 155.8C544.33 155.8 545.59 155.59 546.85 155.17C548.17 154.75 549.43 154.21 550.63 153.55C551.89 152.83 552.97 151.99 553.87 151.03V141.04C551.29 141.16 548.98 141.4 546.94 141.76C544.96 142.12 543.25 142.6 541.81 143.2C540.43 143.8 539.38 144.61 538.66 145.63C537.94 146.65 537.58 147.94 537.58 149.5ZM595.811 182.8C588.731 182.8 583.361 181.72 579.701 179.56C576.101 177.46 574.301 174.34 574.301 170.2C574.301 168.52 574.571 166.99 575.111 165.61C575.711 164.29 576.581 163.09 577.721 162.01C578.921 160.87 580.391 159.91 582.131 159.13L588.881 161.47C587.921 161.95 587.081 162.49 586.361 163.09C585.641 163.69 585.101 164.35 584.741 165.07C584.381 165.79 584.201 166.66 584.201 167.68C584.201 169.12 584.621 170.32 585.461 171.28C586.301 172.3 587.651 173.05 589.511 173.53C591.371 174.01 593.771 174.25 596.711 174.25C599.651 174.25 602.141 173.98 604.181 173.44C606.281 172.9 607.871 172.09 608.951 171.01C610.031 169.99 610.571 168.76 610.571 167.32C610.571 166.24 610.331 165.37 609.851 164.71C609.431 164.11 608.621 163.66 607.421 163.36C606.281 163.06 604.721 162.91 602.741 162.91H592.121C588.881 162.91 586.091 162.52 583.751 161.74C581.411 160.9 579.611 159.67 578.351 158.05C577.151 156.43 576.551 154.48 576.551 152.2C576.551 149.74 577.151 147.7 578.351 146.08C579.611 144.4 581.351 142.96 583.571 141.76L590.141 143.83C588.761 144.49 587.681 145.21 586.901 145.99C586.181 146.77 585.821 147.76 585.821 148.96C585.821 150.22 586.301 151.21 587.261 151.93C588.221 152.65 589.751 153.01 591.851 153.01H606.611C611.591 153.01 615.371 154.15 617.951 156.43C620.591 158.65 621.911 161.83 621.911 165.97C621.911 169.51 620.891 172.54 618.851 175.06C616.811 177.58 613.841 179.5 609.941 180.82C606.101 182.14 601.391 182.8 595.811 182.8ZM596.981 145.99C590.441 145.99 585.491 144.61 582.131 141.85C578.771 139.09 577.091 135.04 577.091 129.7C577.091 124.36 578.771 120.31 582.131 117.55C585.491 114.79 590.441 113.41 596.981 113.41C603.521 113.41 608.471 114.79 611.831 117.55C615.251 120.31 616.961 124.36 616.961 129.7C616.961 135.04 615.251 139.09 611.831 141.85C608.471 144.61 603.521 145.99 596.981 145.99ZM596.981 138.16C599.861 138.16 601.991 137.53 603.371 136.27C604.751 134.95 605.441 132.76 605.441 129.7C605.441 126.64 604.751 124.45 603.371 123.13C601.991 121.81 599.861 121.15 596.981 121.15C594.221 121.15 592.121 121.81 590.681 123.13C589.301 124.45 588.611 126.64 588.611 129.7C588.611 132.76 589.301 134.95 590.681 136.27C592.121 137.53 594.221 138.16 596.981 138.16ZM613.271 123.67L608.501 117.37C609.341 115.27 610.601 113.71 612.281 112.69C614.021 111.67 616.091 111.16 618.491 111.16C619.331 111.16 620.111 111.22 620.831 111.34C621.551 111.4 622.211 111.52 622.811 111.7L621.461 120.88C621.041 120.76 620.531 120.67 619.931 120.61C619.391 120.55 618.851 120.52 618.311 120.52C617.231 120.52 616.241 120.76 615.341 121.24C614.501 121.72 613.811 122.53 613.271 123.67ZM625.836 161.11L627.276 152.29C628.356 152.65 629.556 153.01 630.876 153.37C632.196 153.67 633.576 153.94 635.016 154.18C636.516 154.42 637.986 154.6 639.426 154.72C640.866 154.84 642.216 154.9 643.476 154.9C646.356 154.9 648.456 154.48 649.776 153.64C651.096 152.74 651.756 151.42 651.756 149.68C651.756 148.72 651.486 147.91 650.946 147.25C650.466 146.53 649.686 145.93 648.606 145.45C647.586 144.91 646.296 144.43 644.736 144.01C643.236 143.53 641.496 143.05 639.516 142.57C637.416 142.09 635.586 141.46 634.026 140.68C632.466 139.84 631.116 138.85 629.976 137.71C628.896 136.57 628.086 135.25 627.546 133.75C627.066 132.25 626.826 130.54 626.826 128.62C626.826 123.64 628.446 119.86 631.686 117.28C634.926 114.7 639.726 113.41 646.086 113.41C648.066 113.41 649.926 113.53 651.666 113.77C653.406 113.95 655.056 114.22 656.616 114.58C658.236 114.88 659.706 115.27 661.026 115.75L659.496 124.75C658.176 124.33 656.856 123.97 655.536 123.67C654.216 123.37 652.776 123.13 651.216 122.95C649.716 122.77 648.006 122.68 646.086 122.68C643.506 122.68 641.556 123.1 640.236 123.94C638.916 124.72 638.256 125.92 638.256 127.54C638.256 128.5 638.496 129.31 638.976 129.97C639.456 130.57 640.146 131.08 641.046 131.5C641.946 131.92 643.056 132.31 644.376 132.67C645.696 133.03 647.166 133.39 648.786 133.75C651.006 134.29 653.016 134.95 654.816 135.73C656.616 136.45 658.146 137.35 659.406 138.43C660.726 139.51 661.746 140.89 662.466 142.57C663.246 144.19 663.636 146.17 663.636 148.51C663.636 150.73 663.276 152.71 662.556 154.45C661.896 156.13 660.936 157.57 659.676 158.77C658.416 159.97 656.946 160.96 655.266 161.74C653.586 162.46 651.726 163 649.686 163.36C647.646 163.72 645.516 163.9 643.296 163.9C641.136 163.9 639.066 163.78 637.086 163.54C635.106 163.36 633.156 163.06 631.236 162.64C629.376 162.22 627.576 161.71 625.836 161.11Z" fill="white"/>
<path d="M194.2 1165.36C196.333 1163.55 198.147 1161.97 199.64 1160.64C201.16 1159.31 202.4 1158.15 203.36 1157.16C204.347 1156.17 205.107 1155.29 205.64 1154.52C206.2 1153.72 206.587 1153 206.8 1152.36C207.013 1151.69 207.12 1151 207.12 1150.28C207.12 1149.35 206.92 1148.56 206.52 1147.92C206.147 1147.25 205.6 1146.75 204.88 1146.4C204.16 1146.05 203.267 1145.88 202.2 1145.88C201.24 1145.88 200.213 1146.04 199.12 1146.36C198.053 1146.65 196.973 1147.12 195.88 1147.76L194.2 1143.24C195.08 1142.65 196.013 1142.17 197 1141.8C198.013 1141.4 199.067 1141.11 200.16 1140.92C201.28 1140.71 202.387 1140.6 203.48 1140.6C205.48 1140.6 207.173 1140.96 208.56 1141.68C209.973 1142.4 211.053 1143.4 211.8 1144.68C212.547 1145.96 212.92 1147.45 212.92 1149.16C212.92 1150.01 212.84 1150.81 212.68 1151.56C212.547 1152.31 212.267 1153.09 211.84 1153.92C211.413 1154.72 210.787 1155.63 209.96 1156.64C209.16 1157.63 208.093 1158.77 206.76 1160.08C205.427 1161.39 203.787 1162.91 201.84 1164.64H215.04V1169H194.32L194.2 1165.36ZM218.481 1155C218.481 1152.23 218.748 1149.92 219.281 1148.08C219.814 1146.21 220.588 1144.73 221.601 1143.64C222.614 1142.55 223.814 1141.77 225.201 1141.32C226.588 1140.84 228.134 1140.6 229.841 1140.6C231.574 1140.6 233.134 1140.84 234.521 1141.32C235.934 1141.77 237.134 1142.56 238.121 1143.68C239.108 1144.77 239.868 1146.24 240.401 1148.08C240.934 1149.92 241.201 1152.23 241.201 1155C241.201 1157.75 240.921 1160.05 240.361 1161.92C239.801 1163.76 239.014 1165.23 238.001 1166.32C237.014 1167.41 235.828 1168.2 234.441 1168.68C233.054 1169.16 231.521 1169.4 229.841 1169.4C228.134 1169.4 226.588 1169.17 225.201 1168.72C223.814 1168.24 222.614 1167.45 221.601 1166.36C220.614 1165.24 219.841 1163.76 219.281 1161.92C218.748 1160.05 218.481 1157.75 218.481 1155ZM223.921 1155.16C223.921 1157.24 224.068 1158.95 224.361 1160.28C224.654 1161.59 225.068 1162.6 225.601 1163.32C226.134 1164.01 226.761 1164.51 227.481 1164.8C228.201 1165.07 228.988 1165.2 229.841 1165.2C230.668 1165.2 231.441 1165.07 232.161 1164.8C232.881 1164.51 233.508 1164.01 234.041 1163.32C234.574 1162.6 234.988 1161.59 235.281 1160.28C235.574 1158.95 235.721 1157.24 235.721 1155.16C235.721 1153 235.574 1151.24 235.281 1149.88C234.988 1148.52 234.561 1147.47 234.001 1146.72C233.468 1145.97 232.841 1145.47 232.121 1145.2C231.428 1144.93 230.668 1144.8 229.841 1144.8C228.988 1144.8 228.201 1144.93 227.481 1145.2C226.788 1145.47 226.161 1145.97 225.601 1146.72C225.068 1147.47 224.654 1148.52 224.361 1149.88C224.068 1151.24 223.921 1153 223.921 1155.16ZM244.883 1165.36C247.016 1163.55 248.829 1161.97 250.323 1160.64C251.843 1159.31 253.083 1158.15 254.043 1157.16C255.029 1156.17 255.789 1155.29 256.323 1154.52C256.883 1153.72 257.269 1153 257.483 1152.36C257.696 1151.69 257.803 1151 257.803 1150.28C257.803 1149.35 257.603 1148.56 257.203 1147.92C256.829 1147.25 256.283 1146.75 255.563 1146.4C254.843 1146.05 253.949 1145.88 252.883 1145.88C251.923 1145.88 250.896 1146.04 249.803 1146.36C248.736 1146.65 247.656 1147.12 246.563 1147.76L244.883 1143.24C245.763 1142.65 246.696 1142.17 247.683 1141.8C248.696 1141.4 249.749 1141.11 250.843 1140.92C251.963 1140.71 253.069 1140.6 254.163 1140.6C256.163 1140.6 257.856 1140.96 259.243 1141.68C260.656 1142.4 261.736 1143.4 262.483 1144.68C263.229 1145.96 263.603 1147.45 263.603 1149.16C263.603 1150.01 263.523 1150.81 263.363 1151.56C263.229 1152.31 262.949 1153.09 262.523 1153.92C262.096 1154.72 261.469 1155.63 260.643 1156.64C259.843 1157.63 258.776 1158.77 257.443 1160.08C256.109 1161.39 254.469 1162.91 252.523 1164.64H265.723V1169H245.003L244.883 1165.36ZM270.244 1165.36C272.377 1163.55 274.19 1161.97 275.684 1160.64C277.204 1159.31 278.444 1158.15 279.404 1157.16C280.39 1156.17 281.15 1155.29 281.684 1154.52C282.244 1153.72 282.63 1153 282.844 1152.36C283.057 1151.69 283.164 1151 283.164 1150.28C283.164 1149.35 282.964 1148.56 282.564 1147.92C282.19 1147.25 281.644 1146.75 280.924 1146.4C280.204 1146.05 279.31 1145.88 278.244 1145.88C277.284 1145.88 276.257 1146.04 275.164 1146.36C274.097 1146.65 273.017 1147.12 271.924 1147.76L270.244 1143.24C271.124 1142.65 272.057 1142.17 273.044 1141.8C274.057 1141.4 275.11 1141.11 276.204 1140.92C277.324 1140.71 278.43 1140.6 279.524 1140.6C281.524 1140.6 283.217 1140.96 284.604 1141.68C286.017 1142.4 287.097 1143.4 287.844 1144.68C288.59 1145.96 288.964 1147.45 288.964 1149.16C288.964 1150.01 288.884 1150.81 288.724 1151.56C288.59 1152.31 288.31 1153.09 287.884 1153.92C287.457 1154.72 286.83 1155.63 286.004 1156.64C285.204 1157.63 284.137 1158.77 282.804 1160.08C281.47 1161.39 279.83 1162.91 277.884 1164.64H291.084V1169H270.364L270.244 1165.36Z" fill="white"/>
<path d="M1035.2 1165.36C1037.33 1163.55 1039.15 1161.97 1040.64 1160.64C1042.16 1159.31 1043.4 1158.15 1044.36 1157.16C1045.35 1156.17 1046.11 1155.29 1046.64 1154.52C1047.2 1153.72 1047.59 1153 1047.8 1152.36C1048.01 1151.69 1048.12 1151 1048.12 1150.28C1048.12 1149.35 1047.92 1148.56 1047.52 1147.92C1047.15 1147.25 1046.6 1146.75 1045.88 1146.4C1045.16 1146.05 1044.27 1145.88 1043.2 1145.88C1042.24 1145.88 1041.21 1146.04 1040.12 1146.36C1039.05 1146.65 1037.97 1147.12 1036.88 1147.76L1035.2 1143.24C1036.08 1142.65 1037.01 1142.17 1038 1141.8C1039.01 1141.4 1040.07 1141.11 1041.16 1140.92C1042.28 1140.71 1043.39 1140.6 1044.48 1140.6C1046.48 1140.6 1048.17 1140.96 1049.56 1141.68C1050.97 1142.4 1052.05 1143.4 1052.8 1144.68C1053.55 1145.96 1053.92 1147.45 1053.92 1149.16C1053.92 1150.01 1053.84 1150.81 1053.68 1151.56C1053.55 1152.31 1053.27 1153.09 1052.84 1153.92C1052.41 1154.72 1051.79 1155.63 1050.96 1156.64C1050.16 1157.63 1049.09 1158.77 1047.76 1160.08C1046.43 1161.39 1044.79 1162.91 1042.84 1164.64H1056.04V1169H1035.32L1035.2 1165.36ZM1059.48 1155C1059.48 1152.23 1059.75 1149.92 1060.28 1148.08C1060.81 1146.21 1061.59 1144.73 1062.6 1143.64C1063.61 1142.55 1064.81 1141.77 1066.2 1141.32C1067.59 1140.84 1069.13 1140.6 1070.84 1140.6C1072.57 1140.6 1074.13 1140.84 1075.52 1141.32C1076.93 1141.77 1078.13 1142.56 1079.12 1143.68C1080.11 1144.77 1080.87 1146.24 1081.4 1148.08C1081.93 1149.92 1082.2 1152.23 1082.2 1155C1082.2 1157.75 1081.92 1160.05 1081.36 1161.92C1080.8 1163.76 1080.01 1165.23 1079 1166.32C1078.01 1167.41 1076.83 1168.2 1075.44 1168.68C1074.05 1169.16 1072.52 1169.4 1070.84 1169.4C1069.13 1169.4 1067.59 1169.17 1066.2 1168.72C1064.81 1168.24 1063.61 1167.45 1062.6 1166.36C1061.61 1165.24 1060.84 1163.76 1060.28 1161.92C1059.75 1160.05 1059.48 1157.75 1059.48 1155ZM1064.92 1155.16C1064.92 1157.24 1065.07 1158.95 1065.36 1160.28C1065.65 1161.59 1066.07 1162.6 1066.6 1163.32C1067.13 1164.01 1067.76 1164.51 1068.48 1164.8C1069.2 1165.07 1069.99 1165.2 1070.84 1165.2C1071.67 1165.2 1072.44 1165.07 1073.16 1164.8C1073.88 1164.51 1074.51 1164.01 1075.04 1163.32C1075.57 1162.6 1075.99 1161.59 1076.28 1160.28C1076.57 1158.95 1076.72 1157.24 1076.72 1155.16C1076.72 1153 1076.57 1151.24 1076.28 1149.88C1075.99 1148.52 1075.56 1147.47 1075 1146.72C1074.47 1145.97 1073.84 1145.47 1073.12 1145.2C1072.43 1144.93 1071.67 1144.8 1070.84 1144.8C1069.99 1144.8 1069.2 1144.93 1068.48 1145.2C1067.79 1145.47 1067.16 1145.97 1066.6 1146.72C1066.07 1147.47 1065.65 1148.52 1065.36 1149.88C1065.07 1151.24 1064.92 1153 1064.92 1155.16ZM1085.88 1165.36C1088.02 1163.55 1089.83 1161.97 1091.32 1160.64C1092.84 1159.31 1094.08 1158.15 1095.04 1157.16C1096.03 1156.17 1096.79 1155.29 1097.32 1154.52C1097.88 1153.72 1098.27 1153 1098.48 1152.36C1098.7 1151.69 1098.8 1151 1098.8 1150.28C1098.8 1149.35 1098.6 1148.56 1098.2 1147.92C1097.83 1147.25 1097.28 1146.75 1096.56 1146.4C1095.84 1146.05 1094.95 1145.88 1093.88 1145.88C1092.92 1145.88 1091.9 1146.04 1090.8 1146.36C1089.74 1146.65 1088.66 1147.12 1087.56 1147.76L1085.88 1143.24C1086.76 1142.65 1087.7 1142.17 1088.68 1141.8C1089.7 1141.4 1090.75 1141.11 1091.84 1140.92C1092.96 1140.71 1094.07 1140.6 1095.16 1140.6C1097.16 1140.6 1098.86 1140.96 1100.24 1141.68C1101.66 1142.4 1102.74 1143.4 1103.48 1144.68C1104.23 1145.96 1104.6 1147.45 1104.6 1149.16C1104.6 1150.01 1104.52 1150.81 1104.36 1151.56C1104.23 1152.31 1103.95 1153.09 1103.52 1153.92C1103.1 1154.72 1102.47 1155.63 1101.64 1156.64C1100.84 1157.63 1099.78 1158.77 1098.44 1160.08C1097.11 1161.39 1095.47 1162.91 1093.52 1164.64H1106.72V1169H1086L1085.88 1165.36ZM1110.32 1167.12L1111.8 1163.28C1112.58 1163.63 1113.38 1163.92 1114.2 1164.16C1115.03 1164.4 1115.91 1164.59 1116.84 1164.72C1117.78 1164.85 1118.76 1164.92 1119.8 1164.92C1121.22 1164.92 1122.4 1164.76 1123.36 1164.44C1124.32 1164.09 1125.03 1163.59 1125.48 1162.92C1125.96 1162.23 1126.2 1161.4 1126.2 1160.44C1126.2 1159.13 1125.67 1158.17 1124.6 1157.56C1123.54 1156.95 1121.96 1156.64 1119.88 1156.64H1115.84V1152.68H1120.32C1121.42 1152.68 1122.34 1152.53 1123.08 1152.24C1123.86 1151.95 1124.42 1151.52 1124.76 1150.96C1125.14 1150.4 1125.32 1149.76 1125.32 1149.04C1125.32 1147.87 1124.82 1146.96 1123.8 1146.32C1122.82 1145.65 1121.43 1145.32 1119.64 1145.32C1118.5 1145.32 1117.31 1145.44 1116.08 1145.68C1114.88 1145.89 1113.67 1146.29 1112.44 1146.88L1111.16 1142.68C1111.94 1142.25 1112.82 1141.88 1113.8 1141.56C1114.79 1141.24 1115.84 1141 1116.96 1140.84C1118.11 1140.68 1119.34 1140.6 1120.64 1140.6C1122.7 1140.6 1124.46 1140.89 1125.92 1141.48C1127.42 1142.07 1128.58 1142.91 1129.4 1144C1130.23 1145.07 1130.64 1146.36 1130.64 1147.88C1130.64 1149.35 1130.27 1150.64 1129.52 1151.76C1128.78 1152.85 1127.7 1153.67 1126.28 1154.2C1128.04 1154.65 1129.38 1155.45 1130.28 1156.6C1131.22 1157.75 1131.68 1159.15 1131.68 1160.8C1131.68 1162.61 1131.22 1164.16 1130.28 1165.44C1129.38 1166.72 1128.07 1167.71 1126.36 1168.4C1124.68 1169.07 1122.64 1169.4 1120.24 1169.4C1118.88 1169.4 1117.63 1169.32 1116.48 1169.16C1115.34 1169 1114.27 1168.76 1113.28 1168.44C1112.32 1168.09 1111.34 1167.65 1110.32 1167.12Z" fill="white"/>
<path d="M1705.7 1165.36C1707.83 1163.55 1709.64 1161.97 1711.14 1160.64C1712.66 1159.31 1713.9 1158.15 1714.86 1157.16C1715.84 1156.17 1716.6 1155.29 1717.14 1154.52C1717.7 1153.72 1718.08 1153 1718.3 1152.36C1718.51 1151.69 1718.62 1151 1718.62 1150.28C1718.62 1149.35 1718.42 1148.56 1718.02 1147.92C1717.64 1147.25 1717.1 1146.75 1716.38 1146.4C1715.66 1146.05 1714.76 1145.88 1713.7 1145.88C1712.74 1145.88 1711.71 1146.04 1710.62 1146.36C1709.55 1146.65 1708.47 1147.12 1707.38 1147.76L1705.7 1143.24C1706.58 1142.65 1707.51 1142.17 1708.5 1141.8C1709.51 1141.4 1710.56 1141.11 1711.66 1140.92C1712.78 1140.71 1713.88 1140.6 1714.98 1140.6C1716.98 1140.6 1718.67 1140.96 1720.06 1141.68C1721.47 1142.4 1722.55 1143.4 1723.3 1144.68C1724.04 1145.96 1724.42 1147.45 1724.42 1149.16C1724.42 1150.01 1724.34 1150.81 1724.18 1151.56C1724.04 1152.31 1723.76 1153.09 1723.34 1153.92C1722.91 1154.72 1722.28 1155.63 1721.46 1156.64C1720.66 1157.63 1719.59 1158.77 1718.26 1160.08C1716.92 1161.39 1715.28 1162.91 1713.34 1164.64H1726.54V1169H1705.82L1705.7 1165.36ZM1729.98 1155C1729.98 1152.23 1730.25 1149.92 1730.78 1148.08C1731.31 1146.21 1732.09 1144.73 1733.1 1143.64C1734.11 1142.55 1735.31 1141.77 1736.7 1141.32C1738.09 1140.84 1739.63 1140.6 1741.34 1140.6C1743.07 1140.6 1744.63 1140.84 1746.02 1141.32C1747.43 1141.77 1748.63 1142.56 1749.62 1143.68C1750.61 1144.77 1751.37 1146.24 1751.9 1148.08C1752.43 1149.92 1752.7 1152.23 1752.7 1155C1752.7 1157.75 1752.42 1160.05 1751.86 1161.92C1751.3 1163.76 1750.51 1165.23 1749.5 1166.32C1748.51 1167.41 1747.33 1168.2 1745.94 1168.68C1744.55 1169.16 1743.02 1169.4 1741.34 1169.4C1739.63 1169.4 1738.09 1169.17 1736.7 1168.72C1735.31 1168.24 1734.11 1167.45 1733.1 1166.36C1732.11 1165.24 1731.34 1163.76 1730.78 1161.92C1730.25 1160.05 1729.98 1157.75 1729.98 1155ZM1735.42 1155.16C1735.42 1157.24 1735.57 1158.95 1735.86 1160.28C1736.15 1161.59 1736.57 1162.6 1737.1 1163.32C1737.63 1164.01 1738.26 1164.51 1738.98 1164.8C1739.7 1165.07 1740.49 1165.2 1741.34 1165.2C1742.17 1165.2 1742.94 1165.07 1743.66 1164.8C1744.38 1164.51 1745.01 1164.01 1745.54 1163.32C1746.07 1162.6 1746.49 1161.59 1746.78 1160.28C1747.07 1158.95 1747.22 1157.24 1747.22 1155.16C1747.22 1153 1747.07 1151.24 1746.78 1149.88C1746.49 1148.52 1746.06 1147.47 1745.5 1146.72C1744.97 1145.97 1744.34 1145.47 1743.62 1145.2C1742.93 1144.93 1742.17 1144.8 1741.34 1144.8C1740.49 1144.8 1739.7 1144.93 1738.98 1145.2C1738.29 1145.47 1737.66 1145.97 1737.1 1146.72C1736.57 1147.47 1736.15 1148.52 1735.86 1149.88C1735.57 1151.24 1735.42 1153 1735.42 1155.16ZM1756.38 1165.36C1758.51 1163.55 1760.33 1161.97 1761.82 1160.64C1763.34 1159.31 1764.58 1158.15 1765.54 1157.16C1766.53 1156.17 1767.29 1155.29 1767.82 1154.52C1768.38 1153.72 1768.77 1153 1768.98 1152.36C1769.19 1151.69 1769.3 1151 1769.3 1150.28C1769.3 1149.35 1769.1 1148.56 1768.7 1147.92C1768.33 1147.25 1767.78 1146.75 1767.06 1146.4C1766.34 1146.05 1765.45 1145.88 1764.38 1145.88C1763.42 1145.88 1762.39 1146.04 1761.3 1146.36C1760.23 1146.65 1759.15 1147.12 1758.06 1147.76L1756.38 1143.24C1757.26 1142.65 1758.19 1142.17 1759.18 1141.8C1760.19 1141.4 1761.25 1141.11 1762.34 1140.92C1763.46 1140.71 1764.57 1140.6 1765.66 1140.6C1767.66 1140.6 1769.35 1140.96 1770.74 1141.68C1772.15 1142.4 1773.23 1143.4 1773.98 1144.68C1774.73 1145.96 1775.1 1147.45 1775.1 1149.16C1775.1 1150.01 1775.02 1150.81 1774.86 1151.56C1774.73 1152.31 1774.45 1153.09 1774.02 1153.92C1773.59 1154.72 1772.97 1155.63 1772.14 1156.64C1771.34 1157.63 1770.27 1158.77 1768.94 1160.08C1767.61 1161.39 1765.97 1162.91 1764.02 1164.64H1777.22V1169H1756.5L1756.38 1165.36ZM1780.42 1163.68L1780.34 1159.72L1794.5 1140.88L1799.26 1141V1159.48H1803.42V1163.68H1799.26V1169H1793.62V1163.68H1780.42ZM1785.1 1159.48H1793.74V1148.08L1785.1 1159.48Z" fill="white"/>
<path d="M2065 663V952" stroke="#A7CCFD" stroke-width="10" stroke-linecap="round"/>
<path d="M2037 624V913" stroke="#A7CCFD" stroke-width="10" stroke-linecap="round"/>
<path d="M2009 663V952" stroke="#A7CCFD" stroke-width="10" stroke-linecap="round"/>
<path d="M1981 567V856" stroke="#A7CCFD" stroke-width="10" stroke-linecap="round"/>
<path d="M1697 647V936" stroke="#A7CCFD" stroke-width="10" stroke-linecap="round"/>
<path d="M1669 608V897" stroke="#A7CCFD" stroke-width="10" stroke-linecap="round"/>
<path d="M1641 647V936" stroke="#A7CCFD" stroke-width="10" stroke-linecap="round"/>
<path d="M1613 551V840" stroke="#D1CF81" stroke-width="10" stroke-linecap="round"/>
<path d="M1949 711V1000" stroke="#C65AE1" stroke-width="10" stroke-linecap="round"/>
<path d="M1919 539V828" stroke="#D1CF81" stroke-width="10" stroke-linecap="round"/>
<path d="M1919 539V828" stroke="#D1CF81" stroke-width="10" stroke-linecap="round"/>
<path d="M1891 605V894" stroke="#A7CCFD" stroke-width="10" stroke-linecap="round"/>
<path d="M1865 479V768" stroke="#D1CF81" stroke-width="10" stroke-linecap="round"/>
<path d="M1832 539V828" stroke="#D1CF81" stroke-width="10" stroke-linecap="round"/>
<path d="M1804 567V856" stroke="#D1CF81" stroke-width="10" stroke-linecap="round"/>
<path d="M1773 551V840" stroke="#D1CF81" stroke-width="10" stroke-linecap="round"/>
<path d="M1747 605V894" stroke="#A7CCFD" stroke-width="10" stroke-linecap="round"/>
<path d="M1580 711V1000" stroke="#C65AE1" stroke-width="10" stroke-linecap="round"/>
<path d="M1552 739V1028" stroke="#C65AE1" stroke-width="10" stroke-linecap="round"/>
<path d="M1521 723V1012" stroke="#C65AE1" stroke-width="10" stroke-linecap="round"/>
<path d="M1495 777V1066" stroke="#C65AE1" stroke-width="10" stroke-linecap="round"/>
<path d="M1723 605V894" stroke="#A7CCFD" stroke-width="10" stroke-linecap="round"/>
<path d="M1669 608V897" stroke="#A7CCFD" stroke-width="10" stroke-linecap="round"/>
<path d="M1613 551V840" stroke="#D1CF81" stroke-width="10" stroke-linecap="round"/>
<path d="M539 546V835" stroke="#D1CF81" stroke-width="10" stroke-linecap="round"/>
<path d="M511 507V796" stroke="#D1CF81" stroke-width="10" stroke-linecap="round"/>
<path d="M483 546V835" stroke="#D1CF81" stroke-width="10" stroke-linecap="round"/>
<path d="M455 450V739" stroke="#D1CF81" stroke-width="10" stroke-linecap="round"/>
<path d="M422 610V899" stroke="#A7CCFD" stroke-width="10" stroke-linecap="round"/>
<path d="M511 507V796" stroke="#D1CF81" stroke-width="10" stroke-linecap="round"/>
<path d="M455 450V739" stroke="#D1CF81" stroke-width="10" stroke-linecap="round"/>
<path d="M1804 567V856" stroke="#D1CF81" stroke-width="10" stroke-linecap="round"/>
<path d="M1773 551V840" stroke="#D1CF81" stroke-width="10" stroke-linecap="round"/>
<path d="M1747 605V894" stroke="#A7CCFD" stroke-width="10" stroke-linecap="round"/>
<path d="M1723 605V894" stroke="#A7CCFD" stroke-width="10" stroke-linecap="round"/>
<path d="M665 921V632" stroke="#A7CCFD" stroke-width="10" stroke-linecap="round"/>
<path d="M833 1089V800" stroke="#C65AE1" stroke-width="10" stroke-linecap="round"/>
<path d="M800 1029V740" stroke="#C65AE1" stroke-width="10" stroke-linecap="round"/>
<path d="M772 1001V712" stroke="#C65AE1" stroke-width="10" stroke-linecap="round"/>
<path d="M741 1017V728" stroke="#C65AE1" stroke-width="10" stroke-linecap="round"/>
<path d="M715 963V674" stroke="#A7CCFD" stroke-width="10" stroke-linecap="round"/>
<path d="M691 963V674" stroke="#A7CCFD" stroke-width="10" stroke-linecap="round"/>
<path d="M772 1001V712" stroke="#C65AE1" stroke-width="10" stroke-linecap="round"/>
<path d="M741 1017V728" stroke="#C65AE1" stroke-width="10" stroke-linecap="round"/>
<path d="M715 963V674" stroke="#A7CCFD" stroke-width="10" stroke-linecap="round"/>
<path d="M691 963V674" stroke="#A7CCFD" stroke-width="10" stroke-linecap="round"/>
<path d="M1229 819V530" stroke="#D1CF81" stroke-width="10" stroke-linecap="round"/>
<path d="M1257 858V569" stroke="#D1CF81" stroke-width="10" stroke-linecap="round"/>
<path d="M1285 819V530" stroke="#D1CF81" stroke-width="10" stroke-linecap="round"/>
<path d="M1313 915V626" stroke="#A7CCFD" stroke-width="10" stroke-linecap="round"/>
<path d="M1179 861V572" stroke="#D1CF81" stroke-width="10" stroke-linecap="round"/>
<path d="M1203 861V572" stroke="#D1CF81" stroke-width="10" stroke-linecap="round"/>
<path d="M1257 858V569" stroke="#D1CF81" stroke-width="10" stroke-linecap="round"/>
<path d="M1313 915V626" stroke="#A7CCFD" stroke-width="10" stroke-linecap="round"/>
<path d="M1179 861V572" stroke="#D1CF81" stroke-width="10" stroke-linecap="round"/>
<path d="M1203 861V572" stroke="#D1CF81" stroke-width="10" stroke-linecap="round"/>
<path d="M1421 551V840" stroke="#D1CF81" stroke-width="10" stroke-linecap="round"/>
<path d="M1393 512V801" stroke="#D1CF81" stroke-width="10" stroke-linecap="round"/>
<path d="M1365 551V840" stroke="#D1CF81" stroke-width="10" stroke-linecap="round"/>
<path d="M1337 455V744" stroke="#D1CF81" stroke-width="10" stroke-linecap="round"/>
<path d="M1471 509V798" stroke="#D1CF81" stroke-width="10" stroke-linecap="round"/>
<path d="M1447 509V798" stroke="#D1CF81" stroke-width="10" stroke-linecap="round"/>
<path d="M1393 512V801" stroke="#D1CF81" stroke-width="10" stroke-linecap="round"/>
<path d="M1337 455V744" stroke="#D1CF81" stroke-width="10" stroke-linecap="round"/>
<path d="M1471 509V798" stroke="#D1CF81" stroke-width="10" stroke-linecap="round"/>
<path d="M1447 509V798" stroke="#D1CF81" stroke-width="10" stroke-linecap="round"/>
<path d="M1101 688V977" stroke="#A7CCFD" stroke-width="10" stroke-linecap="round"/>
<path d="M1073 649V938" stroke="#A7CCFD" stroke-width="10" stroke-linecap="round"/>
<path d="M1045 688V977" stroke="#A7CCFD" stroke-width="10" stroke-linecap="round"/>
<path d="M1017 592V881" stroke="#A7CCFD" stroke-width="10" stroke-linecap="round"/>
<path d="M1151 646V935" stroke="#A7CCFD" stroke-width="10" stroke-linecap="round"/>
<path d="M1127 646V935" stroke="#A7CCFD" stroke-width="10" stroke-linecap="round"/>
<path d="M1073 649V938" stroke="#A7CCFD" stroke-width="10" stroke-linecap="round"/>
<path d="M1017 592V881" stroke="#A7CCFD" stroke-width="10" stroke-linecap="round"/>
<path d="M1151 646V935" stroke="#A7CCFD" stroke-width="10" stroke-linecap="round"/>
<path d="M641 947V658" stroke="#A7CCFD" stroke-width="10" stroke-linecap="round"/>
<path d="M177 830L177 541" stroke="#D1CF81" stroke-width="10" stroke-linecap="round"/>
<path d="M146 846L146 557" stroke="#D1CF81" stroke-width="10" stroke-linecap="round"/>
<path d="M120 792L120 503" stroke="#D1CF81" stroke-width="10" stroke-linecap="round"/>
<path d="M177 830L177 541" stroke="#D1CF81" stroke-width="10" stroke-linecap="round"/>
<path d="M146 846L146 557" stroke="#D1CF81" stroke-width="10" stroke-linecap="round"/>
<path d="M120 792L120 503" stroke="#D1CF81" stroke-width="10" stroke-linecap="round"/>
<path d="M591 989V700" stroke="#A7CCFD" stroke-width="10" stroke-linecap="round"/>
<path d="M615 989V700" stroke="#A7CCFD" stroke-width="10" stroke-linecap="round"/>
<path d="M591 989V700" stroke="#A7CCFD" stroke-width="10" stroke-linecap="round"/>
<path d="M615 989V700" stroke="#A7CCFD" stroke-width="10" stroke-linecap="round"/>
<path d="M563 774V1063" stroke="#C65AE1" stroke-width="10" stroke-linecap="round"/>
<path d="M563 774V1063" stroke="#C65AE1" stroke-width="10" stroke-linecap="round"/>
<path d="M1127 646V935" stroke="#A7CCFD" stroke-width="10" stroke-linecap="round"/>
<path d="M909 956V667" stroke="#A7CCFD" stroke-width="10" stroke-linecap="round"/>
<path d="M937 995V706" stroke="#C65AE1" stroke-width="10" stroke-linecap="round"/>
<path d="M965 956V667" stroke="#A7CCFD" stroke-width="10" stroke-linecap="round"/>
<path d="M993 1052V763" stroke="#C65AE1" stroke-width="10" stroke-linecap="round"/>
<path d="M859 998V709" stroke="#C65AE1" stroke-width="10" stroke-linecap="round"/>
<path d="M883 998V709" stroke="#C65AE1" stroke-width="10" stroke-linecap="round"/>
<path d="M937 995V706" stroke="#C65AE1" stroke-width="10" stroke-linecap="round"/>
<path d="M993 1052V763" stroke="#C65AE1" stroke-width="10" stroke-linecap="round"/>
<path d="M859 998V709" stroke="#C65AE1" stroke-width="10" stroke-linecap="round"/>
<path d="M883 998V709" stroke="#C65AE1" stroke-width="10" stroke-linecap="round"/>
<path d="M266 1044L266 755" stroke="#C65AE1" stroke-width="10" stroke-linecap="round"/>
<path d="M233 984L233 695" stroke="#A7CCFD" stroke-width="10" stroke-linecap="round"/>
<path d="M205 956L205 667" stroke="#A7CCFD" stroke-width="10" stroke-linecap="round"/>
<path d="M205 956L205 667" stroke="#A7CCFD" stroke-width="10" stroke-linecap="round"/>
<path d="M342 911V622" stroke="#A7CCFD" stroke-width="10" stroke-linecap="round"/>
<path d="M370 950V661" stroke="#A7CCFD" stroke-width="10" stroke-linecap="round"/>
<path d="M398 911V622" stroke="#A7CCFD" stroke-width="10" stroke-linecap="round"/>
<path d="M292 953V664" stroke="#A7CCFD" stroke-width="10" stroke-linecap="round"/>
<path d="M316 953V664" stroke="#A7CCFD" stroke-width="10" stroke-linecap="round"/>
<path d="M370 950V661" stroke="#A7CCFD" stroke-width="10" stroke-linecap="round"/>
<path d="M292 953V664" stroke="#A7CCFD" stroke-width="10" stroke-linecap="round"/>
<path d="M316 953V664" stroke="#A7CCFD" stroke-width="10" stroke-linecap="round"/>
<path d="M236 290.019L210.019 316L236 341.981L261.981 316L236 290.019ZM236 1077.98L261.981 1052L236 1026.02L210.019 1052L236 1077.98ZM231.5 326.222C231.5 328.708 233.515 330.722 236 330.722C238.485 330.722 240.5 328.708 240.5 326.222H231.5ZM240.5 346.667C240.5 344.181 238.485 342.167 236 342.167C233.515 342.167 231.5 344.181 231.5 346.667H240.5ZM231.5 367.111C231.5 369.596 233.515 371.611 236 371.611C238.485 371.611 240.5 369.596 240.5 367.111H231.5ZM240.5 387.556C240.5 385.07 238.485 383.056 236 383.056C233.515 383.056 231.5 385.07 231.5 387.556H240.5ZM231.5 408C231.5 410.485 233.515 412.5 236 412.5C238.485 412.5 240.5 410.485 240.5 408H231.5ZM240.5 428.444C240.5 425.959 238.485 423.944 236 423.944C233.515 423.944 231.5 425.959 231.5 428.444H240.5ZM231.5 448.889C231.5 451.374 233.515 453.389 236 453.389C238.485 453.389 240.5 451.374 240.5 448.889H231.5ZM240.5 469.333C240.5 466.848 238.485 464.833 236 464.833C233.515 464.833 231.5 466.848 231.5 469.333H240.5ZM231.5 489.778C231.5 492.263 233.515 494.278 236 494.278C238.485 494.278 240.5 492.263 240.5 489.778H231.5ZM240.5 510.222C240.5 507.737 238.485 505.722 236 505.722C233.515 505.722 231.5 507.737 231.5 510.222H240.5ZM231.5 530.667C231.5 533.152 233.515 535.167 236 535.167C238.485 535.167 240.5 533.152 240.5 530.667H231.5ZM240.5 551.111C240.5 548.626 238.485 546.611 236 546.611C233.515 546.611 231.5 548.626 231.5 551.111H240.5ZM231.5 571.556C231.5 574.041 233.515 576.056 236 576.056C238.485 576.056 240.5 574.041 240.5 571.556H231.5ZM240.5 592C240.5 589.515 238.485 587.5 236 587.5C233.515 587.5 231.5 589.515 231.5 592H240.5ZM231.5 612.444C231.5 614.93 233.515 616.944 236 616.944C238.485 616.944 240.5 614.93 240.5 612.444H231.5ZM240.5 632.889C240.5 630.404 238.485 628.389 236 628.389C233.515 628.389 231.5 630.404 231.5 632.889H240.5ZM231.5 653.333C231.5 655.819 233.515 657.833 236 657.833C238.485 657.833 240.5 655.819 240.5 653.333H231.5ZM240.5 673.778C240.5 671.293 238.485 669.278 236 669.278C233.515 669.278 231.5 671.293 231.5 673.778H240.5ZM231.5 694.222C231.5 696.708 233.515 698.722 236 698.722C238.485 698.722 240.5 696.708 240.5 694.222H231.5ZM240.5 714.667C240.5 712.181 238.485 710.167 236 710.167C233.515 710.167 231.5 712.181 231.5 714.667H240.5ZM231.5 735.111C231.5 737.597 233.515 739.611 236 739.611C238.485 739.611 240.5 737.597 240.5 735.111H231.5ZM240.5 755.556C240.5 753.07 238.485 751.056 236 751.056C233.515 751.056 231.5 753.07 231.5 755.556H240.5ZM231.5 776C231.5 778.485 233.515 780.5 236 780.5C238.485 780.5 240.5 778.485 240.5 776H231.5ZM240.5 796.445C240.5 793.959 238.485 791.945 236 791.945C233.515 791.945 231.5 793.959 231.5 796.445H240.5ZM231.5 816.889C231.5 819.374 233.515 821.389 236 821.389C238.485 821.389 240.5 819.374 240.5 816.889H231.5ZM240.5 837.333C240.5 834.848 238.485 832.833 236 832.833C233.515 832.833 231.5 834.848 231.5 837.333H240.5ZM231.5 857.778C231.5 860.263 233.515 862.278 236 862.278C238.485 862.278 240.5 860.263 240.5 857.778H231.5ZM240.5 878.222C240.5 875.737 238.485 873.722 236 873.722C233.515 873.722 231.5 875.737 231.5 878.222H240.5ZM231.5 898.667C231.5 901.152 233.515 903.167 236 903.167C238.485 903.167 240.5 901.152 240.5 898.667H231.5ZM240.5 919.111C240.5 916.626 238.485 914.611 236 914.611C233.515 914.611 231.5 916.626 231.5 919.111H240.5ZM231.5 939.556C231.5 942.041 233.515 944.056 236 944.056C238.485 944.056 240.5 942.041 240.5 939.556H231.5ZM240.5 960C240.5 957.515 238.485 955.5 236 955.5C233.515 955.5 231.5 957.515 231.5 960H240.5ZM231.5 980.445C231.5 982.93 233.515 984.945 236 984.945C238.485 984.945 240.5 982.93 240.5 980.445H231.5ZM240.5 1000.89C240.5 998.404 238.485 996.389 236 996.389C233.515 996.389 231.5 998.404 231.5 1000.89H240.5ZM231.5 1021.33C231.5 1023.82 233.515 1025.83 236 1025.83C238.485 1025.83 240.5 1023.82 240.5 1021.33H231.5ZM240.5 1041.78C240.5 1039.29 238.485 1037.28 236 1037.28C233.515 1037.28 231.5 1039.29 231.5 1041.78H240.5ZM231.5 316V326.222H240.5V316H231.5ZM231.5 346.667V367.111H240.5V346.667H231.5ZM231.5 387.556V408H240.5V387.556H231.5ZM231.5 428.444V448.889H240.5V428.444H231.5ZM231.5 469.333V489.778H240.5V469.333H231.5ZM231.5 510.222V530.667H240.5V510.222H231.5ZM231.5 551.111L231.5 571.556H240.5L240.5 551.111H231.5ZM231.5 592V612.444H240.5V592H231.5ZM231.5 632.889V653.333H240.5V632.889H231.5ZM231.5 673.778V694.222H240.5V673.778H231.5ZM231.5 714.667V735.111H240.5V714.667H231.5ZM231.5 755.556V776H240.5V755.556H231.5ZM231.5 796.445V816.889H240.5V796.445H231.5ZM231.5 837.333V857.778H240.5V837.333H231.5ZM231.5 878.222V898.667H240.5V878.222H231.5ZM231.5 919.111V939.556H240.5V919.111H231.5ZM231.5 960V980.445H240.5V960H231.5ZM231.5 1000.89L231.5 1021.33H240.5L240.5 1000.89H231.5ZM231.5 1041.78V1052H240.5V1041.78H231.5Z" fill="#AFADAD"/>
<path d="M1080 290.019L1054.02 316L1080 341.981L1105.98 316L1080 290.019ZM1080 1077.98L1105.98 1052L1080 1026.02L1054.02 1052L1080 1077.98ZM1075.5 326.222C1075.5 328.708 1077.51 330.722 1080 330.722C1082.49 330.722 1084.5 328.708 1084.5 326.222H1075.5ZM1084.5 346.667C1084.5 344.181 1082.49 342.167 1080 342.167C1077.51 342.167 1075.5 344.181 1075.5 346.667H1084.5ZM1075.5 367.111C1075.5 369.596 1077.51 371.611 1080 371.611C1082.49 371.611 1084.5 369.596 1084.5 367.111H1075.5ZM1084.5 387.556C1084.5 385.07 1082.49 383.056 1080 383.056C1077.51 383.056 1075.5 385.07 1075.5 387.556H1084.5ZM1075.5 408C1075.5 410.485 1077.51 412.5 1080 412.5C1082.49 412.5 1084.5 410.485 1084.5 408H1075.5ZM1084.5 428.444C1084.5 425.959 1082.49 423.944 1080 423.944C1077.51 423.944 1075.5 425.959 1075.5 428.444H1084.5ZM1075.5 448.889C1075.5 451.374 1077.51 453.389 1080 453.389C1082.49 453.389 1084.5 451.374 1084.5 448.889H1075.5ZM1084.5 469.333C1084.5 466.848 1082.49 464.833 1080 464.833C1077.51 464.833 1075.5 466.848 1075.5 469.333H1084.5ZM1075.5 489.778C1075.5 492.263 1077.51 494.278 1080 494.278C1082.49 494.278 1084.5 492.263 1084.5 489.778H1075.5ZM1084.5 510.222C1084.5 507.737 1082.49 505.722 1080 505.722C1077.51 505.722 1075.5 507.737 1075.5 510.222H1084.5ZM1075.5 530.667C1075.5 533.152 1077.51 535.167 1080 535.167C1082.49 535.167 1084.5 533.152 1084.5 530.667H1075.5ZM1084.5 551.111C1084.5 548.626 1082.49 546.611 1080 546.611C1077.51 546.611 1075.5 548.626 1075.5 551.111H1084.5ZM1075.5 571.556C1075.5 574.041 1077.51 576.056 1080 576.056C1082.49 576.056 1084.5 574.041 1084.5 571.556H1075.5ZM1084.5 592C1084.5 589.515 1082.49 587.5 1080 587.5C1077.51 587.5 1075.5 589.515 1075.5 592H1084.5ZM1075.5 612.444C1075.5 614.93 1077.51 616.944 1080 616.944C1082.49 616.944 1084.5 614.93 1084.5 612.444H1075.5ZM1084.5 632.889C1084.5 630.404 1082.49 628.389 1080 628.389C1077.51 628.389 1075.5 630.404 1075.5 632.889H1084.5ZM1075.5 653.333C1075.5 655.819 1077.51 657.833 1080 657.833C1082.49 657.833 1084.5 655.819 1084.5 653.333H1075.5ZM1084.5 673.778C1084.5 671.293 1082.49 669.278 1080 669.278C1077.51 669.278 1075.5 671.293 1075.5 673.778H1084.5ZM1075.5 694.222C1075.5 696.708 1077.51 698.722 1080 698.722C1082.49 698.722 1084.5 696.708 1084.5 694.222H1075.5ZM1084.5 714.667C1084.5 712.181 1082.49 710.167 1080 710.167C1077.51 710.167 1075.5 712.181 1075.5 714.667H1084.5ZM1075.5 735.111C1075.5 737.597 1077.51 739.611 1080 739.611C1082.49 739.611 1084.5 737.597 1084.5 735.111H1075.5ZM1084.5 755.556C1084.5 753.07 1082.49 751.056 1080 751.056C1077.51 751.056 1075.5 753.07 1075.5 755.556H1084.5ZM1075.5 776C1075.5 778.485 1077.51 780.5 1080 780.5C1082.49 780.5 1084.5 778.485 1084.5 776H1075.5ZM1084.5 796.445C1084.5 793.959 1082.49 791.945 1080 791.945C1077.51 791.945 1075.5 793.959 1075.5 796.445H1084.5ZM1075.5 816.889C1075.5 819.374 1077.51 821.389 1080 821.389C1082.49 821.389 1084.5 819.374 1084.5 816.889H1075.5ZM1084.5 837.333C1084.5 834.848 1082.49 832.833 1080 832.833C1077.51 832.833 1075.5 834.848 1075.5 837.333H1084.5ZM1075.5 857.778C1075.5 860.263 1077.51 862.278 1080 862.278C1082.49 862.278 1084.5 860.263 1084.5 857.778H1075.5ZM1084.5 878.222C1084.5 875.737 1082.49 873.722 1080 873.722C1077.51 873.722 1075.5 875.737 1075.5 878.222H1084.5ZM1075.5 898.667C1075.5 901.152 1077.51 903.167 1080 903.167C1082.49 903.167 1084.5 901.152 1084.5 898.667H1075.5ZM1084.5 919.111C1084.5 916.626 1082.49 914.611 1080 914.611C1077.51 914.611 1075.5 916.626 1075.5 919.111H1084.5ZM1075.5 939.556C1075.5 942.041 1077.51 944.056 1080 944.056C1082.49 944.056 1084.5 942.041 1084.5 939.556H1075.5ZM1084.5 960C1084.5 957.515 1082.49 955.5 1080 955.5C1077.51 955.5 1075.5 957.515 1075.5 960H1084.5ZM1075.5 980.445C1075.5 982.93 1077.51 984.945 1080 984.945C1082.49 984.945 1084.5 982.93 1084.5 980.445H1075.5ZM1084.5 1000.89C1084.5 998.404 1082.49 996.389 1080 996.389C1077.51 996.389 1075.5 998.404 1075.5 1000.89H1084.5ZM1075.5 1021.33C1075.5 1023.82 1077.51 1025.83 1080 1025.83C1082.49 1025.83 1084.5 1023.82 1084.5 1021.33H1075.5ZM1084.5 1041.78C1084.5 1039.29 1082.49 1037.28 1080 1037.28C1077.51 1037.28 1075.5 1039.29 1075.5 1041.78H1084.5ZM1075.5 316V326.222H1084.5V316H1075.5ZM1075.5 346.667V367.111H1084.5V346.667H1075.5ZM1075.5 387.556V408H1084.5V387.556H1075.5ZM1075.5 428.444V448.889H1084.5V428.444H1075.5ZM1075.5 469.333V489.778H1084.5V469.333H1075.5ZM1075.5 510.222V530.667H1084.5V510.222H1075.5ZM1075.5 551.111V571.556H1084.5V551.111H1075.5ZM1075.5 592V612.444H1084.5V592H1075.5ZM1075.5 632.889V653.333H1084.5V632.889H1075.5ZM1075.5 673.778V694.222H1084.5V673.778H1075.5ZM1075.5 714.667V735.111H1084.5V714.667H1075.5ZM1075.5 755.556V776H1084.5V755.556H1075.5ZM1075.5 796.445V816.889H1084.5V796.445H1075.5ZM1075.5 837.333V857.778H1084.5V837.333H1075.5ZM1075.5 878.222V898.667H1084.5V878.222H1075.5ZM1075.5 919.111V939.556H1084.5V919.111H1075.5ZM1075.5 960V980.445H1084.5V960H1075.5ZM1075.5 1000.89V1021.33H1084.5V1000.89H1075.5ZM1075.5 1041.78V1052H1084.5V1041.78H1075.5Z" fill="#AFADAD"/>
<path d="M1756 290.019L1730.02 316L1756 341.981L1781.98 316L1756 290.019ZM1756 1077.98L1781.98 1052L1756 1026.02L1730.02 1052L1756 1077.98ZM1751.5 326.222C1751.5 328.708 1753.51 330.722 1756 330.722C1758.49 330.722 1760.5 328.708 1760.5 326.222H1751.5ZM1760.5 346.667C1760.5 344.181 1758.49 342.167 1756 342.167C1753.51 342.167 1751.5 344.181 1751.5 346.667H1760.5ZM1751.5 367.111C1751.5 369.596 1753.51 371.611 1756 371.611C1758.49 371.611 1760.5 369.596 1760.5 367.111H1751.5ZM1760.5 387.556C1760.5 385.07 1758.49 383.056 1756 383.056C1753.51 383.056 1751.5 385.07 1751.5 387.556H1760.5ZM1751.5 408C1751.5 410.485 1753.51 412.5 1756 412.5C1758.49 412.5 1760.5 410.485 1760.5 408H1751.5ZM1760.5 428.444C1760.5 425.959 1758.49 423.944 1756 423.944C1753.51 423.944 1751.5 425.959 1751.5 428.444H1760.5ZM1751.5 448.889C1751.5 451.374 1753.51 453.389 1756 453.389C1758.49 453.389 1760.5 451.374 1760.5 448.889H1751.5ZM1760.5 469.333C1760.5 466.848 1758.49 464.833 1756 464.833C1753.51 464.833 1751.5 466.848 1751.5 469.333H1760.5ZM1751.5 489.778C1751.5 492.263 1753.51 494.278 1756 494.278C1758.49 494.278 1760.5 492.263 1760.5 489.778H1751.5ZM1760.5 510.222C1760.5 507.737 1758.49 505.722 1756 505.722C1753.51 505.722 1751.5 507.737 1751.5 510.222H1760.5ZM1751.5 530.667C1751.5 533.152 1753.51 535.167 1756 535.167C1758.49 535.167 1760.5 533.152 1760.5 530.667H1751.5ZM1760.5 551.111C1760.5 548.626 1758.49 546.611 1756 546.611C1753.51 546.611 1751.5 548.626 1751.5 551.111H1760.5ZM1751.5 571.556C1751.5 574.041 1753.51 576.056 1756 576.056C1758.49 576.056 1760.5 574.041 1760.5 571.556H1751.5ZM1760.5 592C1760.5 589.515 1758.49 587.5 1756 587.5C1753.51 587.5 1751.5 589.515 1751.5 592H1760.5ZM1751.5 612.444C1751.5 614.93 1753.51 616.944 1756 616.944C1758.49 616.944 1760.5 614.93 1760.5 612.444H1751.5ZM1760.5 632.889C1760.5 630.404 1758.49 628.389 1756 628.389C1753.51 628.389 1751.5 630.404 1751.5 632.889H1760.5ZM1751.5 653.333C1751.5 655.819 1753.51 657.833 1756 657.833C1758.49 657.833 1760.5 655.819 1760.5 653.333H1751.5ZM1760.5 673.778C1760.5 671.293 1758.49 669.278 1756 669.278C1753.51 669.278 1751.5 671.293 1751.5 673.778H1760.5ZM1751.5 694.222C1751.5 696.708 1753.51 698.722 1756 698.722C1758.49 698.722 1760.5 696.708 1760.5 694.222H1751.5ZM1760.5 714.667C1760.5 712.181 1758.49 710.167 1756 710.167C1753.51 710.167 1751.5 712.181 1751.5 714.667H1760.5ZM1751.5 735.111C1751.5 737.597 1753.51 739.611 1756 739.611C1758.49 739.611 1760.5 737.597 1760.5 735.111H1751.5ZM1760.5 755.556C1760.5 753.07 1758.49 751.056 1756 751.056C1753.51 751.056 1751.5 753.07 1751.5 755.556H1760.5ZM1751.5 776C1751.5 778.485 1753.51 780.5 1756 780.5C1758.49 780.5 1760.5 778.485 1760.5 776H1751.5ZM1760.5 796.445C1760.5 793.959 1758.49 791.945 1756 791.945C1753.51 791.945 1751.5 793.959 1751.5 796.445H1760.5ZM1751.5 816.889C1751.5 819.374 1753.51 821.389 1756 821.389C1758.49 821.389 1760.5 819.374 1760.5 816.889H1751.5ZM1760.5 837.333C1760.5 834.848 1758.49 832.833 1756 832.833C1753.51 832.833 1751.5 834.848 1751.5 837.333H1760.5ZM1751.5 857.778C1751.5 860.263 1753.51 862.278 1756 862.278C1758.49 862.278 1760.5 860.263 1760.5 857.778H1751.5ZM1760.5 878.222C1760.5 875.737 1758.49 873.722 1756 873.722C1753.51 873.722 1751.5 875.737 1751.5 878.222H1760.5ZM1751.5 898.667C1751.5 901.152 1753.51 903.167 1756 903.167C1758.49 903.167 1760.5 901.152 1760.5 898.667H1751.5ZM1760.5 919.111C1760.5 916.626 1758.49 914.611 1756 914.611C1753.51 914.611 1751.5 916.626 1751.5 919.111H1760.5ZM1751.5 939.556C1751.5 942.041 1753.51 944.056 1756 944.056C1758.49 944.056 1760.5 942.041 1760.5 939.556H1751.5ZM1760.5 960C1760.5 957.515 1758.49 955.5 1756 955.5C1753.51 955.5 1751.5 957.515 1751.5 960H1760.5ZM1751.5 980.445C1751.5 982.93 1753.51 984.945 1756 984.945C1758.49 984.945 1760.5 982.93 1760.5 980.445H1751.5ZM1760.5 1000.89C1760.5 998.404 1758.49 996.389 1756 996.389C1753.51 996.389 1751.5 998.404 1751.5 1000.89H1760.5ZM1751.5 1021.33C1751.5 1023.82 1753.51 1025.83 1756 1025.83C1758.49 1025.83 1760.5 1023.82 1760.5 1021.33H1751.5ZM1760.5 1041.78C1760.5 1039.29 1758.49 1037.28 1756 1037.28C1753.51 1037.28 1751.5 1039.29 1751.5 1041.78H1760.5ZM1751.5 316V326.222H1760.5V316H1751.5ZM1751.5 346.667V367.111H1760.5V346.667H1751.5ZM1751.5 387.556V408H1760.5V387.556H1751.5ZM1751.5 428.444V448.889H1760.5V428.444H1751.5ZM1751.5 469.333V489.778H1760.5V469.333H1751.5ZM1751.5 510.222V530.667H1760.5V510.222H1751.5ZM1751.5 551.111V571.556H1760.5V551.111H1751.5ZM1751.5 592V612.444H1760.5V592H1751.5ZM1751.5 632.889V653.333H1760.5V632.889H1751.5ZM1751.5 673.778V694.222H1760.5V673.778H1751.5ZM1751.5 714.667V735.111H1760.5V714.667H1751.5ZM1751.5 755.556V776H1760.5V755.556H1751.5ZM1751.5 796.445V816.889H1760.5V796.445H1751.5ZM1751.5 837.333V857.778H1760.5V837.333H1751.5ZM1751.5 878.222V898.667H1760.5V878.222H1751.5ZM1751.5 919.111V939.556H1760.5V919.111H1751.5ZM1751.5 960V980.445H1760.5V960H1751.5ZM1751.5 1000.89V1021.33H1760.5V1000.89H1751.5ZM1751.5 1041.78V1052H1760.5V1041.78H1751.5Z" fill="#AFADAD"/>
</svg>
